<mxfile host="app.diagrams.net" modified="2020-11-05T09:48:58.239Z" agent="5.0 (Windows NT 10.0; Win64; x64) AppleWebKit/537.36 (KHTML, like Gecko) Chrome/86.0.4240.183 Safari/537.36" etag="SxQJYZTVvYk-yqRMpQZC" version="13.8.8" type="github">
  <diagram id="Vf9AiiPR7Wviq1b5NcDG" name="Page-1">
    <mxGraphModel dx="2234" dy="259" grid="1" gridSize="10" guides="0" tooltips="1" connect="1" arrows="1" fold="1" page="1" pageScale="1" pageWidth="1169" pageHeight="827" math="0" shadow="0">
      <root>
        <mxCell id="0" />
        <mxCell id="1" parent="0" />
        <mxCell id="MWNhhg4DmTbggFdNVIW7-157" value="" style="strokeWidth=2;html=1;shape=mxgraph.flowchart.database;whiteSpace=wrap;labelBackgroundColor=none;fillColor=none;fontSize=15;labelPosition=center;verticalLabelPosition=middle;align=center;verticalAlign=middle;" parent="1" vertex="1">
          <mxGeometry x="770" y="1080" width="340" height="200" as="geometry" />
        </mxCell>
        <mxCell id="MWNhhg4DmTbggFdNVIW7-74" style="edgeStyle=orthogonalEdgeStyle;rounded=0;orthogonalLoop=1;jettySize=auto;html=1;fontSize=15;" parent="1" source="MWNhhg4DmTbggFdNVIW7-75" target="MWNhhg4DmTbggFdNVIW7-77" edge="1">
          <mxGeometry relative="1" as="geometry" />
        </mxCell>
        <mxCell id="MWNhhg4DmTbggFdNVIW7-75" value="Scheduled &lt;br style=&quot;font-size: 15px;&quot;&gt;EventBridge event" style="outlineConnect=0;fontColor=#232F3E;gradientColor=#F34482;gradientDirection=north;fillColor=#BC1356;strokeColor=#ffffff;dashed=0;verticalLabelPosition=bottom;verticalAlign=top;align=center;html=1;fontSize=15;fontStyle=0;aspect=fixed;shape=mxgraph.aws4.resourceIcon;resIcon=mxgraph.aws4.eventbridge;" parent="1" vertex="1">
          <mxGeometry x="30" y="959.94" width="78" height="78" as="geometry" />
        </mxCell>
        <mxCell id="MWNhhg4DmTbggFdNVIW7-76" style="edgeStyle=orthogonalEdgeStyle;rounded=0;orthogonalLoop=1;jettySize=auto;html=1;fontSize=15;" parent="1" source="MWNhhg4DmTbggFdNVIW7-77" target="MWNhhg4DmTbggFdNVIW7-86" edge="1">
          <mxGeometry relative="1" as="geometry" />
        </mxCell>
        <mxCell id="MWNhhg4DmTbggFdNVIW7-77" value="SQS Queue" style="outlineConnect=0;fontColor=#232F3E;gradientColor=#F34482;gradientDirection=north;fillColor=#BC1356;strokeColor=#ffffff;dashed=0;verticalLabelPosition=bottom;verticalAlign=top;align=center;html=1;fontSize=15;fontStyle=0;aspect=fixed;shape=mxgraph.aws4.resourceIcon;resIcon=mxgraph.aws4.sqs;" parent="1" vertex="1">
          <mxGeometry x="160" y="959.94" width="78" height="78" as="geometry" />
        </mxCell>
        <mxCell id="MWNhhg4DmTbggFdNVIW7-84" style="edgeStyle=orthogonalEdgeStyle;rounded=0;orthogonalLoop=1;jettySize=auto;html=1;entryX=0;entryY=0.5;entryDx=0;entryDy=0;fontSize=15;" parent="1" source="MWNhhg4DmTbggFdNVIW7-86" target="MWNhhg4DmTbggFdNVIW7-95" edge="1">
          <mxGeometry relative="1" as="geometry">
            <Array as="points">
              <mxPoint x="400" y="999" />
              <mxPoint x="400" y="945" />
            </Array>
          </mxGeometry>
        </mxCell>
        <mxCell id="wcl93YPTjWswhF3ndqCy-5" style="edgeStyle=orthogonalEdgeStyle;rounded=0;orthogonalLoop=1;jettySize=auto;html=1;" edge="1" parent="1" source="MWNhhg4DmTbggFdNVIW7-86" target="wcl93YPTjWswhF3ndqCy-4">
          <mxGeometry relative="1" as="geometry">
            <Array as="points">
              <mxPoint x="400" y="999" />
              <mxPoint x="400" y="1182" />
            </Array>
          </mxGeometry>
        </mxCell>
        <mxCell id="MWNhhg4DmTbggFdNVIW7-86" value="Lambda &lt;br style=&quot;font-size: 15px;&quot;&gt;listener" style="outlineConnect=0;fontColor=#232F3E;gradientColor=#F78E04;gradientDirection=north;fillColor=#D05C17;strokeColor=#ffffff;dashed=0;verticalLabelPosition=bottom;verticalAlign=top;align=center;html=1;fontSize=15;fontStyle=0;aspect=fixed;shape=mxgraph.aws4.resourceIcon;resIcon=mxgraph.aws4.lambda;" parent="1" vertex="1">
          <mxGeometry x="290" y="959.94" width="78" height="78" as="geometry" />
        </mxCell>
        <mxCell id="MWNhhg4DmTbggFdNVIW7-87" style="edgeStyle=orthogonalEdgeStyle;rounded=0;orthogonalLoop=1;jettySize=auto;html=1;fontSize=15;" parent="1" target="MWNhhg4DmTbggFdNVIW7-105" edge="1" source="wcl93YPTjWswhF3ndqCy-1">
          <mxGeometry relative="1" as="geometry">
            <mxPoint x="610.0000000000002" y="1054.857142857143" as="sourcePoint" />
            <Array as="points">
              <mxPoint x="650" y="1075" />
              <mxPoint x="650" y="999" />
            </Array>
          </mxGeometry>
        </mxCell>
        <mxCell id="MWNhhg4DmTbggFdNVIW7-94" value="" style="group;fontSize=15;" parent="1" vertex="1" connectable="0">
          <mxGeometry x="438" y="899.94" width="172" height="90" as="geometry" />
        </mxCell>
        <mxCell id="MWNhhg4DmTbggFdNVIW7-95" value="AWS Step Functions workflow" style="points=[[0,0],[0.25,0],[0.5,0],[0.75,0],[1,0],[1,0.25],[1,0.5],[1,0.75],[1,1],[0.75,1],[0.5,1],[0.25,1],[0,1],[0,0.75],[0,0.5],[0,0.25]];outlineConnect=0;gradientColor=none;html=1;whiteSpace=wrap;fontSize=15;fontStyle=0;shape=mxgraph.aws4.group;grIcon=mxgraph.aws4.group_aws_step_functions_workflow;strokeColor=#CD2264;fillColor=none;verticalAlign=top;align=left;spacingLeft=30;fontColor=#CD2264;dashed=0;" parent="MWNhhg4DmTbggFdNVIW7-94" vertex="1">
          <mxGeometry width="172" height="90" as="geometry" />
        </mxCell>
        <mxCell id="MWNhhg4DmTbggFdNVIW7-96" value="" style="outlineConnect=0;fontColor=#232F3E;gradientColor=#F78E04;gradientDirection=north;fillColor=#D05C17;strokeColor=#ffffff;dashed=0;verticalLabelPosition=bottom;verticalAlign=top;align=center;html=1;fontSize=15;fontStyle=0;aspect=fixed;shape=mxgraph.aws4.resourceIcon;resIcon=mxgraph.aws4.lambda;" parent="MWNhhg4DmTbggFdNVIW7-94" vertex="1">
          <mxGeometry x="22" y="40" width="30" height="30" as="geometry" />
        </mxCell>
        <mxCell id="MWNhhg4DmTbggFdNVIW7-97" value="" style="outlineConnect=0;fontColor=#232F3E;gradientColor=#F78E04;gradientDirection=north;fillColor=#D05C17;strokeColor=#ffffff;dashed=0;verticalLabelPosition=bottom;verticalAlign=top;align=center;html=1;fontSize=15;fontStyle=0;aspect=fixed;shape=mxgraph.aws4.resourceIcon;resIcon=mxgraph.aws4.lambda;" parent="MWNhhg4DmTbggFdNVIW7-94" vertex="1">
          <mxGeometry x="75" y="40" width="30" height="30" as="geometry" />
        </mxCell>
        <mxCell id="MWNhhg4DmTbggFdNVIW7-98" style="edgeStyle=orthogonalEdgeStyle;rounded=0;orthogonalLoop=1;jettySize=auto;html=1;fontSize=15;" parent="MWNhhg4DmTbggFdNVIW7-94" source="MWNhhg4DmTbggFdNVIW7-96" target="MWNhhg4DmTbggFdNVIW7-97" edge="1">
          <mxGeometry relative="1" as="geometry" />
        </mxCell>
        <mxCell id="MWNhhg4DmTbggFdNVIW7-99" value="" style="outlineConnect=0;fontColor=#232F3E;gradientColor=#F78E04;gradientDirection=north;fillColor=#D05C17;strokeColor=#ffffff;dashed=0;verticalLabelPosition=bottom;verticalAlign=top;align=center;html=1;fontSize=15;fontStyle=0;aspect=fixed;shape=mxgraph.aws4.resourceIcon;resIcon=mxgraph.aws4.lambda;" parent="MWNhhg4DmTbggFdNVIW7-94" vertex="1">
          <mxGeometry x="126" y="40" width="30" height="30" as="geometry" />
        </mxCell>
        <mxCell id="MWNhhg4DmTbggFdNVIW7-100" style="edgeStyle=orthogonalEdgeStyle;rounded=0;orthogonalLoop=1;jettySize=auto;html=1;fontSize=15;" parent="MWNhhg4DmTbggFdNVIW7-94" source="MWNhhg4DmTbggFdNVIW7-97" target="MWNhhg4DmTbggFdNVIW7-99" edge="1">
          <mxGeometry relative="1" as="geometry" />
        </mxCell>
        <mxCell id="MWNhhg4DmTbggFdNVIW7-102" value="Parallel processes" style="text;html=1;align=center;verticalAlign=middle;resizable=0;points=[];autosize=1;fontSize=15;" parent="1" vertex="1">
          <mxGeometry x="453" y="989.94" width="140" height="20" as="geometry" />
        </mxCell>
        <mxCell id="MWNhhg4DmTbggFdNVIW7-105" value="" style="outlineConnect=0;fontColor=#232F3E;gradientColor=#F78E04;gradientDirection=north;fillColor=#D05C17;strokeColor=#ffffff;dashed=0;verticalLabelPosition=middle;verticalAlign=middle;align=left;html=1;fontSize=15;fontStyle=0;aspect=fixed;shape=mxgraph.aws4.resourceIcon;resIcon=mxgraph.aws4.lambda;labelPosition=right;" parent="1" vertex="1">
          <mxGeometry x="700" y="959.94" width="78" height="78" as="geometry" />
        </mxCell>
        <mxCell id="MWNhhg4DmTbggFdNVIW7-106" style="edgeStyle=orthogonalEdgeStyle;rounded=0;orthogonalLoop=1;jettySize=auto;html=1;fontSize=15;" parent="1" source="MWNhhg4DmTbggFdNVIW7-95" target="MWNhhg4DmTbggFdNVIW7-105" edge="1">
          <mxGeometry relative="1" as="geometry">
            <Array as="points">
              <mxPoint x="650" y="945" />
              <mxPoint x="650" y="999" />
            </Array>
          </mxGeometry>
        </mxCell>
        <mxCell id="MWNhhg4DmTbggFdNVIW7-152" value="" style="shape=flexArrow;endArrow=classic;html=1;fontSize=15;" parent="1" source="MWNhhg4DmTbggFdNVIW7-157" edge="1">
          <mxGeometry width="50" height="50" relative="1" as="geometry">
            <mxPoint x="1110" y="1218" as="sourcePoint" />
            <mxPoint x="1260" y="1179" as="targetPoint" />
          </mxGeometry>
        </mxCell>
        <mxCell id="MWNhhg4DmTbggFdNVIW7-153" value="Visualisation" style="edgeLabel;html=1;align=center;verticalAlign=middle;resizable=0;points=[];fontSize=15;" parent="MWNhhg4DmTbggFdNVIW7-152" vertex="1" connectable="0">
          <mxGeometry x="0.5191" y="-7" relative="1" as="geometry">
            <mxPoint x="-56.489999999999995" y="-7.869999999999997" as="offset" />
          </mxGeometry>
        </mxCell>
        <mxCell id="MWNhhg4DmTbggFdNVIW7-154" value="On Premises&lt;br style=&quot;font-size: 15px;&quot;&gt;SQL server" style="outlineConnect=0;fontColor=#232F3E;gradientColor=none;fillColor=#3334B9;strokeColor=none;dashed=0;verticalLabelPosition=bottom;verticalAlign=top;align=center;html=1;fontSize=15;fontStyle=0;aspect=fixed;pointerEvents=1;shape=mxgraph.aws4.rds_sql_server_instance;" parent="1" vertex="1">
          <mxGeometry x="900" y="1380" width="78" height="78" as="geometry" />
        </mxCell>
        <mxCell id="MWNhhg4DmTbggFdNVIW7-155" value="Synchronisation with&lt;br&gt;on-prem SQL" style="shape=flexArrow;endArrow=classic;startArrow=classic;html=1;fontSize=15;" parent="1" source="MWNhhg4DmTbggFdNVIW7-154" target="MWNhhg4DmTbggFdNVIW7-157" edge="1">
          <mxGeometry x="-0.0003" y="-11" width="50" height="50" relative="1" as="geometry">
            <mxPoint x="1350" y="1640" as="sourcePoint" />
            <mxPoint x="1400" y="1590" as="targetPoint" />
            <mxPoint as="offset" />
          </mxGeometry>
        </mxCell>
        <mxCell id="MWNhhg4DmTbggFdNVIW7-161" style="edgeStyle=orthogonalEdgeStyle;rounded=0;orthogonalLoop=1;jettySize=auto;html=1;endArrow=classic;endFill=1;fontSize=15;align=center;" parent="1" source="MWNhhg4DmTbggFdNVIW7-105" target="MWNhhg4DmTbggFdNVIW7-157" edge="1">
          <mxGeometry relative="1" as="geometry">
            <Array as="points">
              <mxPoint x="920" y="999" />
            </Array>
          </mxGeometry>
        </mxCell>
        <mxCell id="wcl93YPTjWswhF3ndqCy-7" value="&lt;span style=&quot;color: rgb(35 , 47 , 62) ; font-size: 15px ; text-align: left ; background-color: rgb(248 , 249 , 250)&quot;&gt;Lambda writes to&amp;nbsp;&lt;/span&gt;&lt;br style=&quot;color: rgb(35 , 47 , 62) ; font-size: 15px ; text-align: left ; background-color: rgb(248 , 249 , 250)&quot;&gt;&lt;span style=&quot;color: rgb(35 , 47 , 62) ; font-size: 15px ; text-align: left ; background-color: rgb(248 , 249 , 250)&quot;&gt;datastore&lt;/span&gt;" style="edgeLabel;html=1;align=center;verticalAlign=middle;resizable=0;points=[];" vertex="1" connectable="0" parent="MWNhhg4DmTbggFdNVIW7-161">
          <mxGeometry x="-0.3591" y="-47" relative="1" as="geometry">
            <mxPoint x="60.57" y="-46" as="offset" />
          </mxGeometry>
        </mxCell>
        <mxCell id="z7oBixYNPeEA9d2iZLEs-1" value="" style="shape=image;verticalLabelPosition=bottom;labelBackgroundColor=#ffffff;verticalAlign=top;aspect=fixed;imageAspect=0;image=data:image/png,iVBORw0KGgoAAAANSUhEUgAAAPoAAADICAYAAADBXvybAAAACXBIWXMAAAsSAAALEgHS3X78AAAMtUlEQVR42u2dzXXiyBpAP/V5e5yBeRGYDMzbsjFE0DiCpiNoTQSDIxgcAXjjbcsRjIhg5AxQBPUWfEyrsX6+kkrY4HvPYdFtIRVVdetfVZFzTgDgsvlCFAAgOgAgOgAgOgAgOgAgOgAgOgAgOgAgOgCiAwCiAwCiAwCiAwCiAwCiAwCiAwCiAyA6ACA6ACA6ACA6ACA6ACA6ACA6ACA6AKIDAKIDAKIDAKIDAKIDAKIDAKIDAKIDAKIDIDoAIDoAIDoAIDoAIDoAIDoAIDoAIDoAogMAogMAogMAogMAogMAogMAogMAogMgOgAgOgAgOgAgOgAgOgAgOgAgOgAgOgAgOgCiAwCiAwCiAwCiAwCiAwCiAwCiA8Ab/kMUAJyOfDZZisio4bJ0sH5eIDrA+TISkVua7gCA6ACA6ACA6ACIDgCIDgBF8tlkeC5hQXSAdmLNReSffDaJ89nk6h3DcZXPJrGGZV51XeScI9UAPOUSkUxEBof/EpHFYP28Mnw32IIZFXt5FI7hYP28Q3SA7qLHIvKj5E9bFT7p+fljFfym5M8PZYUEogP494X/abjsSYXPenj2UkTuGi797/Gz6aMD+LEyXHOnfeZRQMlHWsDctQkjogP4NZmt69RfB+vnNNSz9V5b4+W3+WwyRXSA/mrzA/Menu/zRtsS0QH8a/OFiFwbL3/qY0BO7/lkvPxaw4zoAB5sROSxh5q3Ta2eG6571DCLCKPuAG366XFNX/2Pwfo57jkMsZRP74mIvIhIfNyi6FX0KIrGhssy51xGFvpcRFE0FJFh03XOueSDCj9X4YvN+VcRGZUtWCn87pGINK2k2znn0ppnX4lIWvLsuGrRTt+iW27+h3MuJut/OtHraqWi6NEHrt2vtCm9kP3qtPum1XFRFCXSPHL/4pwbNzx7KiJrbcYvRWRZV8CwlRRAS1SsOJ9NViIytSyBDfjsTT6bfBeRjWVhDqIDdJcuk6PprBM91/xMRt0BPgGIDoDoAIDoAIDoAJ+BfDYZ68j7qZ+70QU8iA7Qo2jDfDZJROSniHzVFWunenYs+1dWf+azSdK0ZxwLZuBdOOcFM7pQJhaRb8d/koqtnHp4fia/tpA68CD71XE7anSAbpItVLJvJX8eyGnm05clkouGKSu+tYboAH6Cj/LZJBORPyskO/DV2m9uOx4gIl9rLhmIyJ/5bJIVd7hBdAAbQ7G/j95nrW7t5l5LYbdZRAcwMFg/b2T/CqiFm7o91jvU5nOxb2X1Ulx7773WXV89PW6aJCKSOud275EIhddhh/rZyf41vnd/zbHktcTe4imKoqtCKX54bqrxUfvqY8DfOpLfXz/N9Den7xD3h/xQ1pTOZP+KtE/+WIjI39ZaPZ9NNqEG5nQAbukZVvESXSMsFpFpRf/kh163FZGlc251ggScyn5frpuGa0X2m+ptRGTl++67jg43kRQzjBY886r4iqLoVfb7jy27Sl941ripaRlFUa6F8iZkGkVRNJe372aXPfvwm7Oe88ZC4/7acL3IfnumlXNu01Crp/ls8iDlA3HH7LSgDVWoH+41MFz7eLwxZeP0mnUa5IhXTfi/DNeap9e0xlo2DEY08SAisVUwnynCFuF7FZFpm9pOBY89mnJvKgmNh2UHqUYq743nVw9bMjXGk3V6LVDeeBWReV0tXzO1VYzXZV+7zOj8+aLh+W+m+GpFj6Jo1THiJJToURRNNVMNAjxzKyJji+xW0Q81ZYvw5SIy8qnlWha+lX05LWx2npLPpXqaJxgW0bXQ2wQMy4NzblEj20L2o+9lBdjiRPPoVYXa97LXVytFP5HkJtE1U/0V+Lkm2Y2ib1vUar/J1rSjSM/pYi74CjX53yfIG42i95Q3REQenXPzGtnSQpq/qOCpQdLE0Ap7Gayfx4Z7jVT4w/22g/Vz6aERX2oi7xSSW2uOPhLyRvz26W66VxdutcXSFBfLntLlRkQSbf5amsibD5I3RtLfVNbXhvGZhTb1Z4P18zjkYQ1WBuvnVAuEmYalshXypkbXwYy07yaZpUZvEZbDNrg+Yf9fXZ/MWKOH4Mk5N21onv7sOQy1TVYNx0ZsxwL1XqNHUZQGKGQ75Y8Wze5gNboPZaPusYcoWxUxk1/TKiEj3tInPwz8bQ5NT611FsZ+bCzl0y+n5s4QFz6DSpnsR2l90uRbFEWbqoythY1V8lzzRiL7EeORtB84rBqnuPGIj1Q/Qw2L9bsfJX+EE11rUGvTsLT0D9WH1Ex1a0jA0XHfUv8da4m/NjSbR4Hnebeaua99f3OZZNp9sd7r+/FIujZxE2MBXpexY4/fPz+O08CDZtZDEp40LLuWXcLbqnQ5J760jLzvVU08HcB4PFFCzusGkHRe1LKaKUSJ/Soi9865yDk3cs4NtdnpExfDjpn6vmy6TIUbahgtGXtY0Y26NcbDuKzgVFnGYjtppGncxlJYPDnnSmcUdB3BfeBC5WxEn1oS0jD3uuiSmNr0bmoibo2lrKXJO+0Yj08q9qqi4HtqK7oKZmlmvtQtgtHMbs2w0w5xFDcUvql0HwQdhxBU48tSEdxdjOiaoSzNw8YRV03oLiOz0xDhUNI2gnnS9IzlCTL10pAuG2MBPG0Zjty44q6r6Jb8sTWuTTCFxXjq0Fn00a2Htm88rmvbVx+dOPKv+4xk51yiSy17i4um5ZsFEkMNNWopemIMa6pLYr376traGwTMp9a+99jj2osQ3TpolXUIlyUsPyTc6rCPjCUutp6tjybRB1EUXR01wQcB88bh2tue4sOn0MmMhfBVoPRcGcKW9Sm6tXbaGa9LO9RiwwsUtlUNZmTnKZhVqERr0VEP4cgk4HRbR14MYRmFeNApj20q7aN/MK4vUPS203fDwIK1WYd91cNvbFtrjXu+/0Xy5cJr0UvgOrBgnwKO4q4WnYg5X66Igt+xrNv/TJzzaapPn6QmO1n/MUBz36dV2FbERGyDsP+OMUCPopetrvLIRJbMnbIffG99/t9aeB4Dqz6ih55N6IIlLGddqXzx/SEec9fWRE97TJxLIAscF6Z0Kenj5oFFt1y7axkf5jjxmJfffSrRxT7qOe0guqXJdfdJ+mGWdBl4TIGZVpW1DMfYKNdQbIOMSUUBlAfMp9brkosQXSPQ8tLDPGSGqpiXT04R+VEUjaMoSvQliY9KEiq+PdbNlz3TstLs2tjim3f87SErAmtYLqbp7pOYTZsTLKTDunl9WcVS6Nzoa7He4wf6vZ86FjD8qAmkL4FY4mJhyNjLDoJZl5TGdeEo7BXQRF7z0pI1LEtDN9TywsrTe21lHjIj/fvRDO+Mn7j43cI9lh73GJbdQ+8Te9xnI/v30qXuo/22lfW36Hdax8XRfZIOcWqNi6wsHmQ/wr2y3qPjb3Ba+11VxP8uRJx63GdVEZa5R/6aN6XvR/+UbSWViH1p4lYT/7CH9VjsO3fUbr6nJX8mfstGXzU8WcnAzKimlVG3nVWQE2GN8Vp6H8+4OOyffji4YaSZ2rra8L7qDTTP7awOe8inhb7wrcd3h3W1qOdOuMV84bvbzatzbijnTklJN/QoLdt+dnW1eSEs057DcRY1eosWTttPavgdm/dMj6NWSnaCsIzPvTZ3zr1d666Dcn3vqLGwLFHUVy8fBURr+r7nlefGa/Iew/BiWR+htf205/h4OPctpKoG4w6RuOpRsHuf44ACbk11CYx7lP3esm+eCjbuSfatj7wa3vue4uOxaUfcsxe9INj395S857CcY62+60H2vEXhm2o4XgOG40U8DpE4qpRmgQue2vGji+ijl/SFxjqg0qWfk1hGxQ1hGXqMHlvHCpYNo/8foo/eU5+9U7poP3kZIA3iQHkj6RiWTPbHU8mlfRoPWSyMch5OL/XZKO9J9qdnBu3n+JymWjMCm0hhL/iG0fImVk01op6yMup6n5J4WGg8DN4rXXxPMC0001f6m3cB88ZYak6yrQlL76cAvydm0Usi8/jc7wM7Hb09ySBG4UzwodQvfElkP0ecXWRC7pfAjuXXAQVFMv2ksj/ieddjOA7PH713OlSc134clvTsF8P0JToAXMhgHAAgOgAgOgAgOgAgOgAgOgAgOgAgOgCiAwCiAwCiAwCiAwCiAwCiAwCiAwCiAyA6ACA6ACA6ACA6ACA6ACA6ACA6ACA6ACA6AKIDAKIDAKIDAKIDAKIDAKIDAKIDAKIDIDoAIDoAIDoAIDoAIDoAIDoAIDoAIDoAogMAogMAogMAogMAogMAogMAogMAogMAogMgOgAgOgAgOgAgOgAgOgAgOgAgOgAgOgCiAwCiAwCiAwCiAwCiAwCiAwCiAwCiA3xi/g+zvi6nSU6SyQAAAABJRU5ErkJggg==;" parent="1" vertex="1">
          <mxGeometry x="780" y="1140.06" width="150" height="120" as="geometry" />
        </mxCell>
        <mxCell id="z7oBixYNPeEA9d2iZLEs-2" value="" style="shape=image;verticalLabelPosition=bottom;labelBackgroundColor=#ffffff;verticalAlign=top;aspect=fixed;imageAspect=0;image=data:image/png,iVBORw0KGgoAAAANSUhEUgAABv0AAAI5CAMAAAC1uAYGAAACMVBMVEUAAAA5PUI5PUI5PUI5PUI5PUI5PUI5PUI5PUI5PUI5PUI5PUI5PUI5PUJCRUtteoBcY2lRWmCSoafK19v2+vv///+ktbtOVFqVp63j7vD4/P3f8PSpwMU5PULN297W7fGw3OWO0NtzyNRTv85HaG85PULt9ffO6e6a1N5MgIjZ5um64edkw9FNiZJLeYDAz9NBUlg5PUJFTFL3+/xRm6Xv+PlDWWCImZ5QkpxTt8Q8REnn9PdSZGmnyMtGUVeAvL8gq62t1NbE5ep6srY8r7LE4OGCzNdTtLel2OE+sLKHxceDxMdfanAusLX1+vpKcHeywsdJtbxJu8dRpK4+SlBNvclAt8E0srkvsbdRrbl7iY8lrK84tLtEucNOvswpr7Q5tL1FYWhkio5Ns7Vmh4xpubxut7qiv8PZ6uvj7/Bour1zxc+UysxFusXP6OsmrbE8tsCDqq55oKRPs7Z4v8Fuu75fc3h3vcBSX2V4ubzs9fa42tzF4uRVtbehz9Hc7e2Is7fb7O11oaV8n6NyvcBohImCwcPP5eWDw8Y1sLVmv8dTuMZStcJQmqRPkZpLeH9LgIhBUVhHaG5Po647Q0lDWV9EYGbC09d3g4nW4uW7x8q9ys+CjJGwvsKtub7t9PaFk5iHusNaj5hpc3nd7vGwy9GnusCZrLJwgYfs8vTi6+/f8PPV7PC54OeZ1N6O0Npjw9D3+/2k2OGv3OXN6O3D5OpSiZJhf4ahr7Xm8vVnlp5M47hFAAAAMnRSTlMAMEBwgGAQIJDQ//DgsP///////////////////6D/////////wP//////////////UI6nKXoAAEN1SURBVHgB7N2FdiM3GEdxmW3ZWVaYFWZm0DIzhKHM7fsf7HgcR2PQuj24mnN/L3EN8/9G/H9AIplKBzLJrIg/AABymXxBWoUUAQQAxFsibctXVUyLuAIAIJcqyaYKWRFHAAAk22QE+Ys/AECmJL8mL2IPAED7btwM3JLXcgIAgDi37/adu/dU6F67vJISAADEtn0dnV3qWndPr6zoEwAAxLR9N/ur3RsYHBrWgREZGhUAAMSzfWNX6Ruf0FWT1A8AEOf2TV21b3pGW7My1CYAAPBfsiCjbvdH22fNyVBaAADgu+RobfvmVcVV+6wFGVoUAADEqn1L7csq1DOs66zIiqwAAMD/9lnV9q0O6QZr/O0HAIhh+9arD3pO60Ybkh8+AQCxa9/N6rZ9fFg32tySoZIAAMBXufr2TamK7SHdzJqsyAgAAPyU65M1dnZVRfegbmpExuqrHwCA9u3tm/sq9GBGNzUrryQFAAAxaN/Sw0fGPFaBnie6Rfz6BAAA3rbPWn9qAveVWn2mW8WvlBUAAPjfvjH1vFK/+tMu1oj09ndPAACytn2RBz1fmMDLYe2wuSZ5ry0AwFfZdFHWeDWlyh6bwGvtsLIlY/KnHwCA9tlr1m9MmeOL31t5rSAAAPC6fUvvVNX4exP4oJv4+CkSv6wAAMDn9rUvK3va5bMJfNGN5iTxAwDEoX32mrU97XJgjDnU9Y4WiB8AwFMN7TuutM+edgm//J3oOpNb0urzJ34AAGRKjSOHKnva5dQYc9awc7DyAgAAb9t327Yvetrl/MSYAx2xsSWt4qIAAMDb9s2rqrrTLmc1P31ujsiIQk4AAOBp+5ba1bWeYV3rIPLU58onGZEWAAD41T7LjhzU6pCud35xfe7lrYwoJgUAAJ62z44cVPe0jrJ//X3WgY8LMqItKwAA8EFyVNa5adunxh33rD9cXJZ3DjIqJQAA8LR9U0pFTru4nH/RR2syopAQAAB42b7b/UpFTrs42J0DC3cAgO/tW5pXZfa0i9vmd5KRHwDA9/bZa9b2tIvbyhYjPwCAt+2zOpdV42kX94v8GPkBAPySa5OukYM97eL2cYGRHwDAM7k+We/7H5TztEuDOcnIDwDgfft+/MkY12kXx4v8qoopAQCAf+3b+dkEHKddGkxuMfIDAPjevqVfTMiedmm5c7DyWQEAgHfta1/+1YTsaZfWA3dGfgAAT2TzssH6slK/mZDztEvdi/ys0Zz4lgEAkE0XXSMHE3KddrFWPjHyAwD43T57zfp3U/aHjmi9cyglBQAAnrXv1ZSq+tOU/aVbDNwZ+QEA/G7f7XllPTZlly12Doz8AABet2+pXUX9bcoOtZN9kR8jPwCAB1JF6XqTgz3tcmEC/7TeOTDyAwB4IFOS7mvW9rTLF1P22T1wZ+QHAPC5fce2ffa0y/mJCXz5TzuH0awA4AeA9tmRg2VPuxyYwIH7RX6M/HwFALTvdr+yak67fDaBk9Y7h1JCAPAJQPvmVVTtaZdTEzhrMnD3Y+QHAMBiSbZ60FP1PNFR4T9/B1/fORQzAsC3CUByVDaqa9/qM13nzATOddS/7N2HVyJZvsDxAgl6C07vhNqgh+nWK91jK6zYNCNsum9Dv97AsQ9gYFDUl5NHN+eX8+acd19Of+VTtG3gFlQVhXSVfD//wO7E79zi/n43V5mGIT8AQCQajcY6stfSsQuFaDQSwvbpQw4dq2tSs6uUOhs85yBmDQDAbZKMxmOz2awpHJnZ7EUIQ9a+O33tW1iSNtqHPQPvmxWG/ADgdopEz6uXEt6Z2UwsmghJ+x5aPR6/Ka9p+dvR5hwY8rs9ACBZiKXnhE9mNlZIBrp9+kXP+VU5UHvv+eGv3mDI73YBgEh8NmuKsUmlZyKBbd9GX/usu0tymJ3TI33OgSE/AAi3RDQ2jvBpzJdewGRG2A85aKtdHNS0AXeRSRgAgJBKxmfnxA1KZQrBap/49CNLX+3ibKXCkB8A3AqJeCYlJiAdTwSmfZ/57OesHg/WpAvlkugxlzRCCAAQ1c98YQ+gc/t+7/NKfU5f7eJos8KQX+gBQDKeFhOXKbzs9n3hi0r11G/+qXSmD7ibUSNkAAARH4e+9VKXivAoFUu+xPZ96cuq43PaahcHxQZDfuEGAIXZlNfeHefzuWKxKO3Vi8VcPn9caghX0gXjpiViwsbGs6+o3votLElXtkSvGSNMAACFjOmhevm8lryhmsWVvIsIpmYSN9s+c9CQg7qirXYZpr7OkF+IAUDUbfpKy/liU46suLJVEkOZseRk2yfe6gw5/Im6pK92GWxFhHbIDwAQcfXBs1LKbzblONRXlhtiiExygu17+77V8Wfq0lecVrvoD/mFbsgPAJCcmROO3IVv++ScdKeZW65MrH96+/Rt1l9Vl762KN3JVUI65AcAKKSFg8rxSl260D46VRdau9vuz4Drg/uXmED7XnloXfuKunQmPcw5hG+nNQAgOWs6lG8515TunLXUc60D6Vo5dzzw97/x9S9uCueXHL6uOvalG8VKKIf8AADxrBhKP/MNsau6nUid9wCm4sZYxFPC9qKn1evPVUdVOitviV7phAEACL5kzBRDNLY2pRe7qsep9Ka50hB2stGba98jq89fqEvSUb0RwiE/AEA0LYYorTSlN0eqz4H0qr5cGdPPf3r7dG/dt/qtrh26PLjmRa+5iAEACC69CLrjXFnaOznXlna2Vb8j6V3Z9gBozoz/j/SO3r6FJSl3XF17aa6HbsgPAJCImaOkb2dPdRzuSN2+6leVI8mVhC4bGXP7Hlp9rla7tFvqwp6Xh/yEWTAAAAGXzIySPnlwqq4d1mS/U9VvT46oWBK6mDGCqH37XnnD6je/2vMBt+X8kF+IhvwAANHB7SsNTp9s76puLS1/SnMkpa/++f5lLZoVzkMOHV2rXdothx/+NiuhGPIDAOhB0DXyTTlY+1D1OpS9TpRGC4jf/sV8/6HqFz073reo3d7Zl/bKy+KWDPkBAO2rLBflUIeq305fHlW/U+lPseH9+Of8h2rTvvl7slu7pddd/z8V9iE/AKB967myHG5fOd5paekDD36tVDxe/tT/UPUhB82DNdlrR13Ydp5zCO2QHwDQvspyXTqpKRsOgdyV/pW3RL90YvQ/1DvvsTQLT6SmOmDmob5+K4b8AID2NVbK0tmestGWPdot//HTFdeF1+JEBrXvoaWZfzow9qeOD/mJ2YQRPgBA+46L0o22srPd34yW//uebj42mhF34xz6RU/N6pq0dabO1fSH/BjyA4DQz/dVlpvSnR1lR/arVdWVvZocH+17oxn13L4Nu/YtLMlBqtrpVZtzyCaNwAIAJDIDBhzKnjZ4ak6lrrZfrVb3zrbleOVFn7jH9v3lX1n2q10GaZ8q1WrrD/kx5AcAYd5p1shJD6rKxq6cGP09hbiH9om//m1lu9pF0/cZ92jgQ34iFTUAACHbZV3alNJ3/U7k5Ohnr7jr9v3N3yql7Fa7OObvVL95ypAfAIT1skupKD3aV7qqnKwVPX/6513d3/2+umC32sU5f2cDfnecMYIKAJDMjNg+zc7LPvrZfX2cdfFkxRf+Xl3SV7s4a1c7v/zlRXiG/AAAMdNX+xwmHvblhOlv6mW09mlDDuo5bbWLK7UT2SyFZ8gPABBN+WifZt/DlZfJ/fiXGdq+jWeW9XWtfgtPvO9aC8eQHwAgmfbbPn0AYPLx0y335a+vfdpLDp9TV76ir3bxktsQDPkBAGZMoWlsSh9q3flrHciXJd8XI1MM3Wb9Z+rKH+mrXZxtVkIz5AcAiMz5mO9zfty2ddSWL09OuPD2fevSV9WVf9BXu3jfsJ2KGMEEAEjMCk0lX5a+be/sVqt7RwdSE5T86dus/0hd+S19tYuDYoMhPwAI9W2X5bIMOQ/5e+Wh1UVd+cdV37u140YwAQASaaEp1WXHFORPf8nhE+rSP3lfrB2SIT8AQMG0v+wyLfnbeKfV56vqis835WcNAEBoDn6VvOyYjvx1hhx6fWWE1TTNkmDIDwBCfPA7bsrbact+yEF3PfF35GPOIZswAABhecWvUZS31rLoc+e+ZWfhn9WlqvcBd4b8ACCEVz3z8jYr6UMOms5ql5a65G3OIQRDfgCAmOhXaspbrbwurr3yhmVrda3rXfoD719UGfIDgHAtd6msyNuuXhGXNt5r6V6sdmm7f5Sivh6aIT8AQNwUfY7L8vbb7Npmrela7bKrOk69D7iLuaQBAAjJnENlU06DTq3ebd+++VV5bbulOmrOcw4hGfIDAERSU3Pw05S0IYcrd5dklyM3nz5zFdHHjBrBBACYmZ6Dn2bxfZat9y3KHu2WutBynnMIw5AfACCRnt6D3+KCZWv+nux3oDoOPAy4ixkDABBMkdTUHvyWHlj2HqxJXVVd2HN4yC8MQ34AgPiUzPjp1j5s2Vt4InXXF1+2pZ16Q/TLJIyQAABWm+XltHifNXC1i72Dwbs+8yI0Q34AgOSc6NWoy2nxxLL14TWp6Rn6a7VtBtzDM+QHAIia+vvtU2N18GqXgQ7VuTP9Ib/wDvkBAIMOlZycIgv2q12Gap/q+17KJRGeIT8AQEb0Wq/LaWKz2mVNOqm1lFI72pxDSHZaAwASc/pXz2myZL/axTl/Pb/8lZdFeIb8AAARU/vqOV0WrR6PF6U7tVOljgY/5CfmIgYAIKAKpnbXc8os6qtd3GlXVWtbf8iPIT8ACLyZaVttplvUV7u4ddbaGzDnYBYMAEBQZfQJ9ymu38Ki9Kh9tC3ligjRkB8AIJHV93pOc/2W5AiaJaGJGWEBAFz2XK/L6a6fHEGuEuYhPwDgSYdSWU4n68pj6Vn5WIR5yA8AmHRYltPKurIgvSpWGPLzIpIwANiIXjFw8+J98cvJqbUwYv3KW4IhP9eS8YwpogaAHtFYek50mUvHosbk8JhfpSin14dHq199nSE/9+VLiXPd9QOQmEkLW9mZpIGbEddG3KfYmyPVLy8Y8nMjUZidEx3d9QNQSIsh0gUDN2BW9Fgvy2m2Zl2al+4114UmmzRgX76++gGIp4SDVNwYN2Smer+L7n2eJx5WKgz5OYnGsuKcXj8A0ZRwIVUwxgoZ+8ueB/vVc/s1OXXu6dPunuccUlHjGiJa+a7rByCRFrYm+0WJ+G1dte9UXam25ZRZsi4tSlc2Kwz5DRGZSZtigKgBoGAK18y4MS7I2E06tPfUC63alM48rEpH9g/5mTMGLiTjPeWjfjogIxxwk3yS8TtU3Q7bcro8tTruSmfFBkN+DmMNDvUD2DDpyVzC8A+JjLbWWovfuSM5ZR67XXWWF7rZhMHlTr181A8YJX66VMTwDXO98avLjqrq05LTefhb8jLgzpCfNtbgv34A8dOZvvOHjG38zpTmZDoPf/fkUCtcydLHGuaEB1EDIH7epRIGbiB+7ZbSHE3nvpe7cphvrAtNjIE+6gd4/vrGb39BiJ88U9RPyrvWhTU5THmdIb8XYw3CG+oHzIqRZQyMPX7yMDT1++a3vv2d736rKW/C0rx17qkcql5hyE8f6KN+gCtR4UPBwLjj11bhqN83v/s9canx/R/I8XvTzczDpuiWNKZQLCVGQP2AREr4YCYMjDd+8kTZOJBB850fii4/at7QQ0drcrjjqf+PsawYBfUDYsKXWWMkiGnxG1q/tgyW5vdErx/m5Ng90G596pr+rrxQv2kFJE3hT9IYAeJa/IbWryqD5Qc/FJqbyd9j6eDY1+/Q1A/gCMLFl0DEz75+OzJQmj8UYlL5e9PDspcs9aN+gDsJU/iVMLxCdEj85LbSHMpg+Z6w9QM5dk/nF+RwRernHfUD4sK3GcMjREwtft1OVb+aDJTvCnvfk+O39GCJ+lG/sQPSwrc5ww/iJ+qyz1HAv3t+84digJycPL58Uj/vgIQYg6ThBRJzDsVonwY6fjInBvmenLwS9fOM+gEFMQZxww/ip6u11AutHRkwPxYDNeWkFZl48Fs/gCVnk7/1yZT7irRTO1TPVbdl0IjBcnLS1qkf9fMOyIoxSBmj4j84luUAO1V17nS3JgPnB2Kw78gJW+Hf5dRvBIAYCwOuxQfFT9euyUD6lhjsR3KymhWmb6ifd0BSjEXUgEsR0W29LH2hfiW+QlC/EQDRydYPSXOc8aN+K/wCPfn6AVz59HfXgOuelboMpW8F5ne/OrePqd9IgNhE64e0NuXuA3c+yw2W7gW/fgD1Q8xjKE52W0qd7rdlwPwoIPN+x6JX2gg46gdQP74zb0kH7T11qVVj14udLdYuUD8gbPVju+exdFA7Vc+1ttnz6aLBphE01A+gfkjMub7uqe363JPB8h1hryEnpy76zRpBQ/0A6oe0t+uee6pbOxzv+31rgvGrsG2d+o0MmHk59eNPdVE6OFE9TmSw/OCHTuMOk49fxpgs6gcw7R43PGHHS1462dXqF/z8fX+i8Qv80Y/6Aex6QSI19MaLrhXw+skfNAJw8uPoR/1GBIixSBoYLu1xwdm2Cnr95De/L7o1vvVy42cmqB/1A9xLiTEwDQw343XB2Ynq0ZJB1Pz+D8WVH+fkROOnmzFGQ/0AziQjyxoYKuJ5Jq6meuzKgPpB7jvnvvVNOUHFCn8PUj+/gJlJX/nkR79l6Ybq0KfdkRM2zCT184L6AREuvdy8jMcf/bQ7n2cSz20JOwVj0qgfwA9/poFhCqO8alSz++6J8rHoYMsL9fMJmBW+ZQwMkTBFlxXp0o5+8kO9IWxl49TPG+oHJIVvEQNDZF1N+ulODtW51u62vIIVMVCqYPhA/aYQkJ3cjU/uFTXK8kL7rNop296BHGb75KQmYfvVU5dJGBNE/QDWvcQNDJY0tfWe7aOWeq7qNm/YrIjh5iaYP+oHcPjLGhgiqz1oe3KqOny8XMvBj78VqZ9vQIRxhwl991zvuc3CLJ8HuQqDp4GqH8C1z1kDbr971vX4natKB6iXWDh7k/UDeHTcu1TCwGDZ/meNTpSuJjFMeUvYe+Wtd769wfAN9RsZEDHFiMyIAQ/fPdstpduVGKycrwhbdx5a5x59ioceqN/IgAL3PSfz3XNf2TiUGGilIuw9sy49emVqN55RP/+A+A3ED+n+757bypZ0wLlP917ruWeTu/dC/QDyR/ycFbT7nkce6oemXfu0+FkP/Q09UL8pBxRM4ZHpIX68a1SX506pn2vFZTHQxk+sLtSP+vkBRFJceBmrmDbnvq3sSfQprzTEYBvvsagf9RsbIJEWHmQTBoaJ6Ps9T5StluyGcu5YDPNKb/zuUz/q5xMwYwq3ZgwPGMLa7Hq0SLMnb6PlxlZ9HOnTfOqR1cP3737UD0AyK1zJJg0MF7d51+hI2TqTt1BenGtsbUovivl14eRVq887qR/18w+IZoWjVNTwgisvlabsOFO22vL2aYrnSvmidKFczJeEs43XrH6fEl3Shl/UD6B/PKM9ulj/qN/g3/12b/87tOvL+WJTDlLczB83hCt37lv97rPnekz1A5CcTYkBUrMRwyNezG/IK23VMQ1vPGwKXaO0nM+vFK9t5vP5UqkiXNt4ZuneEux6GVv9AERmsqbol42Nkj62vBTlc4dT8atfx7oYu5/et3SPNnjkYbz1A5CMxmLpbEc6FosmjZHwXn5JXtuZnhXX5ZIYr1d+Zmm0o1/KCAbqB4B/HTXlC4dT9L5DviLG510/t2y9R/DCEfULIoBphy3ZZbs1NfHTd1T7b5/uDptnqV9QAOiZdijLbrVT9ULrQIbI4uLT1dUHC73urq6u3ltcXJT2csfCv3f8whrkmeiVMIKA+gHg6JeXvdr7LXXp9Kgtw2Bt8d7qwvssJ/MLCx++CKHD7hbPfqn/3qd/93zZ037UDwASpjbt0KO9c1St7p/VZPA9efrhhXnLq4sMvrm4Jq9tbq2Peuz71evWYI9e4ckt6hdIAIPuORlSS+fhs/x5X1cFy5v5kuf0/fo31lBvi16mEQTUDwBHv/WQlu/BY8s/rYL1leV14c67/uUXr1sO3hB9Zo0goH4AOPoVZdisja18mscLD1bvLf7rv+Ud9rv8+6u/+I3l7P6G6JM0AoD6AeDoV5Lh8uTe+6wJeLzwH//5X//9P3fe0Z+9O6++82f/a7n0KdEna/hA/aYTAI5+Tz782Jq41x9e+T/Lo3fz73Hq5xMAjn6LD+atUHlDcPQLVf0AcPTj1Off/Q3+NU79RgeAo9/SvcdW6Dz6FEc/6jcyABz93rxrhdFb/Fuc+gUIAJuj38lRtVo92pYBtPTheSuUngmOftQvOADEtaPfyam6dMSxb2weCl3SeEmoHwCk+o9+R+ravgyStfD82qd5z4bQzP4/e3e9JbmNPXBclgXWlfz7LVVojgLtVZg82aEsU5iZ4f/Agw3T++1UB8pbm+4uuJZ0dfR5gT5T9vhryZLNZlDrVynOR3GHD4c6scR5/dh3Fir94/kp+skJ2nLO0w/9vvrbxLd1ynOuFS9gVTknM+diZeSc6wLrxw9JMdFyzpucjoTogoNjhCAEbxg1Defj5HI5OXlMWBJCyLkvng1vhQh3WDhkw3Z/ulK8FSHAcUzwYmxYLGHt4w6f/23qoyETLzyyWJQVP5AFnMt9MMeeyJLTrt9h7PoQDBzLHl4FZcqsNLILsDHjBVf5j2Dbwx/fwsZMEC3+P4zLLriT/3Qn6uj6KFp2Wx3HPsr5ydc/7vD936Y+zWRf+6kFaeegrCUvvN38Uut6wanVT/FR+GBgezb0oo0dlqbtLWzPeKlZfjgXYpm83dmAdu1spDewjdDJhlUIpye42c9Pvzb0++Bv/622b6b4Wc1IUmMXYGtBNDTqp7nwwcK+bOgiNVDL3sLunB9VNtmTog+AxXRjoqv2sr61gCinJ7huZLPR6590fx25frV9070OEy3Nu7gAu7Jeqqzr16xPzmA0UHI2I90a2F9odfI59C5YwNdLtfNNnnewhHS6E4J/euIfRfyd7s9fGIbhb2tq+/b2DJQx79l0DuE8zrJ+ahQB5mI6qbO8tkyYVqUa72F3b00/7vLLhgTxremL/UtaWPn9MAzvrMXvy9o+/PhRnPfUwqGdx3nVr5HeAYLIEzgyJMgEJj2K3kEETuhkV23rG0ZD6tMzwS8pYeLj5Ub3v02k3vD3wqlFofEDyUgZAyDyYy7146K3EIn1HK8cnZ0lEyre+lQLEW380ysZAJmRrEAJTk8wyANAs77T/Yu1+r0/JHPwyKLY+HlGiBJuhtvx5PXjIkBkBqnZPczF69kf8YlgIb4wblJlb2EGrsz+JTg9bacZmgYmzg9L32cy9HvyiUW58TOKkaG9hTnYBPVLUD78h708JBgmoWha/DlmxAZJE+FvI9F8dwmmPBF5Pdd2h/U3vXz5xZDIg/cVHD/bEGof5Ijvt44dEhHZt2+p1wwf/pAPt0FK2Ah/G42A3c3aPgezCxz/w35PD4e++D6D+D30x0XB8YOREaE8QFH1U9I7SGdM374U859aBMhD4PEeVK0LTfH1kw6i6PUca16W3vn057ecJYrfwQOLouPXMiKEhZLq17QG0lJ7VqSHSKyIMlBJoNfpJjg6VXT9uIFovEZ9xefXw0+++PDTw/Z9O6TxxH1lx88zGkYHUE79xs5Bao7tQwmIyPEE9UsSdiVs+h+Vfv10iHwYFeJ7Xs4PE+98+22ySc8zi7Lj1zMSdA9QTP1GbyEDPambkV4VWT8A07CJ1kJEXaH1UwJicyPaL/jekIUnH1iU4hxQXu7ZWiilfk2C9KFPeaseorNjmfWbrj7iDuIyusT6jS7NLDbSZ23fHHLw0n01fjlQPUAx9RMFrFQdLaTgVYH1mzRIJ7ynoF+/9JcL2+Js9vt4SO/g1KIUz/0/5fhxC7V+M6B3M+KaMusHdkw3wdEWVr/RQjJBI2z2e3aYqlv88D9mS+jtngLmUOtnKN6MyFJPKKEDJOIT1y/9wC/9UNrCylMFD/z+eHHpzCKee08D3V3uKkCt3yw6ku3Av1RXvpz6NQ4myEzPjzBxocSB35lLl69cHX5w7Y8RF3vSi1+Es7nWT9K8GTGq1g9bUIXUr4X0TLPfxOfXxQ38Ll6+em1Yih+/u4BA/OLPstX6NURvRlxT64fNFFE/5SEHdiQ78Ym/1POPl68Oay7Fe+T3CdodSgISZlPrx7YnLWTANrV+2HwB9dMGMiEoTnzi7/G7funGteF/3Iz3yO81/PmjGr8i6hdozist2bHWD5snX7/GQjZ8+onP1C93uX7ryvBLXljEcv/pGr9aP6wPPHjIhqz1wyaI109ayIhRFCc+n1hguXRlOMLF1I/8oMav1m8k/YENWeuHbSRdPwl5MYrcxOeTWMtd/njz2nCUG1G3uCOMy2v8Sqyf3jJ+BrIia/2Q2YZw/VrAkmBxVpfFxOdD9yHNeL4wHOPMIorHT9f4HanWz9GOH8BY64fMKLL186TvJtx04pP2rOeZ9WHfmhuJZz1B1vhBrV9PPH5gm1o/ZB3V+nnSg+kGJi5QnvW8eGVYSj30e/g1xPVyCTRQ6zcvQTx+ALap9UM20qyfpz2X3MLK2SGJFzCqdOvqcJIbSV7vMj0gBGhb6zczTj1+AE7V+uGyimL9OsiV1dt+1f0xsjvcbx0MJ/tjgh3u5L5oZKDWb2aKbc5AnkytHzJPsH6S+KNUlfzjRv+I1L7hhZTLXcAzEnqo9csoHB5y5Wv9kHFy9ZPUVxKNib/q/uSpKO1bujX7wO8eOFLLSGih1i+jbnjIl6z1w+Wo1W+EvAV2ki7tV91f2Hs28uILw4auzz3w+/XJz2Dripdav7aMe2vb1PrhamnVr7HkJ5MdrJyPH799H/mduTps6kq6gZ9RjATlav0y+sADh6yZWj9cVlGqn7IwQXJ+QsNE/PUu++5tvzlMJJ34vP/X2Ht5EvBQ6ze/YlbfdrV+uASl+hn6VwcJK2epbXG/dW3YwvUISz0J7PJLPI9f6xfKubzwWj9UVtGpny/gF/Ww8vQQ1yNIk57pJz7fOg1HMpoRoWytX0Yjpg6y51StHypBpn4SaAibPvZ7l9S3/G5fG7Zye74P+f0/8vmcSAe1fhGMBQ3Eu1o/VFYRqV9jC7ih0LDyfNz4/THiwG/pTILVLmA5I4NDrV8MuqRX7jS1fqhaGvVTpoQLxAgrX6ePH/YTv4mDuV5s9ms4Wq8YHabWLwbLNhKAhFDrh8rRqF8HE2Sn57tErzk72Ct+128MW7sZf9LTSkZICzHU+oWyjoas9UM1UqgfB0q6Te73/0Blm9+ZF4btXYo96QlBs3V1yUutnyjrVeOu1g9VT6B+ypVxiYAJKvG7eG3YwfWoKz2PmMGvS15q/TjqvGd6otYPlc6/fh3Q4tSJI9izROJ3a7e/GfG9ZkumYaRoiKPWTxW28dKqWj9Mbfb144VsJGlh5emS4zfcjPnAD0AwYnytXxyuuFloUeuHyWRfP1fIgNrDynl68Uv2mrOHz8EuT/zq0K/Wz6eYWXKhFz/pg8Mf/NX64dGZ108APeGkRS8XSMUv5W6/5+6C49iWkeNr/SJpI9+KON9yto633gEaUeuHqc27ftqWspQWVt6jsM/v4rCjA8z2nYbj9JqRo2EuNhwydOqXPtYBsJhWs6M0wgEOm/AImPADC3HZsER+C2UmN8omdEK0nHMphAghzgMHDitfE4jfmWvDjq7g7W4/vn12ZEt16Be6ljdsquFS9KaU+rnww//YCXHHiZfEiIsKfMOOxwOgkHGPgAleiJGvH3g+ihgRNF5wzX6iuOwC4FI5148DLudlw9Zp2RnA1SZY9IIav8XVYVeXI7zZZalTjCAFuELbsCPxtneU6xd6Iblix2m46I64EJtoQz+v2VKM/rlIR8B2Yjzpp+8czMd0o2K/YPQW8Iw51y8AItc17Ci6NfM+ne5i73U/tUgw77l0MUr7TMNIEoDISMVOomVvCdYviFGzjSkugt3+tdBjvPYtcRf1GIj55wS5hzk4Pyp2NBkAi8+4fhzweM6Op72d8el0iLzo5ZFFoqHfEKN9tmVEWYBIs20TvHO06ufZDvTadJyMsp7c8C0iLWBvPn39prQHZK5r4oyjl1zG9UNsvN7o5LSzDf5s3EUv/1js5cywsxfmbx94xYiSUc/oCe4p1U+wXenVs6EmxsEQbCuNg32pxPXDH9FO2E1v6VoLKFS29eOwBZRNYcrPNPhTcd/08tJiP7eGnd2YvX2BM7IC7AZh4le1rvD6TZ93WrD4X9pA+KqW6mFPbaL6RbhoOrl5jLQBDGO29QuwJYS1gdzNsjSZR1308uhiT5eHnd2euX1WMrp0gn1KE9IVXr+Jhs9/c21Ugjc3mvT1WyeR2seW4kZX5Fo/DiiCSvCjAsgjl3yej7DLPd3Y7+Ks7QOhGGEdYHAN25W09OuHJSSIH0YrmvT1SzWHjL95KORavwAYukTPZtyRP9u7w7yeXMYv2XO/Pfa2v3Vi+3rNSHOAwCiES36tXwN76lWah79dgvpFuGYqtrUe9uYyrZ+Ouzt0orHoM8oBVrLd6Ddx+9qu407897pMH/jRNkZYpF3rF2nkYFSiP+0yrB/rUlyplYkQ3TT18wAoT6VT5S+wCRNvyecjCwzXb0Zd9PLwudPIjwVy5NPGr9ZvQuF9yCz2oKXJsH7MpDixG9gbz7J+CiN+DWPp8qfZSrwln08skFw8iLbo5d5zcBIrGH3/Ye9clts2tr3faDQawGqgUh44lUshe8dQJ1ESM6Ily6Yy2wNXBqnyV2VP5Jne6nuGc9n3c326k73jqsgtUmhwNYgl8P97AYkEiB/Wtd188oP9AsxMj5YEQUsl0X4lMWnmWR6Ri7Rfnib5OKP+qu0qX4lt9wz4yx8P0/Ty7UdEcc0uSHzWFvYTUYLNZyw61hLtxxdROUslvRJpv4bYFPM+qdz29tVTwe2e/MGHlG2e4WQ3Ep/OKthPwptIO2voWUq0n3XEo5jlOe0l2k/P0O2ZOvZcb71GF9I7XjiTD6/GtrqMcR8Sn1rBfmlo+W8h88WehUT7KTNLUr8mHo1E+3WUWOoztNO2W7+16346fseTHV9/f03Z6hI0eiLxaRTslwY7a96T+3rfCrQfP/ir59kdKNB+lri4UvGwjrjYbd+a7I6XkL8yml745T5B7hMw6l4r2C8ROT9emPFKOJH2Y9/g88zQZvLsVxCXtYB39Ty40yceePiSLzvuaQ+xmdfzHx7Jd5+0UXcN+6Wi5lao5g3+MpH2K2e5v7nO1fLs5/lZRz5tspd1f4iBhyefTWG/v/w5fdPLV588Ozr38VvCOwX7ibgWzeyb1nKB9uPX4PJZfle5OPuV8+Q9A0pHTMq7t8VJz4MRd01/0O2folKe70i++wQeblTCfjISn8XsdeBWpv3yWdoUmc414uyXExMj4yDu/O6w+0rOkX7pS39/4y/zlOk+AZmETsF+IhKfzfyp8Eam/Upi4Wd5Srfi7OfnXEOUsPHF37Xfqfgxd0bu8++DS12e7ek+zDuUsJ+Mjk8joA2qlGc/fhjmZllX7qXZzxKTQkq2yt75PBdyDnZIP/T+/P7B9o/oaN2nMhGhH+zH/1mXAm6JtUz7VcRilvfKWpb9+NJpVCpcEg3r6e33OV9y/ODvz+xOF6JWq0WSEw8N+8lYulNL6AI2Mu23JhbZLDUFafbrBIR+qfYXhPbbiJ304wd/f3y8iy/CsG/cXhesOasV7CfjnTaXMAHqZdrPzvKGly/Lfo5YOCvnHJQ79usZMBaMsYM/xqz7Vx8/YroP03457CckCV1K2P7TyLSfque4yTWxyGTZLyMelaDNxFmYyZ2k6Pf88bT8lXHAwxfvKApnrFoulnhY2E9GErqRcVMItV83Sz8RsdCy7JcL6I5LtW07D760y/kOtGXwYx8FI+xrcquWjOa3ZcN+EmZPKhmTF1qm/cws9quXZL+WWNSSMlYd3378YQc+r6Jm3fcN+6gu1MIxxCKH/YSU/dYyisGFTPtp4tDNkqArZNnPEYtc0m7ihm8//rADn//oI/j3oMnzEVGaEQfMupewn5A1Z0JysEam/Sxx8EpYxDmD/UriYUXNaZUffmk3Mw47MHgev2otnO3jt7qg6aVRsJ+Mk6a8kHy4l2k/NYv91guyXzFz4jOg4Z81UU256Oz3jw/Bk4hpv2ClC1pdbiGljwv2k/Sf2cXZz8/xR/WC7FcRi1zWsWzmw1tiNefJDgz+Fj3td/7Dz4RyX9qmlzXsp2R8BWspL0VLtF89y7tlJcp+nlhkso7k9nz78fOefP4tcsnnty8olk6rOHDAQwn7CWl6sVLWbVuZ9jPEYRb7eVH2IxaNsEktx7cfP+/J5y/9IM/j5xuInCnVEWGk3NOwn5X0dPEprgXs5xdjv5JYdMLOgSb7wcU5lZ33ZBT+XgWNLkh5Jmv5bGE/IUnoDvabMsUP+2lZZT924U9/cHEuZOc9Gete/hMpz6my+Qb2E7LpxZu0NCmec7BftRj7GVllP3bhLw/tJ3nOnbHp+oyiaEypjg8pTS+wn6poERjY7zfMYuzXEQtp07Fk+Pbjz7nz+df+fq4pBl+oo0TMGx3s52kRVDLtp4iDPXr7eeLgxT26/HT2+12oqBnn3U9pENeV6jjRYt7oYL+aFoFfov202o9iMfZrZp8LDvFC7ffl40PCTXzWhVX7APs1sF9CSC6w3xy/r1qS/YhFLu9gUob95jzXKOQVJ/HpukwdMbmUfAbsZ2lKYD8n334hguxXsjssk2Nk2u+7xwflT/19rFDtm+wO6mC/dGhaCOLsx7/BYD9NLEp5Pxg9jf2ehHqadeThLZo8J7OfOQb7wX6wH+y3JhZKvv3EjvoxRh4uaDtO1Gwfxv1gP7M8+8F+5VLsJ2EnVAixKCax3zePJdnvhLbRFgrw7adhP9gP9ht6QsN+XqD9DN9+/JYXPn8f2fNS51YB2A/2mwa7PPvBfpWAjYghtSz7BS0vAsbdVyj2pW2Eg/0w7D6AXp79YD8JJZIQL85+Tw7tvvP/91/9TjZXKPbdy/SdXLAf7Af7wX4Cx907hv3m3/Ly/tS+y9g9L40CSe2nYD8GsB/sB/sx6Jj2Mwz7zb/l5f2pfZex4w65ArAf7McH9oP9+F8fFyPNfj8ezn0/vKNfuYxd8WkVkGo/2M+RVGA/2K9Ztv1WfQJ+OljY98kzogH7hVW/TgWAUoz9YD8SC+wH+xHsJ2Ta4fz9Ye1D9lsN9GgADfvBfrAf7Af7PZBph09fPCOKsd/13aWUAPaD/WA/2A/2c0qH9pN+pu35Dz8TUZz9bhD6wX6wH+wH+8F+W0hsvz8cMOwbtt/LodAPwH6wH+wH+8F+l3IH3YOwL+QmatC9VAD2g/3SA/vBfrDf1wcN+4ai1pvtjy0A+8F+sB/sB/uphPZ7csCwb9h+p1uP2ACwH+wH+8F+sJ+7/aHeSgz9grAv3n5vdn39APaD/WA/2A8TD4p+Q2joF4R9W7gYLPpRpQDsB/sdhBL2g/0ehP3qZPb7erKVLuPttzkL8p5WgQnslx2D/WA/nG4L+9ULtN/tW+JaXOj3xUcUw3Ufchb35YNs4lc62A/2g/2w5Xot3n4XskK/848fURx9yEnsIwvAfrAf7Pcg7YcTjlqu/Uwi+z1Jf25fLGG7zuYy+vcCiEUO+8F+sN/DtB9Ot0226PPrA3a6BFxur/lNX/SD/Qzsl46aDgXsB/vBfpVSRRr7PUl6Zu0ziif8v9+8pQ9xmQIT2a+D/XC6bYiH/RZnP36NbQoarpF1sDBsT/5wyJRnwNP+Fk+vxty3oJntpob9YD/YD/ZjQAntdznH4Q6MlOeWeuXmhkIKBSZ75Daw3xCwH+wH+zk1AZZYFCrRspfvDtvl2fjtLZ8vrw4qP9iPYL90VLQMDOy3QPtpYiFwWFmrRMtenqco9714RlG0a2W2Nb1cX9JY+YFWysgD7GdgP9hvqfbLVHrWxEJ/eE+86ffkpwTlvncUhavK4DX59Xv3nRDkd/BHbnEE9oP9YD/Yr2SqRt4Pxqo04+4/sst9H1EUdXH3Rn7Z/8LFCc0gP9ivgv2SoWkZaNhvgfZTxMLIy1sFX9tpvx9fct33iKLotHqPo9/Y9NenbwnymyV74I/BfrAf7Af7NcShEzcg2wRf22qOSffzyOm+xtit2ynPTs9oK26twOSPXNgvGSUtgwz2W6L9PHGoVXrYL+4pRh6+P4D7fKFuUcTYMlPDAEs8NOwn49fsjRQU7LdE+1XSmj6zBEWbjD3y8B2jzZOi6AKTdTSItyoGQDwM7Cdj80Cl5AL7LcB+RlrbS8F+cqUYeXie3n1hyjOgSfYsAF5K4Q/28zIuBOwH+6WvkeQqNV0KHTfMps9vJnWfLwYKJLySH2iJh4X9RIy7OzUhsB/sVxKLVtiSRsrCm+Ipv+clqftcV+7Tp9haBQ41ZVbAfjIuRammA/aD/RSxcNKaxO68ca74PS9M9wXke1xpV6h4wJp4dLCfjP7bQk0I7Af7eVnbXookJZs8aPqcfM/L+QuKprNjL0Nn1QhARkLe6WC/UtxEFewH+6Vq+jSyyn7dnTfOK/6eF/aMQ0BtR0051lqNAxCTAvZLhZNy3gbsB/ulDrZqST8WovzuxNf15MfaDrrv5GpQf7SLplDg0AfrtLCfjEuRqemA/WC/jHiUotZ06LsSveAP+3F3mm02N0Nns8N9og7WKWE/EZeigv1gv304VLQl6rG15a5YTTrs9+3PNMhleEzfFv35hO4DBTExsJ+IS+HUhMB+sJ8nFo2kxGe9xaI3/UhejWj0fEc7CTZtX5/dm/w0WxdgzwPaXsjBfjIuRaGmA/aD/QzxyES0qgeJkoLR9vKH+GYXuoew8rg5uU9/tg4qT4VVewMcMSlgPxGXolbTAfvBfpp4dIKWdKy3fajriTo+v3hEUZz17zm57463xtF7fLWG+ua9kaiB/RLhBe1ShP1gvwDi4ayc81DKbR/q5SQdn199RJG87rfrr1IBmV7nWmcKsMmJSwH7pdeCsKEH2A/2a8WsxDeUbPyiDuwTz+/jphwomus+0J/8mgYKf9TAfmnQJLbyB/vBfrmUzRjWEaXqj+6CzGM8n8d0eg4kPV2948+fBI2fQGrhj+8E2E9abgn2g/2SvycXQkI/Wm9X+ibxjs/zTwbPL2qCjs/t+qsVkFr4I2dhPxGXolVTAfvBfqqR8XZmHTGxQb5ln3n3b7iBX1Mole1sutmcHWKYFxTEpoP9kpCT2Nwn7Af7VcTEyAj92h1XaJV03uHjQfcp1e0eN7y+OkBHGyiJj4b9RFyK6SoEsB/sp4mJK0WEfvmOtdGXCRe9fPrzsPuUdfd0nL48REcbqIlNY2G/FDTEpLZqGmA/2E85EpCa74hLuSugTTfv8MOzIfcFabe3/R1eH+DJA3Li08F+IrauUg37wX6jOKh41oqLTvwTKfab+Ptmr1P8gqWczb1Z183bMGwGMlOfVMB+CVhP/B7CAPaD/fT8DXK2IS75zqffa27Zbzjr6YxVsYtmLg7wuwY18XEZ7JcAJ1Z/sB/sp/jqaWfPe1K58yd3lmTN2bfPaCeV3d7ifdJv40bqEWZIfQY4C/vx6YhPa9UUwH6wX0Vs8rkb1MPaQLvXqs97Sn60E1/uijrf9Nu4Du98IDT1SbWF/dis57oSsB/sJ78/PHPEprjn3f9pH8mXO+X3gnbRBJ+8G+42XU0/9QD8bPqD/QIaSkCTqfTAfrCf8rPWSKwjPvaeFTY3jCWfA/0uLnx2lBFz9puryYM/UNBc+oP9AipKQq7SA/vBfgUx4LYv2pr4dPfV2q+YTS/nP9MO2lIFRG0YXYUFy/QAl0h/JeyXIgsts/gH+8F+qkn/lsyXH+9StnvMPHw+Tn5urULKqITr5gptn3IfSAFOw35MPKXBFWpidFcdm/1gP0MJcNls8qvVHfI9Zh4+GyW/yt7b3/a2381JmLQFkiKOAAP78SgoFT5T01FWDZE/NvvBfnaut+SsponmkjMKRTTMsPwGPmwZGXBeT1/PAB2lwpewHwtHyehKNQlZVdM/cMdmP9hPdfMUptcujXbtwC/uzf4tn+/G1CB87HrRy8m3fQJNyXAG9uNgiCT7z667hpeKgf2E2U9+YdpWU6am2iD1uZ/9XsQUIMYfrPR0+ol34CkdTQH7zbfDPqBdq3Ro4xlWgP0WYD/VHb4wrRtKxFblFqNTn9/FDrnXga/GnyyxucI5f9KDP4b/YL+AjtLSVGWSmM94CsmPzn6wX0mp8FrFULaUim74E13vZ79PaRudVVvJR/zBE/mpTwR/AY0pYb/9KCk5tckUA513NW2jOjr7wX4p3878Wg2RdZSOcniM4/Ve437nj8as/rduxN97OX3qE2hKTZ2XsN98wV+A6/JsDxNr09UMFy3PfrBfSQlp7n1I2KKmhHQRKybe7jXu9y621zP8gV9t+gE2NH3qE3hKT1MVwwa0ujDewX7pHy8hzptCqyi0NsbXNMTx2Q/2U13qxIRW28jyltJSxmzXfbOH/b6IXzcYBBqn/SCX0x/fCfRkj9zKrHVwK2Ra69yYzvuGAmA/VdGUON8as9a6VHevydoY431NsZTHZz/YzzpKje+M1va3V6+88o5SY6KmjF6Pt9/5szELbWwz0PIScHqAbWegIxnAftbRA0Efn/1gP2VIFPwz2Nog9TnSfh+PkZ+qRgaaFwOlRCA64Qb7LfbxYo7QfrCfbegBkkcuWHo51n5fRcsvzLGt+hhwxPsxPXNhP9XQw6A7QvvBfmpND48mdn/byVj7vYiWX/Dm8HbTh6DwNxdiXulgP00Pg/oY7Qf7Kb+kh0T4eTbj7Hc+Rn6qDbe8DPP6EJuuwZpkAPuplh4GR2k/2K909MBo1X3kdIun4+z38cARFuwDJZ7ihHeBz1zYD40v2THaD/ZTZiktL1t6Hs76IX53236PRtwt2cCfGW57MQqIeObCfojD10dpP9hP1fSgyMd8nDdjNp19SgEmrrZ09aaPZIO2F4HPXNgPcbg5TvvBfpkjcTBumzzse4m23ycjSuE+cs49IPwkQMAzF/ZDHN4eo/1gv9AXwnFlzLhX/Pqxb27ZLzzTNoubqL7pIwmaPp0SAfo+YT/0fTZHYD/Yj/2Nys/P12P6Xl7dsl/8I6Kg3zjb7Gk/UtMBMpIB7KcqegAcq/1gP+toQVOpOY3Z9/Kb/L6N7q5ZU3TRL+AGTZ+HIicZwH7Kk3z0su0H+y1gKNXGuJxoxCTej7tOtTVxhdKn/RhWAu2H0h/sh9JfsWT7wX4LGHtw2fjH3k30AX/BtJ+Nkt+q399+hZoQYGtKDOy33MY6c4T2g/1CYyzg/aygEUe8f7PDfl3UL/mkZ9jPKD5A/iIH2E8VJB1/vPaD/WxN4qniEy3xgvp+x5LPIkZ+Z5sF2A+dL7AfqrDN8doP9lOZW87bWRcMPcRte/mIbmPTyw/2kxpywH44ddEer/1gP5XJ73iJRRPFl+Z+2pr5bIblF9nuKd9+0B/sB/3pI7Yf7KcK+es9Y2nGBH+fbbOfTy8/2E/sWX+wH/SXH6n9YD/5+nPZ/lWGVdyys48HNx8Vofx49vMKyHjmwn64FNVR2w/2U2Yh8lOWRky8f//Zlmn3apv8KJQfz36tkgH0B/vhUvjjth/spzqx8mN9kKdRwd+nA3dnx5VfuOnMKCBj0RbsB/25I7cf7Ke6ZchP6VHB3/Nf9ffsvvMdbM2Qn3D7ofUF9oP+yiO3H+ynOvnyi6KJCf6CifdP7vktrN0HOo2WX8BbkfaD/mA/BOL62O0H+6lqEfJT+Zjgr/86SH2GRTlbEe035xdAsN8caEf3A/vhTcQcvf1gP1UsQX7KujFtn9//eHfevdjR60l0s7f8rmG/echquhfYD28iHewH+wnTX21TpHCvNjF9n9/SNv0VDQUm3ZsLmmfLNbCeRAD7qbImkXjYD/aTtfTMW7Uf5Thlvfrs7rIzn2udd8GXcfWy359VeC+CY5t7h/2U7UgksB/sJ+rtrEt1asXVZkh//2j8/Bca4uy6Z3AD+81G0LgE+81I4YQ2fcJ+sJ+yLUnAFSrZib0n/QDff/6L/v6b7mfVs3jLuF5cQOlpJ7Af6rBr2A/2E3MiSZMpDp5izvkLpt5/pns4e9OzuGaM14JJ72rYD4loA/vBfr+SNTQzrU3avXPZD/Llj4/Pd+vv6rRn8pSw5hMxB+wn9FK0sB/sJyP76QrFJfD3RT/MT8936u/1pudywqxp8gHG0TZgP1yKGvaD/US0Cfgy+ejG2z6Gn/7n/9Ndrk6uez5XwZEqYAbKlmA/XIptwH6wn4Dwz6UxQxD8RWYuv/zfKwq8ebrpE/CG0PIpAd3AfrgUW8hgP9jvFutGTODHD/6uYh22eXp2q9Xl9Zs+Da/pA6wCM5E72E8IhSD/FbAf7Hcba+jQNGuViiZ+6iFg83K1OlmtTi8CY6abd6gVmA1rHOyHSxFgYD/Yb9bkvDN2upW6F/2MvAzPkpYD/Af74VI0OewH+4VoTwejK1VKmrDxZUZOds/WAvjPdYU9GvsF2LyhufEFNp3BftvQtQj38YO/VT8b14SynzCslKKTa/NMBSzdfgFFTTPSmFIp2A/22472AtzHD/7oTT8XK0LZTx66E2W+GeyHS9FUmQqB/WC/A/rPJXJfwDpcVtbPxCYYo8hhHmTdfFWU6ldgP6XKGS6F3/ruAfvBfgFl56YrOFvFJ+ZuOZUR+lGmgBSyqplDfMEtAPv9gu4cHYymW1u1HdgP9gux02Tn27WaDB1ubXkjIvRr1JECATpv1oH4YL9brDt3EPMFYTfsB/sd/jFR51ZNSSci97mS/vwBmakn916Va6uSUHgGhZLNetp3EW/WduYrUKk9qTyDbG/ncjjMV3q47ESTTn2lmpjSCej7vA6Xp5UKyMOuq2kM6FtTaAXiKfPWTRJ3F5niAECW4inR5gdxgKH5+z5vhhMfUoABjXeUCPdP7Vm1DyDL24ZS4TujS5UCAMqCEwL6SqsDYZtwafVm5jUvRIUCkinXpq1pf2rfmVxrxQVYbZgKrL0J8818ACjXlaexNK3R6pCsKeBkhpaXh9fzAjKdGz8iEPS+NWatM5UYoAvTejcy7PbGrCfVHgBZ9Huy852Z43b0FPBy3rwnGfWQAFrr3BhT+YDW/BP9C1ZNDsh0YUzrfb0zzPO+MqY46OUAoNSFMdvvy8b7zpgZ80AlBVxd/x9795OUvrMFcLRBQbnRJTAKDhxgYRVFGTbhACYM3f8m3uz9ACm/IoSkk3M28an+d7u8oXkcKcbpMsBwz0NqCZTw/1Ir3EeDzx42a0u/JgAwae7or9pa+gHQiGEcm5c3smho0gYAPEZDE89mYekHQEPGT9HIq79ZfDNKANDU3ueqmfi9JABo7N5nzJqIXwzSzQDA5OY3X2YNfy4DAIMiji3LGlWL+G4yTjcEAKO45cXPzSLsezYPgOe43cXP+TpOuEtNA8Czh1jUk79qFqc8pxYAwNHfqqzBchunPI0TANzcKG7w7qH6jJOKQWoAAEzrz998Hae9p0YAwCS++axj09OEs1YDcPMl5nX+5ueZe/MAGBT15m8ZJ01TcwDgPerN32v74gcAo5rzN2tf/ADgsd78VYv2XXgBgGm9+dusxa93AORvHvuGCQDaYFJv/r5iz2MCgDYY15u/amvxB0D7jIta87eMPU8JANr36v36Q88+zXnJBYD8zWrZ+yweEgC0wnvUmb+lb20BaKNRrfn7cvElGwDyt6rKq9itXXzJBoD8La6UvzfzXgBopWmN+au2Fn/5AJC/9eb6A8/uE9AHIH8Hrx7GCWg3kL/l1Rd/dwloH5C/6089c/LXPwDyN3ftMy8A8vdZXm4d/5kkoPVA/mZXfvM3TEAPgPztYs80Ae0H8reqrjrtc5wAoE2mUcvYlw+PHjoAQP66f+8FAPnblBeZxZ6HBOQA5G+9ud7W52PqIgDkz9YnAPL31fmtTwDkz6hrAORvF3ueEwC0z+PV87eO/xQJAFpodO38rWLPIAFAD/L31ruDPwDk76N3k64BkL9lZPDiDwCGxTXzF/sSALTUoLjiyOvo3bUXAORvkfUH7wDI38VPHu5TZgCQv1mX6wcAD5M44fPC+r0kAGix8SROmKsfAP3L31L9AOhd/tY79QOgd/lbVBfUL1KOAJC/mfoB0L/8vZbn2HahfgDI3+bPk86KlCcA5G9blb9WRSduvQAgf1/lry0zrB8APBSXHP295lg/ABgUF3z2N4t9zylbAMjf4vwPjrKacg0Aw/jm7YxLLznWDwBGf3328BEHhikbAHD/x73PzzjwkPIBANO/7X1u40DKCQBM4tiu/KdNZPzgAQDGT3FkdfbG52PKHADePXycu/H5nvICAKOz531+ROaXXgBgeu7Fl1UcmCQAyH7g9XpX/mQXjv0A6N7R3+yMGZ95vnUHgLs4sjlj6VekHAHAcxxanbH0m6YcAcC4iEPLH/+1PTBIWQKA918v/lZx6CllCgCef7n4m8eRu9QRANj7XJUnVes4Mk65AoC7Xy3+vqJDd14A4OUXi7+PiA5NOQOAQRza/Gbf8yUBQIfmfc5O3vfs9JwXAFx82ZVH3qJrSz8AuI8Dn98P/Tp+6geAf97XVblvs47OX/gEwEe383JPtYhjxThlDwCeYt/iOH7dH/MCgMXf5uhnB3+6dx+Axd/sIH4+d+gDAIu/dfVD/O5TFwFg8Tc/iJ99zz4AsPhbHcTPvmcvABj4sjuIn/uefQBg4MtrWa3ihOfUHQDwEPu21SJOeBqnzgLAVw/bOKEYpC4BgGH80yh1CwBM4h/uU8cAwCh+Nk1dBoBHD5659wQA0/jBZJy6BwCGfY0fAIZ9eujXOwDmvXjo10cA5r2IHwCe/E06HD8AuHPhpY8AbH2KHwC2Pl86Hj8AuDPe7ATgf+3dBQGFABQDwO+CxCAA/cPhFdDdtXg6uLavx9Z5APjHRRoBwNOZXxwA7pY98wBQ2XeJA8Bv6XrmjPwAoC1GVdLIDwCmrmfUyA8Aal1PAOI8m+9tQwDQA2UxKzbPk3zkAAAAAElFTkSuQmCC;" parent="1" vertex="1">
          <mxGeometry x="940" y="1180.06" width="149" height="47.39" as="geometry" />
        </mxCell>
        <mxCell id="z7oBixYNPeEA9d2iZLEs-3" value="" style="shape=image;verticalLabelPosition=bottom;labelBackgroundColor=#ffffff;verticalAlign=top;aspect=fixed;imageAspect=0;image=data:image/png,iVBORw0KGgoAAAANSUhEUgAAAyAAAAMgCAMAAADsrvZaAAAAGXRFWHRTb2Z0d2FyZQBBZG9iZSBJbWFnZVJlYWR5ccllPAAAAyhpVFh0WE1MOmNvbS5hZG9iZS54bXAAAAAAADw/eHBhY2tldCBiZWdpbj0i77u/IiBpZD0iVzVNME1wQ2VoaUh6cmVTek5UY3prYzlkIj8+IDx4OnhtcG1ldGEgeG1sbnM6eD0iYWRvYmU6bnM6bWV0YS8iIHg6eG1wdGs9IkFkb2JlIFhNUCBDb3JlIDUuNi1jMTQwIDc5LjE2MDQ1MSwgMjAxNy8wNS8wNi0wMTowODoyMSAgICAgICAgIj4gPHJkZjpSREYgeG1sbnM6cmRmPSJodHRwOi8vd3d3LnczLm9yZy8xOTk5LzAyLzIyLXJkZi1zeW50YXgtbnMjIj4gPHJkZjpEZXNjcmlwdGlvbiByZGY6YWJvdXQ9IiIgeG1sbnM6eG1wPSJodHRwOi8vbnMuYWRvYmUuY29tL3hhcC8xLjAvIiB4bWxuczp4bXBNTT0iaHR0cDovL25zLmFkb2JlLmNvbS94YXAvMS4wL21tLyIgeG1sbnM6c3RSZWY9Imh0dHA6Ly9ucy5hZG9iZS5jb20veGFwLzEuMC9zVHlwZS9SZXNvdXJjZVJlZiMiIHhtcDpDcmVhdG9yVG9vbD0iQWRvYmUgUGhvdG9zaG9wIENDIDIwMTggKE1hY2ludG9zaCkiIHhtcE1NOkluc3RhbmNlSUQ9InhtcC5paWQ6MjYxOEJGNzlCNTA5MTFFOUIyOTRFQzU2QzE5MzQ5RjUiIHhtcE1NOkRvY3VtZW50SUQ9InhtcC5kaWQ6MjYxOEJGN0FCNTA5MTFFOUIyOTRFQzU2QzE5MzQ5RjUiPiA8eG1wTU06RGVyaXZlZEZyb20gc3RSZWY6aW5zdGFuY2VJRD0ieG1wLmlpZDoyNjE4QkY3N0I1MDkxMUU5QjI5NEVDNTZDMTkzNDlGNSIgc3RSZWY6ZG9jdW1lbnRJRD0ieG1wLmRpZDoyNjE4QkY3OEI1MDkxMUU5QjI5NEVDNTZDMTkzNDlGNSIvPiA8L3JkZjpEZXNjcmlwdGlvbj4gPC9yZGY6UkRGPiA8L3g6eG1wbWV0YT4gPD94cGFja2V0IGVuZD0iciI/Pso8HpUAAAMAUExURert8uVrFGyVoxk0cf7+/h45dDRMgnSbqNJDU80yQ8MLIM7U4XKCqODk7Ky2zKGsxeTs7kNZi+qQFfnaxcvM2yxFffXJqiI8dvTJjdTZ5JWhvd7i6umMDHKZp/j6+sYVKTtShZGeu+7w9P3z6punwVZqlxs2clptmVVairS90PfTo/T3+Pzt2sHS2pe0vsLJ2ZyowlaEnPH09xEtbMonOoqrtvO/emGMouuKRr7G101ikWF0naO8yc/R3vCzX3qKrel/MxQwbtve6IaUtIeKrPji5RgzcPPz921/pbrC1Njc58rQ3tDX4u23veRmDFFmkwkmZ6W+x+h6K+eep4KRsvDy9unr8Y2auPv8/SlCexYxb32Mr2VqleHi6k9UhfX1+O6bYfzz9P779l6KoF9kkKCjvXmfq/n6+9Pf5D5ViLG6zrfL0uTn7tpjcLHHzhEsa+bp72BkkWh6ora/0vzt4+mIBBQvbfX2+Y6tu4Wns11wm/jYueZtGMfN3OSOl0ddjbnN03GBp8TK2nugrPL29/G4aRUxbvf4+vr7/Keyyenp79zh6vDw9MUPJKzEy4iVtcIFGmWPpSY/eZ65xGZ4oLjA036CpumANcnY3dRRYEBXiYqYtqOuxu/09evu8/T099zg6W+Apl1hj/39/aSnwO3v9FBWhuZxHeqOETFJgICPsPXMk+iGAOmkrFuIn4SSs4Ckr2CLoa64ze6oR36Nr1mGnYeotL7Q12l7o8XM2++sUOnv8qCrxPb3+cXW26qtxBcyb9vl6WSQnv78/GV1nu2eNFlejN/o7Gt9pEtgkHuLrt/i6y9HfskgM+ZvGipDe1pfjSpEew4qalhdjPDy9eDj7P3+/m+YpStEfMDH2Hufsf33+O2iO952gt/g6XeIq+uXJPfd4BQwbb/G1xw3c3aGqoWTs1drmBgycEpfj3mIrGOOpFJXh+Ll7cPF1dfj5vrq7OeEAP/8+vfSoPnl6E9/mNPU4O+jbdzm6bzD1d3i6scYLN3h6qiqwyA6df///+QVWJwAACNuSURBVHja7N0NeBTnYeBx7NEssSVENzXdSg5kpUgjq01rwtqXIELxQLKARCs5Z32t3dAmPisiqpEhGdmqqWzCSSi5FN8aWlciYFuliWguJJQ6dgPpJiEu2IrhBLLh0gt39sgYau6uzaV3XN2dW32Adt/Zj9nV7uyi/f+Tx0/iXWlWM/Pb+Xp3dp5BRDGbxywgAggRQIgAQgQQIoAQAYQIIEQAIQIIEQGECCBEACECCBFAiABCBBAigBABhAggRAQQIoAQAYQIIEQAIQIIEUCIAEIEECICCBFAiABCBBAigBABhAggRAAhAggRQIgIIEQAIQIIEUCIAEIEECKAEAGECCBEBBAigBABhAggRAAhAggRQIgAQgQQIoAQEUCIAEIEECKAEAGECCBEACECCBFAiAggRAAhAggRQIgAQgQQIoAQAYQIIEQAISKAEAGECCBEACECCBFAiABCBBAigBABhFlABBAigBABhAggRAAhAggRQIgAQgQQIgIIEUCIAEIEECKAEAGECCBEACECCBFAiAggRAAhAggRQIgAQgQQIoAQAYQIIEQEECKAEAGECCBEACECCBFAiABCBBAigBARQIgAQgQQIoAQAYQIIEQAIQIIEUCICCBEACECCBFAiABCBBAigBABhAggRAAhIoAQAYQIIEQAIQIIEUCIAEIEECKAEBFAiABCBBAigBABhAggRAAhAggRQIgAQkQAIQIIEUCIAEIEECKAEAGECCBEACECCLOACCBEACECCBFAiABC5toenf+lL33poReWMSsAQuaW3P3G/PnzF3/7a8wKgBBAAEIAAQgBBCAEEIAQQAggACGAAIQAAhACCEAIIAQQgBBAAEIAAQgBBCAEEIAQQAggACGAAIQAModrmQayg1kBkLnaZz50rc/Ef+Lr9z52t9ALD82f7AXxgceebon/u3ZcbwmLACC53M9//PdT/fgvEwD5zR++ITblY77p39/8ws64v6v8v1xr8cMsAoDkcr/6xQ9M9c1/kwjIzfOttvju+EC+99ffmu4XT7MIAJLTQD7w/qk+YCeQz350uo98nEUAEIAABCBzHsijP7xZbPGUB9O/v/mxNoAAJL+AGN//44eF/vjbE0IWP2R64OHvDgEEIHkGxNxQqtdBAAKQfADSluqVdIAAJB+ALAEIQAACEIAABCAAIYAAhAACEAIIAQQgBBCAEEAAAhCAAAQgAAEIQAACEIAAhAACEAIIQAggBBCAEEAAQgCZM0Aeu3niLnFfAghAABKllu9//oknnvj8d/sAAhCApDGAAAQgAAHIHOgvswFkxwyQe1kEAMlyP/rDX4vdb31jGsg3/ibOs37tM0lP9cBvxO7h71wD8q27Yz/ru59j2QHEhj7zV//4xZhd24CENiGxn/TN93846ak+85E4ffR634r9pF88xrIDiB1A/mZGQWp9478lD2TDd77z0dn1rUdZdgABCEAAAhCAAAQgAAEIQAACEIAABCB5BOSvrn1RZ5S+MaMg9pO++P4vJA/ks5/9TszCGMR+EkAAYg+QX/2t2P399QuFP47zrH//oeSB/MM//MeYzfiI9ySAAMSWCv4p9mMZG4vV8uux+7uZoSZPx37Wjj4WHUCyXVYGK5YzWBEgAIkdo3kBAhCAAAQgAAEIQAACEIAABCAEEIAQQABC2QfyhbA+BBCAACSyj33qel//PwABCEAiu+d3brrW7/weQAACkMj+9KbXrgUQgAAEIAABCEAAQgABCAEEIAQQAghACCAAIYAABCAAAQhAAAIQgAAEIAABCEByD0jLytvqblt5W+gfZ1lCAAGI2P4Hz5ye6MzplSwhgGS0giee/vjHP/70vV+7oYA8f8eZie44AxCAZLhHf3hzqMW/xBYEIGTu9d+8ef78+YsfAghAKBUg35z+ioN/tBPIR/56ul88DRCA5DKQD/98+pvQf/5h+4D0zXwX+g8AApBcBpJ6swCSKIAABCAAAQhAAAIQgAAEIAABCEAAAhCAAAQgACGAAIQAQgABCAEEIAABCEAAAhCAAAQg+QDkl//0nrh9/bqP1x7/etznfupjSX5F27HrQP6ZJQiQzDYN5HvJA3n8pri9FlaCp34qHpCh/WvFvnwdyHbTY/uHWKYASbVf+p+mHn1jEsj3TQ/8oCUBkK8//lp6evyeeEC+/MCDpk5fy/TI8w/8LosZIKl278TmwlqLv/01u4DclADI1B0awnr5OpCXxYfuePBnLGaApA5ksdg1D2Jv2Ack0RbkzGnrnXkEIADJsy0IQACS10DYggAkR4HM7GLNz+IuFlsQgORIT0/eJW6mmYMQ8cjkofmPsQUBSL71uYc/H953n3nmmbunTvM+8UxEn/u/P/g7207zJtiCPPLuHWLXPZgeefc0QACSzlK/UPja43GL3EjE66Z7vhBnOn0rbxP7Hw9Oneh9+fTfmh/sYpkCJH3NYqjJazdZBhKfUvwr6VFqY6gJQHIeyId+JX6fmiFy08cSPPefkps0gxUBkvtAEsVoXoAABCAAAQhAAAIQgACEAAIQAggBBCAAAQhAAAIQgAAEIAABCEAAAhCA5BmQn/7+tX5qH5DXN3ZNt6MNIADJZSB/cMv73jf531v+zD4gnU5nz+R/nO5SgAAkl4G876lbp3rqLvuAjGmB6RouAAQgOQ3k1g9O9dVb7AOyQAlO5zkCEIBkF8gPF7/xxs3zAQIQigbk3m+/8MILj939PYAAhKL0619bNtHQjQRk7R2fnu42FiBAslpOAmn71z+froMlBBCAEEAAAhCAAAQgAAEIQAACEIAAhAACEAIIQAggBBCAEEAAQgABCEAAAhCAACRvgdwz8/06AAEIQAACEIAk0R+GfYPULwMEIABJWwABCEAAAhCAAAQgAAEIQAACEIAQQABCAAEI3dBA5l0HsvkQiwAgWe5Hv/1vY3fLV68BuSvOs/7T7yc91SsLF+6NVZl8DUjgYswn7T26nGUHEBv66Z899dWYfXCm2E+69Sf/PempbpW8SsyC15NjP8lTxbIDiC1Abv3g7PpqCkD2yLocszAgsQt0s+wAcmMAuSsVIGEMUsoLEIDM5S0IQADCFgQgAAEIWxCAAIQtCEDyFUh2TvNKszzNq3GaFyC2APmDn9wVs3+57uNfYj/pJ7d8MumpLh8eGY7VyIwPvyPms06dYNkBxIYK/tcnY/a/w4aafDLO036U9FSPdcSss+76JkQrmhfzaVf2sewAku2yMharY2aw4kEWAUDmLJCC6ZL9OUbzAiQPgPR94k+m+kQnQAACELGNz797x0R/8cjPAAIQgJiAPHLm9ER3PPC7AAEIQAACEIAABCAEEIAQQABCACGAAIQAAhACCEAAAhCAAAQgAAEIQAACEIAABCAAIYAAhAACEAIIAQQgBBCAAAQgcxaIcR1IE0AAkudA9v/rvzP1/MuTQM480mx66M/3AQQg+QTky89/2tSUj9OnX37X9NC7qwECkHwC0vTAmdOWe/nMgz8DCEAAEiuAAAQgAAFIHgB56tapnrrLPiBjnsB0DZdZBADJ5f7ov17rj+wDcmDVkenGq1kEAJkLffnBT78rdv2Y3PTIp8+sZpYBJJ/6D7s+Yer5aR/P/4n5sU5mGUDyqgIxY//1K+k/Mz3K/AJI3nfsOpArzAyAkFjqgxUJIAAhgAAEIAAhgACEAAIQAghACCAAIYAQQABCAAEIAQQgBBCAEEAIIAAhgACEAAIQAghACCAEkFwD8uAdZyZ6FyAAoShAHnhksgePAwQgZKqga7JjG48NMTMAQgQQIoAQAYQIIEQEECKAEAGECCBEACECCBFAiABCBBAigBARQIgAQgQQIoAQAYQIIEQAIQIIEUCICCBEACECCBFAiABCBBAigBABhAggRAAhIoAQAYQIIEQAIQIIEUAoYV1Fld1hXTzELAEIzVTuGNXCGq1hlgCEZjrb7g2GJVUySwBCAAEIAQQgBBCAEEAAQgAhgACEAAIQAghACCAAIYAABCAAIYAAZI60ZN6+8OZtBAhAaKb1AwPOsNylAAEIzVSsviOFNXoEIAChMCC6HL7SBu4DCEAIIJQRIEON5WfDKu8CCEAAMlNHpbMnrPZdAAEIQGZ6tVX1hjW6BSAAAchMYyN6+CJW1wEEIAABCEAAAhCAAAQgACGAAIQAAhACCEAIIAAhgAAEIAABCEAAAhCAAAQgAAEIQAACEIAAhAACEAIIQAggACGAAAQgAAEIQAACEIAABCAAAQhAAAIQgER0GCAAAUjsCl0AAQhAAEIAAQgBBCAEEMv1LVsb3rIWgGSlof2Ry6ELIHYCmVe4de/g2ye2vLhlfLC0ePvqmUfu11vDU+rSB6RgQd2mo82vhCa6bk1z//oN83IWSFPh+eLipbsGS/uL16+8MpS55dC2+nxx2eCFiVmya3BvdcnMLKl1+MOXQ3AFQOwC0rT8YH17q3ezpgVC+TSPx+U4WXS4c+rRcY8e3uaX0gPkQMnSF086/OpmTZ2YqqZtVha5q5rrDuQakL5X+8dPus8FPZs9WuhVblZa3T1bjpYsS/9y6KpdurtnWPZ4tN7pWeINzZKywqlJlZyTwpeDz+qftva9sfDea0y4Ot8e8QNjx6I+q2PveH3lkwvH5jyQtq1Fw95Ar1cJX4t1xefzjry4qS/0hAta+OsJattmC2RNaO72j7crXp9PCr9EIiteNSC1r3orl4CUNFe6AqEXOjN7ZF0K+Lx6z66X0rsgVpfVyIHeQMRymJwlek/zxAa9ZEQJ/9O8Fy3+3qOjSnijFYl+4DlP+PMl/XyU5+w75BrVHcP6qH65Y04DmVcxIGsREwxToirOvWeNy2kGIhUtXzEsaUr0iQYVzXVyb3luAOlaX3VKC8hRX6ekueoPN6ZrOey8c/ci1Rt9SqFJLTpRaKwWgFRZ/NULN0cuv4RAigIRa4HrzihvG85R596Os+UdhysbHHVzF8iyCrcmxVgqk29gktZTfVlNL5CgS4p8mzTB9GrOvUM5AOTwSa9PifM6A75Lxa+nZUHUdced0sS7xtvLhyOe0TuePSCvOhpWtU39z5ayd85tmKtArjp7vcEEeYOn5DQDkeVgwqkG6guzDaQwtNImeqUBb3ft7JdDxypXb6Ip6b7/HDkbfa9kDUhL1egqY0HpwS1HJg5Blo6e7JqTQBovyN7Eq6ppdZ49ECvJAX9zWzaBtDX7e63Mnd7W0tme01rv1qzMIGFH2Lcqa0A2be7pM0obXMOto4vOG68fb+ifi0BqT3r0YArZA2Rir6K7I3tAnq3UFGuvU1JP7JvVgihTvKksh+wBaelu2GQYFaGj/Y33jVYVGHVyzRwEstwRCAZzGUjoTx8oyRaQO92q9Y2dVr9gFucBTvhSep/KIpCxc46mKSBGp7+nwCi45Jp7QNb7U/RhI5Cgb3hbdoAkOXc0d8oHIhuPa6nOnKwBqWuYuEY5AaSgdHTiVMHluQdkj18K5j6QoHRuZTaAJD13fD2dqS2HHbtT9ZFFIC81PDkBxOuod0pVE3/4oTkHpLA1ZR9B1UYgwYB7tf1A1if/7qFd3JjS1Y91asqzJptbkN0TQALueod2Yknofx6ca0A63b6Ufeinam0EEtTq99sNJJV3D1krKkhhQQxqqc+Z7AEpUWr6pnaxDlQ2VIf+xQpbgRwYjgCiFaXdR9uK3jgndWVF0eNcqUgvkNDkdEWR40zPM15gL5Ampy/Oq5VjvFZZ6k9+QewJ6qnPmOwBaXRKhdMH6XtH3w6t/o7h2QMpL7tvjbUu+CNmiuK0+HNrDh61OBC9TIt1LWpibFRr+4AjpCSgKhkGor+jTgwAc7S3+2VdUmOM6JC9xfYCWafFeB3q1HC1ieFRUUYfSMNjSW/IHd4Y4xcmJqW7QzNG172xBqBk8TrIfQ2vhIA0hH5RnVJlGKUNq2YP5D1/w2ZriVtdxeLPbW5wWruyVtIabdWXFY+/Znxv3ZWmxsYDnYXFBysXeaKNQkkTEFnyuJxbyrbWdh5obGzq2L73uZ5g9DFhkrvTTiD970RbH2Wft3132dXazs7Owj1lx91eM2d1S5JTer0oKkXZJ7lXlIZmTHloxrx3vnT3gKTquQWkY0Q/byzdHPpFy9znjn3lnKt29kDGHKkfFls9oK2xBuR4tOUiedubCyO3QCVHa2TzWIu0APH2+mtK6yJH+m18addw1Itz2is2AukclqKts64tW5vCn1VdJXtN7zDrk5vU1WgD0uQ3/S/uiXxHOLB8/FyUgVpZBGL0e4brGusmXmZtSUlPQ8LfmBtAfDU7LZ2j0c3LRe91LIwynqZl+QrTW2UagCiqc01JtPEZnYMjUc7q6K4N9gEZj/LuIem7zQPDtjrFS4m++p3JTGlnTZRrLV79RLQ/tmPNiGnzmk0goQMQV8WSKeaO0YMtxhzagrTVm49BdWU8xm5MwZ6agJ5mIIqzOuZo9mePRxkfqG4psAvIBr95b8bn3hT1ZMoWEbO0NZlJbYqyAfG1V8d49oL7/b4cAmIUOxoc60pLxwdGTy1M/BJupC3IefOBheSKcwamr6xVTi+QiQ9Mxa5ZN+1NKP5Cu4A8qZr3ebqvRH/usReFrY2vMomP6/eZNyBy74o4h1t19XIOATGulNXomqY7m283bhQglrYgBVWmDYiyKP5H+IrUNAOJf9OGCsX0Jq4dtAlIieloSVaK+mI9e219QNgXTOIa6p2S+UhnXdwFWHJOySEgIeIdY2Md1u4ccQNtQcynsPTg1fg/skqzFUhIiLiW6sMH7AEybtqAqONJ7JBpR6xPaot5Urv74v5E7UhuAUmiG2gL0qyazu8fTfAjF2wGYhw0HSi/s9cWIJ2mhaSuOBbvB16JfKW6w/JHhcdMZ8ve6UnwLrAtkiNAMrEF6btkWgW2DOUakCX14u652l1gB5B+8d3DOxB/jS+JXGdl64fpe8VJ6a2JPtq9J/KyOkAysQXZIJ7jVYYTfpbBdiBGnUs4DJEcV+wAsls4PtOj3tAj/FRtfeR6rl6wOKWCLeKhoGcw4fl5gGR+C1ImXt7yJVwuWQBiXBbfX9+stgFI5znBZW/C9X0wIAx7X2vxZQ6LbwHueQDJgS1ItypuQDpzEUiJXziV0Hu/DUCKhbMD+qlXE56Lilxp9VaLn4E8L45C9JUa+Q3k9uGAbjHxKNrqz3lOJgQyr13YgmgW7pO7yn4gxm5hvLFUYwMQ4Q55QTXxSakm4bywZ5O1STULI76Ukc48B7JgwL/IWqdckT6s/twiV1VCIIXCeUlZTnwJbihyd9keIJuE7a2+qDPjQI7VRB4XKBY2B8fckZs61eKNubeI1xgtfKhhbgNpW/D/brfUle2LIs/mrRgbs/aTX+lMeKpn02bxsOVY4ld+0Ws/kH0jwt6Of1vGgSyIvDFb0Fe5rDxBZzudkT/jtXZH6f2XIo9d5MDWpIGoZXMKiPU6hE8UPpfG3y1+EkS1MFC2rSoLQAq2CGuQsjDjQF4Sduvkc+3uBLW7/cKuUrul89HvCRYVx6tJA9GW5imQTH7ktkhY7fTiHAViVAjbOs+ajAPp10zXUKWEiWOdF1laF+qEs+2qlVFcAMk4kILKyF172VVrB5Ar/uSBXBVO82hPZhzIId/szyTq1sZVXvUkfwgCkMwDaRH2mHVHlx1A1qYARLjXf1A9nnEgWwKzByK7rlpaZzXh45UVAMkFIG3C5SmlZokdQM6mAKTcLQmfRtqYaSCV3jQAkQ9bmVSFAETfA5BcANIlAAnsLshVIC09ke/n3kvLMg2kPQ2Xcq1tC4yDPoFVHUByAcizpwQgVu4zkB0ghnBRwnsy40Dc9gFZJQBxXQFILgCpbRU+v3AoeSDJ3WQkbUCknsYMA1mSTSDzAJKTQAZTAOLclxUg7fMyDES8TmgrkCaA5CKQN1PZgjjnZQNI5o9BrmQTCFuQnAByRRjPHThx4wDJ+DFIo0MAomhq0mmjpVamdVkE0gmQXDzNm8pBuk1AzGexMn0MIh6kKwNFTz6XdCcsfYf1rl7OYuUkEIcuDCJvy1Ug4nWQQGWfzUB8Gfz21KXidRArlxevAiTTQIaET6Trjv25CmS1cESg7jYyDaTeK7x7HMsYEHHYl6Ujl2odIBkGUtDtFfZ938tVIMuDwieRxjMOZLcwc0YOZAzInQKQ3lVWVvTIAVwAycBo3svCaF65OleBLI1cG2StOeNA7hOOnJW6jAERb6il1lsY0nB0M0AyDaRCGEWq3p+rQNaJgzGKMw5E3O/xlmUMyBWH+HmQBQDJBSBXhXu1+2q6chPIWeF0gt5amHEg24QPd6hVQ5kCskS4g7jsXQ+QXABSuyjynUsObshNINXCyqoMb8w4kA7xbX3kvUwBMZ4UD0KKAJILQLouCR8K0hJ/UE/4TLotQAp2C7cn8nYbGQfSVvmmMHOOZgzIUvENYKTJNiAJf+7J/AViur2/4ki4YBojP2VlC5B/Fm+tqJVmHohxUJg5Uk9LpoCYbiPvLbUNSKJDqwJh+HZeASkWR6z2Jjw7VO62H8g6Vbw3WJ0NQMS7ucnK4UwBWTKgiHdW3JcpIMLPJfx4b0vka9OD5/MISOcp0715x3IPyHbhIkgw4DxrA5D9wk2ugl5neaaEHBHvEKG9nSkgez3J3YOvKXJIq9JamEdAho6LX5GuHc85II2XTHd3v2zYAMT8vQuetzMF5Lx4F3Hd9VKSQCosTkq4K7w+kkD9W8I35g2vziMgxmHxRjWyVJprQIreDKa6hzU7INuCwqGPHtyaISBLnOKbgOS+khQQj9Xvjy+M/GYqWU5we9RDqrAZ3Z9PQBpNn5vTE8ww24E0m75F0VvfYguQnZXi9lUars2QkFLTN0xplWeTAmL10GCesMi15xKclIkcctN70cgnIKabK4ZWAn9xDgHZuStg+p7AQL9hCxBjk+nOP73t1ncw6pL4ikLxBpqTi/piRzJAlludVKVwVdIfF321MA8CB/MLyJVF5m+R1XcdyxUgnVG+Bzrg7LIJSF+N6dY/XsdVaz9bWxQcTGZau0ybkGCv+3wmgAwKF7/UeOexuk4Ks0A6n19AQrPLtAbqWn1dnJ2ydAOJc3Gy2K1F+fbwfsMmIOZDtJAQeTDxTvjQ+iK/6klq8FbHiPkjvgHXrthnexemCmSD8L0ncceoDgobcMVdnmdAyqPd/8nrXxdr0ElXuoHo7aW1Ub8Lq3x9pRTltfkqu2wD0tJtfl+Xvc6tcT8aMq/ukDMYgh1IbnRj6ZtRbl2qti+Nday+NFUgO04GxMvDMXey9ohn17RXjDwDYlRLepQl43N1L/2KuN62dSwfXBG5es8eSGiD5ao8tL488sD72Eu7nIGAefMRVFwrDduAGCUuJYoQqaYi+oiDgo2FFesGpN7JWZokkK6e3mh3fdAc45v2CcMkW5atXHihXUkRiFEhzlefO8a1jU1+8YtZXHV5B8Q4oUW977Iq+XuerKjeXjfZnsOl961ob3X5hH0eaaBptkBCq4GqBhfVXKjYNDWx9f2DK9zB3ui3/lSbDRuBGGVR9vGCsk86113x1uqzYavsgg3L+w9ddPgl7dpuWZJAjG0uPdofrGjyovqDC6u3Tc6bO6sXDq47OexXNGHVTQLIPvF+FEHvomi7reW7dPGJ6goj/4A0DURfFWVdCng8st81kbpZU72KLn6XXjBg8fYicYFMTczn2Tw1MdUTmpQc/UY6alWfrUBajqvR543Xoww767urVqxaV9VdVdPjaJU8qqSEzaBkgRilqhxrQageT3Bi3vj1zR41IJmXQzJAjKWmv0nxdp8X9lzLi529uukawMo8BGIUnopzn+bp70SMsb6m8imJqEDCJybHfjUB96uGrUCMzoFYX4MgK16fpmk+deIfXslEOmkgLSc8ce6xFX85JAWkq8a0NycHpJrmq9duNzS0uvqgO2BeK6x+0nmOAQkdiqV8k7T0AknUO8NJ7gLPHohROJLiPUiTBmKcrUz9KxeSAWIU+qMscMnjcjirXgxVMzCsa1Ge4XPOy08gRr8s3QhAvMn6SAcQo24kYBMQY1+lxxYgxt5oZ2aCuuQNTBZ9D9frLzTyFIhR7PLmPpDepH2kBYhRtyhgExCjqd4j2wHEWONLejqK3G/kLRDjLUdvjgORNWeJkRUgRp1bswmIcWCdptsBxFgTSHI6UjBdPm5IIEZtvUfPZSBS4MUmI0tAjGfrU1htA6ndBqVMDsg2ADEG9aR2GtTWTUZeAzF27PKrtgBpPJX8CiCrw0dTualImoAYXffJAZuAGNsvpbIRSRqIcXjY+m6Wrl3aYOQ5kNCeRKU36Tev0fqk19tjblVOloe+LrWP6aQLiGEsd2rJnciQR5tTnFRj8ykt2dOKcsPVpKfz3m6fteUt97qOpPPDlDcqEGPnppPJEJF1ydO6K/mpvDLsUxXrk9FV5eLyFP+i9AEx9jc7klht5YDXmfrdDVY/59f0JBaEounOFD6pMrTpUq9XTsxD6k7vXSVvWCCGsay6Mqh6rSwaWdKk1vqlKb2xj1WPO4K9qpXVTfaprVtSX9PSCMQwrgwOq9Z2tCTVVbVp2WymteHgiKTq1t4/tKDj8vnUbq29rL9ejrtllAOq//j6NN8y7wYGYhgFdQedUuyhHpMbDkUKqJJ7S8Wzqc+4ru27Lo6ovVEuQIdvoLxqsL55NvdrSysQw+hsvuTtleKvt7rk87XfP/u33KajVX7PxKiSOBsOyevTFlUevLo29ckMvXWhPTA5iijq/JcurSlJ+zp2QwOZWKu2DdYMyx7NrERWvKqn1+8YOHG0rnO2k2m5fXlzt/tcaEKBKBMKeHytju7SkiWz+1PSCyT0lvvSkXa/1huLteLTXO4Ly9OzBgzV9u92t3pDSuQow+Q0T/Ccu2rN1a/snPX6en6w3uEPeNSAV5nOG/r1Squ7qrRwfwZWsLQCebU1oIQ1+qJhS53VpUX1bpckSd7pJElR/O76E2uWnu9I33TaNmwqG68aaJWU6xOamFLrQPfBpdsaZ2893UBC9W0vO+6WQ2/e6sQIrKkkb2Di/+ntx8vOp/V7RLoK9x5Z0XNOiZw98nBP9+XS6sK2tE2nafvCwaLuevdkjvb6FePN/SsbM7RypRXIlYFhR1itqwzbOnago2R5ccV0/cu3j3UcyMi3yLSd7Xx2+/qj16a0/vzqzvL0LPtMAJnYDz2wOvQGcrHG2X5t4TgvVRaV7Vld/noGZk/Lss6xbTOzZ+tbGxY0LduZieXQtW+qA8daMrlipRXIzttXPxvW6iaDsg7kWhubphbO6rG1O5nZ2QFCOQyEAAIQAghACCAAAQhACCAAIYAAhAACEAIIQAggBBCAEEBuNCBujxSWp55ZAhCaaceLJ+vDOvkKswQgFFaBEHMEIEQAIQIIEUCIAEJEACECCBFAiABCBBAigBABhAggRAAhAggRAYQIIEQAIQIIEUCIAEIEECKAEAGEiABCBBAigBABhAggRAAhAggRQIgAQgQQIgIIEUCIAEIEECKAEAGECCBEACECCBEBhAggRAAhAggRQIgAQgQQIoAQAYQIIEQEECKAEAGECCBEACECCBFAiABCBBAigDALiABCBBAigBABhAggRAAhAggRQIgAQkQAIQIIEUCIAEIEECKAEAGECCBEACECCBEBhAggRAAhAggRQIgAQgQQIoAQAYSIAEIEECKAEAGECCBEACECCBFAiABCBBAiAggRQIgAQgQQIoAQAYQIIEQAIQIIEQGECCBEACECCBFAiABCBBAigBABhAggRAQQIoAQAYQIIEQAIQIIEUCIAEIEECICCBFAiABCBBAigBABhAggRAAhAggRQIgIIEQAIQIIEUCIAEIEECKAEAGECCBEAGEWEAGECCBEACECCBFAiABCBBAigBABhIgAQgQQIoAQAYQIIEQAIQIIEUCIAEIEECICCBFAiABCBBAigBABhAggRAAhAggRAYQIIEQAIQIIEUCIAEIEECKAEAGECCBEBBAigBABhAggRAAhAggRQIgAQgQQIgIIEUCIAEIEECKAEAGECCBEACECCBFAiAggRAAhAggRQIgAQgQQIoAQAYQIIEQEECKAEKXa/xdgAP5wuK+3BuVrAAAAAElFTkSuQmCC;" parent="1" vertex="1">
          <mxGeometry x="1260" y="1120" width="120" height="120" as="geometry" />
        </mxCell>
        <mxCell id="wcl93YPTjWswhF3ndqCy-1" value="Amazon SageMaker" style="outlineConnect=0;fontColor=#232F3E;gradientColor=none;strokeColor=#ffffff;fillColor=#232F3E;dashed=0;verticalLabelPosition=middle;verticalAlign=bottom;align=center;html=1;whiteSpace=wrap;fontSize=10;fontStyle=1;spacing=3;shape=mxgraph.aws4.productIcon;prIcon=mxgraph.aws4.sagemaker;" vertex="1" parent="1">
          <mxGeometry x="490" y="1020" width="80" height="110" as="geometry" />
        </mxCell>
        <mxCell id="wcl93YPTjWswhF3ndqCy-2" style="edgeStyle=orthogonalEdgeStyle;rounded=0;orthogonalLoop=1;jettySize=auto;html=1;entryX=0;entryY=0.5;entryDx=0;entryDy=0;fontSize=15;" edge="1" parent="1" source="MWNhhg4DmTbggFdNVIW7-86" target="wcl93YPTjWswhF3ndqCy-1">
          <mxGeometry relative="1" as="geometry">
            <mxPoint x="438" y="1054.94" as="targetPoint" />
            <mxPoint x="368" y="998.9" as="sourcePoint" />
            <Array as="points">
              <mxPoint x="400" y="999" />
              <mxPoint x="400" y="1075" />
            </Array>
          </mxGeometry>
        </mxCell>
        <mxCell id="wcl93YPTjWswhF3ndqCy-6" style="edgeStyle=orthogonalEdgeStyle;rounded=0;orthogonalLoop=1;jettySize=auto;html=1;" edge="1" parent="1" source="wcl93YPTjWswhF3ndqCy-4" target="MWNhhg4DmTbggFdNVIW7-105">
          <mxGeometry relative="1" as="geometry">
            <Array as="points">
              <mxPoint x="650" y="1182" />
              <mxPoint x="650" y="999" />
            </Array>
          </mxGeometry>
        </mxCell>
        <mxCell id="wcl93YPTjWswhF3ndqCy-4" value="" style="shape=image;verticalLabelPosition=bottom;labelBackgroundColor=#ffffff;verticalAlign=top;aspect=fixed;imageAspect=0;image=data:image/png,iVBORw0KGgoAAAANSUhEUgAABLAAAAJ2CAIAAADAIuwLAACAAElEQVR42uzdd5wU9f348ZnPbJu927vd60UFERPbN9aoMUETe/nZ8kVN7LEiRZoGjcnXmMRoLIBoBGPFRiJYwG8givpVYxAbiCKCVJHrZfduy+zs7nzm97hDiUTUA67s7ryej4f/IOzdvWdmP/u6md1x2batAAAAAACcRzACAAAAACAIAQAAAAAEIQAAAACAIAQAAAAAEIQAAAAAAIIQAAAAAEAQAgAAAAAIQgAAAAAAQQgAAAAAIAgBAAAAAAQhAAAAAIAgBAAAAAAQhAAAAAAAghAAAAAAQBACAAAAAAhCAAAAAABBCAAAAAAgCAEAAAAABCEAAAAAgCAEAAAAABCEAAAAAACCEAAAAABAEAIAAAAACEIAAAAAIAgBAAAAAAQhAAAAAIAgBAAAAAAQhAAAAAAAghAAAAAAQBACAAAAAAhCAAAAAABBCAAAAAAgCAEAAAAABCEAAAAAgCAEAAAAABCEAAAAAACCEAAAAABAEAIAAAAACEIAAAAAAEEIAAAAACAIAQAAAAAEIQAAAACAIAQAAAAAEIQAAAAAAIIQAAAAAEAQAgAAAAAIQgAAAAAgCAEAAAAABCEAAAAAgCAEAAAAABCEAAAAAACCEAAAAABAEAIAAAAACEIAAAAAAEEIAAAAACAIAQAAAAAEIQAAAACAIAQAAAAAEIQAAPSrzGcbwiOHR/57/8i486zGegYCAIBq2zZTAADkN6vus+htk5S6D9UvfhFqS1UZdFBg0q1aRRXzAQAQhAAA5GMKNtZHb/+V8ukSVWxjvbMtVd3z8MCkW0SolFkBAAhCAADyhAy3Rf90vb1m8TZTcOssFGK/owon/l4UFTM3AABBCABALqdgZ0f0jhvsj15Xte1Y46QlxAHHFl3ze1X3M0MAAEEIAECOsY1E9E/XWx++KjS5gzFpqdohJwcm3qR6vMwTAEAQAgCQIyk4+UZryQtC64V1TVqa6wenFV59A1kIACAIAQDI4hRMmbFpN2fenCc0q3cfWVou14/PCoycpGgacwYAEIQAAGQTy4re+6fMq0/1egpu9UWk23PCBYWXjlUEN+8FABCEAAAMOClj909JL3xCiHR/fUGP5/9dUnDxKGYPACAIAQAYMPEHp6UWzBQiNQAdauueMy4vOO9ytgIAgCAEAKB/U/CxGal5DwnVGNhvw1ILfWdd5R9+IVsEAEAQAgDQ5xJzHjVn3yvsePZ8S5Yo1i8Yp58ynK0DACAIAQDoE8bf5xiPTdZkNDu/PekK6pde7zvmZLYUAIAgBACg1yRffD7x8G2aFcn+b1W6S/0jfuMddgxbDQBAEAIAsHMp+MoC48E/iXRbbn3bll5VcOUN3iN+zBYEABCEAABsN3PRq/H7btaMxlz9AWxFFu5SMPpGz8GHszUBAAQhAAA9knpvcfye34p4XT78MLYig4MLx/3Bve/+bFkAAEEIAMDXSn+0LDb5V6Jzo6Lm1w9mKzK0R+G1t7r33IutDAAgCAEA2DoFP1kRu/16EVmXbyn45SqUil3+ncCk21yD92CLAwAIQgAAlPTqlbHJN6gtn6jCET+vLRWl9r8Kr/mja9fBbH0AAEEIAHCozGcbYnf8Sqn70CEpuHUWqsqggwLX/lGrqmFPAAAQhAAAB7Ea66O3Xa9sXOLAFPyPLFT3OCxw3a0iVMpeAQAgCAEAeU6G2zr/eI2y/j1VsOh8kYWWqu71o8CkW0RRMdMAABCEAIB8TMGOcPSWSfbqxarGcrOt+VhC2++owmtvFoUBpgEAIAgBAPmSOp0dsTt/Yy1/TWiSaXxbFqraQScEJtyk6n6mAQAgCAEAOcw2EtHJN1pLXiQFtzMLhesHpxdefYPq8TINAABBCADItRRMmdFpf7DenCu4QHTHs1BzHTU8MOp6RdOYBgCAIAQA5ALLit71+8y/nhOaxTB6IQul2330OYUjrlWEYBoAAIIQAJDFKXjvnzKvzREizTB6Ows97hPOL7x0LFkIACAIAQBZ1yuxB+9Kv/C4ECmG0Ydjtn2e0y4tuGAEowAAEIQAgKwQf2xGat4DQjUZRT9loeL3nj3KP/xCRgEAIAgBAAMmMftR86l7hGowiv5nqYX6+RP0U89iFAAAghAA0L8p+Oys5F+naXaMUQxwFmpB/cIJ+klnMgoAAEEIAOhzxt/nGI/fpVkRRpE9pLtUv+SXvmNOZhQAAIIQANAnki/PNx66TaTbGEV2snyVBSN+7T3ix4wCAEAQAgB6jbno1cT03wmzhVFkP+mvKRhzk+fgwxkFAIAgBADslNS7i2J336gZjYwil9iKLNylcOIt7v0OYBgAAIIQALD9Kbj07fi0G0Vsk6IyjJzNwuCQwnG/c++7P8MAABCEAIAeSX+0LDb1f0RkHSmYD1UoFbv8O4UTbnbvuRfTAAAQhACAr0/B1SvjU36ttqwiBfMvC5Wa/QqvvcW162CmAQAgCAEAW8l8tiF66y/Vpo9VwTDyOgt3+V7gutu1qhqmAQAgCAEAitVYH73lGqXuQ1LQMVmoKoMOKvrV7aK0nGkAAAhCAHBwCt7+K+XTJarg+d95WWip6p6HBybdIkKlTAMAQBACgIPIcFv0T9fbaxaTgo7PQiH2O6pw4u9FUTHTAACCkJcFAJDvKdjZEbvzN3L5q6rGcz6+2CssoR14fGDiTaruZxoAQBACAPKQbSSit99gLXtFaJJpYFtZqGqH/r/A+BtVj5dpAABBCADIlxRMmdHbf20teUFwVhDfnoWa6wenFY79jep2Mw0AIAgBALmdgrFpN2fenCc0i2lgO7JQul1HDQ+MnKRoGtMAAIIQAJBrLCt6758yr84WWoZhYEez0OM+4fzCS8cqgnuSAABBCADIkVfxsQfvSr/wmBBphoFeyULPaZcXXDiCUQAAQQgAyGrxh+9O/f0RIVKMAr2chbbu+emVBT+/lFEAAEEIAMi+FHxsRmreQ0I1GAX6jqUW+s66yj/8QkYBAAQhACArJOY8mpw9XbNjjAL9lIWiWL9gnH7KcEYBAAQhAGDAGH+fYzw2RZOdjAL9T7pC+qXX+Y45mVEAAEEIAOhXyZfnJx64RbMijAIDnIXuUv/IG70//AmjAACCEADQ9yn46ovG/X8U6TZGgexh6VUFV/3Ge/iRjAIACEIAQJ8wF70av+9mzWhkFMhGtiILdykYfaPn4MMZBgAQhACAXpN6b3H8nptEfBOjQA5kYXBI4bjfuffdn2EAAEEIANgp6Y+WxSbfIDo/VVSGgVzKQrt0aMHEW9x77sUwAIAgBABsfwquXhm7bZKIrCMFkatVKBW7/DuBX93p2nUw0wAAghAA0COZtZ9E77hebflEFQwD+ZCFSu1/FV7zR7IQAAhCAMA3puBnG2J3/Eqp+5AURN5loaoMOihw7R+1qhqmAQAEIQBgK1ZjffT2Xykbl6gqT8XI5yxUhx4emHSLCJUyDQAgCAEAigy3RW/5pb3uHVXwJAxnZKGlqnv/KPDLW0RRMdMAAIIQAJyagp0d0Vsn2asWqRpPv3De/m8Jbb+jAtfdqup+pgEABCEAOCsFY3f+xlr+mtAk04Czs1DVDjohMOEmshAACEIAyH+2kYhOvtFa8iIpCHwpC4XrB6cXXn2D6vEyDQAgCAEgH1MwZcam3ZxZPFcIUhDYZhZqrh+fHRg5SdE0pgEABCEA5A+rtTVy2UkuT5JRAN8snfKXznpV1XVGAQD9jJteAUBfsZNm5/JofIMlTX71BmyblbRj663ohx12Os00AKD/uRgBAPRlFCpmmzTbpbdM6NWacDMR4HMyZRv1XUeHwi9MAIAgBIA8z8IWmWqT3nKhV2kqT71weAqmlWSjlWwhBQGAIAQA51ShVJJN0myRvirNVyFUPkEDDjwKMorRZJnN0uZTlgCAIAQAZ2ahUW8lmy29UvNWCJW3csMhe76lJJtlssmyLYYBAAQhADj8xXFGSdR1ZaGvSvOVC0VlJMjfvV0qZos0Gi07wzAAgCAEAHxBppXEZ1aySeo1wltCFiL/WlAxW6XRYEk+QBQACEIAwLazMGXHN1jJxq4s9IS4hBT5koLt0qiXMsXnxgAAQQgA+DZW0o6tszS/9NcIdzFZiByWCneloJUkBQGAIAQAbFcWJuzoGstVIPVazR3gElLkmHSHnai3rAQpCAAEIQBgR2XidvSTjDug6rWaq4AsRC7stFE7UWdl4qQgABCEAIDekI7a6ZUZd7Hw1wjNTxYiW1Mwbhv1VrqTFAQAghAA0OtZ2CE7OqSnROjVQvORhcgilmEb9TIV4R7zAEAQAgD6UqpdpsLSWyL0GiE8ZCEGmDTtRL1MtZOCAEAQAgD6h62YbdJsl75y4avShJuJYCBSMGUbDdJskwqXiAIAQQgA6P8sTDZLs1V6K4Reqak8i6PfUjCtJButZAspCAAEIQBgYKtQKslGabZIX6XmqxQqty1En+5vlmI0WmaztLlEFAAIQgBAFr1Mr7eSzZZepXnLyUL0wT4mlWSTTDZZtsUwAIAgBABk4Uv2jJLYZCWbLL1a85YJhU+cQS+loNkqjQbLzjAMACAIAQDZTaaV+EbLaJJ6tfCWkIXYmRbcnIJSpnmzIAAQhACAHMpC045vsJKNUq8RnhCXkGK7mW0y2SAtkxQEAIIQAJCbrKQdW2dpfumv0dzFnCtEj6Qi0qiTVpIUBACCEACQB1mYsKNrMq5C1V+juQJkIb5WutM26qxMghQEAIIQAJBfMjG785OMu0jVazRXAVmI/9w9EnVWJkYKAgBBCADIX+lOO92Z8QSFXiM0nSyEkknYRp2V7iQFAYAgBAA4QyoiUxHpKRH+GiG8ZKFDWUnbqOvaExgFAIAgBADnZWG7TIWlt1To1UJ4yEIHkaZtNEizjRQEABCEAOBk3TeaM9ukr1z4qjThZiL5noIp22iUZqtUuEQUAEAQAgA2Z2GyuSsSvBVCr9JUjYnk40bOKEaDZbZKm/OCAACCEADwn8EglWSjNFukr1LzVQqVu9nnzZa1lGSTlWwiBQEABCEA4Nviwai3ks2WXq15y8jCnI98s1kajZZtMQwAAEEIAOhhSGSUxGdWsknqVcJbJhQ+cSb3NqGSbJHJRkummQUAgCAEAGw/mbLjG7uzsEZ4SjhXmDMpaLZJo0HKFJ8bAwAgCAEAO8cy7dh6S2uQeq3wBMnCrJZql0a9tExSEABAEAIAejELk3ZsreXyS71WcxdxCWn2pWCkOwUNUhAAQBACAPpGJmFHV2dcAdVfo7kKycKskO60jXorEycFAQAEIQCgH7IwaneuyriLVL1Wc/nJwoHbELGuFExHSUEAAEEIAOhf6U473ZnxBIVeKzQfWdivrISdqLfSHaQgAIAgBAAMnFREpiLSWyr0aiG8ZGHfp2DSNuplKsw95gEABCEAIDuYbdJsl96y7ix0k4V9Qqa6UtBslwrnBQEABCEAILvYitkiU22bs1BTWVV6MQXTitFgma2kIACAIAQAZHMVSiXZLM1W6asUvkpN1RjJzs0zoxiNltkibS4RBQAQhACAXMlCo0Emm6VepXkrhMrd7HdghlZXWicbLVIQAEAQAgByMmkSdVay2fJVab5yofDWwh7ntNksjSbLzjAMAED/4fe3ANBXtLLSoosvVN1uB/7sMq0kPrMiyzO8Ba4HLagkm2XH8nSizqE1qHq9xVderhYUsC8AwAA8Cds2CzUA9KFMfUPk7j9Hn35WsSyHhrFX1WuEp4RfQW4jBc12adRLmXLoWqy6XIFzzwleNUKrKGd3AACCEADyVvrTjeHJd8X/Pl9x6rOupndnYZAs/Fwq3JWCVtKpq7CmFZ5xWmjc1a6aanYGACAIAcAZDbDqk/DkuxIvvezYCbgKVL1Gcxc5+p2F6Q6ZqJdWwqnrr6oWnHxSaNwY95DdeU4AAIIQABzHXLosPOUu41+LHDsBd0DVazVXgeOyMB21jTorE3fuyus/5iehcWM8++zD8wAAEIQA4GjJt95uv32yufR952Zhseqv0TS/I7IwE+9KwXTUuWuu7/DDSq6Z4D1wf459ACAIAQCfS7z6WvjOqakVHzt2Ap6Q0GuE5svbLLQSttEgUxHn3ljQe8D+oWvG6z84nOMdAAhCAMBX2HZ8/j/C0+5Jr1nr1LVI8ZZ0ZaHw5FUWWqZt1MtUu3NT0LPP3qGxY/zHHs1RDgAEIQDgG6vQsuLPzQtPuyezqc65WVgm9GpN5P6NG2WqKwXNdufeg9G9++DQuDEFJ5+kCD5XFgAIQgBAD7MwnY4+NSdy95+tllaHLktC8ZYLvUpTXbmZgmkl2WglW5ybgq7q6uC4MYVnnq5qGkc0ABCEAIDtz8JksvOxJyIz7peRiEMXJ03xVWq+CqHmTlPYGcVossxmaTv1ElGtvCw4ckTg5+eobjdHMQAQhACAnSLj8Y4HHu58eKaMRh26RLkUvVLzVgg1u686tKWSbJLJJsu2HLqvimCw+PJLii++UPX5OHIBgCAEAPQaKxzuuP+hzkcetU3TobHhVnzVmq9MKGo2pqDZIo1Gy8449WWEXy++7NLiX1woioo4WgGAIAQA9E0WNrdE7p0RnfU3O+PQ8hAeVa8R3pKsyUJbMVul0WDJtFNfQHi9RRecWzziCi0U4ggFAIIQANDnMvUN4Sl3xeY+r1gOvTZR83VloSc0wJeQmm3SaJDSdOgCqrpchWcPD40ZpVWUc1QCAEEIAOhX6XXrw1Pvjs9foDj1CVzzq/4azV08AOcKU2Fp1Esr6dSlU4jCM04LXT3KteuuHIkAQBACAAZMasWK8JRpiVdedewEXAWqXqu5A/2UhelOO1FnWQnnLpoFJ50QGjfGPXQoRx8AEIQAgKxgLl3WfvudybfeduwE3IGuLHQV9GEWZqJ2ot7KxJy7XOpHHVlyzTjPPvtwxAEAQQgAyDrGm4vDd0wx31/m2Al4gkKvEZrey1mYidtGvZXudO5C6Tvs+6GJ430HH8RRBgAEIQAgqyVeejk89e7Uxyudm4Ul3Vno7YUstAzbqJepiHTsML37fy80fqw+7IccWQBAEAIAcoSU8fkLwlOmpTd86tRlTfGWCr1aCM8OZqE07US9TLU7NwU939kzNGGs/9hjFFXlkAIAghAAkGNsy4o9Ozcy9e5MQ4Njs9BXLnxVmnBvTwqmbKNBmm1ScerC6N5tt+D4qwv/38mKEBxHAEAQAgByOQvT6eiTf41Mv89qaXXoCicUb4XQqzRV+7YUzCjJBstslbZTzwu6qquDo68qPOu/VU3j2AEAghAAkC9ZaCQ7Zj7acf+DMtLh0HVOU3yVmq9SqNs66WVbSrLRSjY7NwW1stLgiCsC5/1c9Xg4XgCAIAQA5CHZ2dnx8KMdDzxoJwyHrnYuRa/SvOX/zkJbKskmmWyybMuhe4UIBIqvvLzoovOF388xAgCO5WIEAOAAttb+SfGeVqpNMxotO+O8nz+jJDZZySZLr9Y8JcJsk0aDE+fweQq6FV/XHFKifTUfHAMADscZQgDI6xAyEtHJN1pLXhDa58/2nBlTVMWxHxujuhS9UvNW/PtMqbQ01w9OK7z6BtXj5XgBAIIQAJAvKZgyY9NuziyeK8Q23h5nZxSjyTId/N45x633m99LWSG2+RE7XVn447MDIycpfKgMABCEAIDcZlnRu/+Y+efTQvuWk4Ay3f2RKi3OvdGCI1Z6oXjLuz9t9dveJiKl233suYVXTOC2EwBAEAIAcpCUsem3pf/vKSHS2/GPUrZRL812sjD/FnnFWyb06u28H6P0uE+8oPCyccwPAAhCAEDupOCDd6VfeFyI1I49gGV2ZWGqnUtI8yUFS4ReI4RnBz80Rtq657RLCi4YwSwBgCAEAGS1+GMzUvMeFGpy5x/KSthGg0xFyMIc5gl1paDm64XPD5VKgffskf7hFzJVACAIAQBZJzHnUfNv9wi1l+8umInbRp2VjrJA5Bh3seqv0TR/L99KwlIL9Qsn6qcMZ8IAQBACALKCMe9vxhNTNTvWd18iHe3KwkycZSIXUjCg6rWaq6AP7ypoaUH/L37pO/5Upg0ABCEAYOBScP4zxmNTNCvSP18u3SET9dJKsFhkKVeBqtdo7qJ+usG8dJfql/zSd8zJTB4ACEIAQL9KvjzfeOg2kW7r/y+dCkujXlpJlowsoumqXiM8wQG4RYSlVxVceYP3iB+zFQCAIAQA9Dlz0auJ6b8XZvNAfhO2YrZ3ZaFMsXAMdAp6u1OwZIDvFigLagtG/9Zz8OFsEQAgCAEAfSL13uLYtP/RjIZs+YZsJdkik42WTLNxBoDwqHq18JYKRc2W/UEGdi2ceIt73/3ZOgBAEAIAei8Fl70bn/obEduULS/9v1wBUjGbpdFk2Rk2VH+loFvxVWm+cpGF+0NXFgaHFF7zR/d392VLAQBBCADYKemPlsWm/o+IrMvGl/5frgBLSTbLZKNlc9vCPl2qNUWv0rwVQhXZvT9IxS7/TuGEm9177sVWAwCCEACw/Sm4emVs8g2i9ZMsT8GtMiCjGI2W2SLJwt5fpIXiqxS+Sk3Vcmd/kIpS+1+F1/zRtetgtiAAEIQAgB7JfLYhetsktWFFlp8F+joyrRgNltkqFVaVXkpBb5nQqzXVlZPff1cW7nZg4Je3alU1bE0AIAgBAF/LaqyP3nqtsumDHE3BrbLQtI0GabaThTuzMm9OQSHcaq7/KLZUlcEHFd1wpwiVsmEBgCAEAGydgs2N0T9dp3y6RBV59VRsJW2jXqbCXEK63byl3SnoVfPph7ItVd3z8MCkW0WohE0MAAQhAECR4bbon663Vy9Wtbx9ErYSdqLeSnewyvSIJyj0WqH51Lzd5y2h7XdU4cTfi6JiNjcAEIQA4NQU7OyI3fkbufw1VXPECbRMzDbqrXSUteZruYtUvVZz+VVH7P+W0A46PjDhJlX3s+kBgCAEAAexjUT0jv+x3l8oNMddS5nu7MrCTJwVZyuuQtVfq7kKVaf94NJStcNPC4z9jerxshsAAEEIAPmegikzeueN1rvzhebop9xURBr10jJYdxSXX9VrNXeR6uQhSEtz/fCMwNjfKJrGLgEABCEA5GcKxqbdnHlzntAspvF5FrZ3Z6Hp0NVH86l6rfAEBXvC51ko3a6jhgdGTiILAYAgBIC8YrW3RS492eVOMIqvhLJitkmjQcqUg9Ygzav6qoW3lBTchnSmsPSJV1RdZxQA0M9cjAAA+qp6EsnODzs+v5GAR2Ug/9Z9qz1vqUi2yGSjJdN5/uMKj6pXCW+ZUNgLvkKadqJeptrDJek0QQgABCEA5FkUKmarNNukr1z4qjThZiJbZaGvoiuTzGZpNFp2Pl5Uq7oUvVrzlgmV84JfTcGUbTR0HR0K1yoBAEEIAPmdhclmabZKb4XQKzWVp94vJ5NQfFXCWy6STVaySdr58gmsqqb4KjVfJSm4rRTMKMkGK9lCCgIAQQgAzqlCqSQbpdki6YRt5pNeo/kqNKPBMltzOwtVoXSVf5Wm8iEpXz0KLCXZaCWb86f8AYAgBABs3wtio95KNlt6leYtJwu3TimX4t+1q5aNRmm25uDpI1Xh2uCv3fOlkmySyab8vDYYAAhCAMD2vDjOKIlNVrLJ2vwGMz5r5MuERy3YTdMrxedvMMuRFOTTg74hBc1WaTRYdoZhAABBCAD4gkwr8Y2W0SR17kbw1Sz0qgWDNV+VMOpkKpLVWegpEf4aIbyk4FdbsDsFG511fxEAIAgBANuThaYd32AlG6VeIzwhsnArmk8t3EPLJIRRZ6U7sy4qPEGh1whNJwW3IdUujXppmaQgABCEAIBvYyXt2DpL80t/reYuIjC2Xqv8amBPVyZmJ+qsTCwrAsNdpOo1mquALbWtFIxIo05aSVIQAAhCAMB2ZWHCjq7OuApVf43mChAbW69YhWrRd13pTtuoszIJewC/DbbO1xnwrQMAIAgBIOdlYnbnJxnOQW2Tu0h1F7kG5ByU5u9KQXcxW2TbO22i3spESUEAIAgBAL0h3WmnOzO8S22bPEHhCQqzTSYb+uNdappP5R2eX8dK2ImsfIcnAIAgBICcl4rIVETyOZbb5C0V3hLRfUsDKdN9EiTCq+rVXV+FW4NsIwWTdvZ/BiwAgCAEgNzPwnaZCkvudLcNquItF55S0et3uhNuhbtEfh1p2rl0l0gAAEEIADmv+5ZuqXbpLRN6taby/P3lKhSKr0J4y0SySSabLNvauUdzKXqV5i0XKpeIfjUF090p2CoVLhEFAIIQANDfVSiVZHPXy3FfhfBVaarGSLbKQr1a+CqE0WiZzdLe/tNXqqb4KjVfJSm4rX0vo3QNtmVHBgsAIAgBAL2ZhUajTLZIX5Xmq6Be/jPq/LWar0JLNlrJlp6eyFKF4q0QeiWnXre1v1lKsslKNpGCAEAQAgCy6WW6UWclm6zNb3UjC79MuBX/rpqvUnz+VrdvyEJV8ZULX5Um3IxtG796MJul0bizV+ECAAhCAEDfvGTPKInPrGST1KuFt5RPQNk6Cz1qwSBNrxKJeplql19NQW+J0Gv4nJ5t7lhKskUmGy2ZZhYAQBACALKbTNnxT61ko9RrhKeEc4VbZ6FXLdxds6qEUf/veyR4SoReLTQfKbiNFDTbuu/kkeJzYwCAIAQA5A7LtGPrLa1B6rXCEyQLt6LpauEeWiYuUu3SWyo0Pym4DamwNOr6417/AACCEADQN1mYtGNrLVeB1Gs0dxHZs/WyV6C6Cvhs1m2lYEQa9dIySEEAIAgBALkvE7ejqzPugKrXaK5CshBfKx21jTorEycFAYAgBADk3Wv99KqMu0j112pcJIn/kIl3pWA6SgoCAEEIAMjjLOy0OzoznpDQa/gYFXSxEnai3kp3kIIAQBACAJwhFZapsPSWCr1aCC9Z6NQUTNpGfdeewCgAAAQhADiO2SbNduktE3o1t2J3FpnqSkGz/Rtv0w8AIAgBAHnOVswWmWqT3nKhV2kqS0Hep2BaMRoss5UUBAAQhACAzVUolWSTNFukr1L4KjWVezHk5VbOKEajZbZIm0tEAQAEIQDgq1loNMhks9SrNG+FULmbfd5sWUtJNstkk2VbDAMAQBACAL4xHhJ1VrLZ8lVpvnKh8IkzOR75ZrM0miw7wzAAAAQhAKBnZFpJfGYlm6ReLbylZGEutqBitkqjwZJpZgEAIAgBADuQhSk7/qmVbJR6rfCEuIQ0d1KwXRr1Uqb43BgAAEEIANg5lmnH1lmaLvUa4QmShVktFe5KQStJCgIACEIAQC9moWHH1lquAqnXau4Al5BmnXSHnai3rAQpCAAgCAEAfSMTt6OfZNwBVa/VXAVkYXZslKidqLMycVIQAEAQAgD6Xjpqp1dm3MWqv0bT/GThQPa5UWelo6QgAIAgBAD0cxZ22B0dGU9I6DVC85GF/coybKNepiLcYx4AQBACAAZOKtyVJd6SriwUHrKw71PQ7E7BdlIQAEAQAgCyga2YbdJsl74y4avWhJuJ9AmZso0GabZJhUtEAQAEIQAg27Iw2dKVK94KoVdqKqtKL6ZgWkk2WskWUhAAQBACALK5CqWSbJRmi/RVar4KoWqMZOfmaSlGo2U2S5tLRAEABCEAIGcypt5KNlt6leYtFyp3s9+xtG6SySbLthgGAIAgBADkXNJklMQmK9lk6dWat0wofOJMj1PQbJFGo2VnGAYAgCAEgNyn+nUtFLLCYQf+7DKtxDdaRqPUa4S3hCz85hZUzFZpNEiZdu6bBbWKctXtYV8AgAF4uWLbvFcdAPqsixKJzocf7bj/QRmNOve1vk/Va4QnxCWk22C2daeg6dy1WASDwauuLDr/56rPx/4AAAQhAORjFnZ2dtz3QMejj9kJw7lZ6Ff9NZq7mHOFn0tFpFEnraSDUzAQKL7koqLLLhF+P/sDABCEAJDnrNa2yPT7ok/+1U6lHDsEV4Hqr9VcAUdnYbrTTtRZVsK566+q+4ouvCB4xWUiWMwzAwAQhADgIJn6hsifp0dnP61Yzv0cSXeRqtdorgLHZWEmaifqrUzMwSnocgXO/Vnwqiu1inKeDQCAIAQAh0p/ujEy5a7Y/85XHPwk7AkKvUZouiOyMJOwjTor3engNVfTAmeeHhw7xlVTzTMAABCEAAAl9cnq8J1TEy+97OQheEqEv0YIb95moZW0jTqZijj4HvOqWnDySaEJY92DB3HUAwBBCADYirnsg/DkqcYbixy8FineUqFXC+HJqyyUpp2ol6l26eTd23/s0aGxYzz77M2RDgAEIQDgayXfejt8x5TkkqVOzkJfufBVacKd+ymYso1GabZKxcFrrP6Dw0MTx3sP3J+jGwAIQgBAjxivvd5+x5TUio+duywJxVsh9CpN1XLy+7czitFgma3SdvB5Qe8B+5f8cqLvsEM5ogGAIAQAbG9S2PF/vBieOi29Zq1zFydN8VVqvkqh5s7d7G1LSTZZySZHp6Bnn71D4672H/MTjmMAIAgBADvBsmLPzQvf/efMZ5ucu0S5FL1K85ZnexbaUkk2y2SjZTv3TiKKe8juobGjC045WVFVDl8AIAgBAL1RGul0bPbT4Wn3WC2tjh2CcKt6tfCWCUXNxhQ0W2WywZIZ5+6lrprq0LirC844TdU0jlkAIAgBAL1dHclk5+OzItPvk5GIY4egeVVftfCWZs25Qlsx26TRIGXKucuoVl4WHHlV4Odnq243xykAEIQAgD4kE4mO+x/qfHimjEadWyA+Va8VnuAAZ2GqXRr10jKdu4CKYDB4xaVFF12g+nwcmwBAEAIA+isLI5HIXx7snPmYnUw6dgguv6rXau6iAbiENBXpTkHDwSno9xdddknxJReJQIDjEQAIQgDAALCaWyLT74s++Vc749z3rrkKVX+N5gr0UxamO22j3srEnbtoql5v0YXnFV95uRYKcQwCAEEIABhgmfqG8NRpsefmKZZzP93SXaTqtZrL34dZmIl1pWA66uAUdLkC55wVHD1SqyjnuAMAghAAkEXS6zeEp0yLz1+gOPj53BMUeq3QfL2chVbCTtRZ6U4HL5SaVnj6qaGxY1y71HKsAQBBCADIUqkVH4enTku8/H9OHoKnRPhrhPD2QhZaSduol6mwdPI8C04+MTR2tHvoUI4vACAIAQA5wFy6rP2OycnFbzl4WVO8ZUKvEsKzg1koTdtokGabo1PQ/+OjQhPHevbZh2MKAAhCAECOSS5+q/32yeb7y5y7tonuLKzWVNf2pGBaMRoss1UqDl4YfYd9v+Taid4DD+A4AgCCEACQwxIv/1946rTUio+dnIW+SuGr1FTtW/6mnVGMRstskbaDzwt6D9g/NH6s/qMjOHYAgCAEAOQFKePzF4Sn3p1ev8G565ym6FWat0Ko27qbvW0pySYr2eToFPR89zuh8Vf7jz1GUVUOGgAgCAEAecW2rPhz88JTpmUaGhw7BOFWfFWar1woXySPLRWzWRpNlu3cWzkq7t12C00cW3DySYoQHCkAQBACAPI3C9Pp6KynIvdOt1panZuFHlWvFp4SYbbKZKMl087dH1zV1cExIwuH/1TVNI4OACAIAQDOyMJksuORRzvuf0hGIg5e+hQnf2yMVl4WvPLywPnnqm43RwQAgCAEAMeRnZ0dDz/a+cBDMpFgGs4hAoHiEZcXXXi+8PuZBgCAIAQAR7PC4Y777u989AnbNJlGni/2fr34FxcXX/YLUVTENAAABCEA4IssbG4J3/3n2FNz7EyGaeThMu/1Bs79WXDUCC0UYhoAAIIQALANmc82hafdE5v7vGJZTCNPFnhNKzx7eGjMSK2ykmkAAAhCAMC3SK9ZE556d3zBC4wix9d2tfCM04JjRrkH7cYwAAAEIQBgO6RWrGi/Y6rx2uuMIhf5jz+uZOJY99ChjAIAQBACAHZQcsnS8B2Tk2+9wyhyhX7kj0qumeDZdx9GAQAgCAEAvcB4Y1F48lRz2QeMIpv5Dv1+aPzVvkO/zygAAAQhAKBX2XbipZfDk+9KfbKaYWQb7377hiaO048cxigAAAQhAKDPSBn7+4LI5LvSGzcyjGzgHrpHyTXj/cceo6gq0wAAEIQAgD5nW1ZszjORu+/NNDQwjQFLwd12C149qvD0UxUhmAYAgCAEAPRvFqZS0SdmRWb8xWptYxr9yVVVFRw1ovCcs1RNYxoAAIIQADBgZCLR+ejjHTPul9Eo0+hrIhgMjb4q8PNzVJ+PaQAACEIAQHZkYWdnxwMPdzz8iJ0wmEafpGAgUHz5JUW/uEj4/UwDAEAQAgCyjhUOR+6ZHp31N9s0mUavrdB+vfjCC4qvvEwUFTENAABBCADIapnGxsg902NPzbEti2ns1NrsdgfO+3nwqiu1slKmAQAgCAEAOSP96cbItHtic59XWF92gKYFhv80OHqkq6aaYQAACEIAQG5m4Zo17XdMTSx8iVH0eEFWC//fycHxY92DdmMYAACCEACQ88zlH4XvnGK8/gaj+Gb+Y48JTRzn+c6ejAIAQBACAPJK8u13wpPvSr7zLqP4Kv1HR4TGj/UesD+jAAAQhACAvGW8/s/2O6akPlrBKDbzHXRg6JrxvsMOZRQAAIIQAOAAtp1Y+FL7nVPTa9Y6eQyeffYuuWa8ftSR7BEAAIIQAOAwUsbmPh+Z9uf0xo1O+9HdQ/cIjR1TcNIJiqqyIwAACEIAgEPZmUzsqTnhe6ZbTU1O+Hldu+4SGjOq8IzTFE1j6wMACEIAABQ7mYzO+lv4nukyEsnXn1ErLwuOGRU4e7jqdrPFAQAEIQAAW5GJROdDj3Q88LCMRvPp5xLBYHDEFUUXnKv6fGxlAABBCADA12dhZ2dkxv2djz1uJ4ycT8FAoOgXFxVffonw+9myAACCEACAHrFaWiMz/hJ9YpadTufksur1Fl18YfCKS0UwyNYEABCEAABst0x9Q+TuP0efflaxrJxZUF2uwLnnBK8aoVWUswUBAAQhAAA7Jf3pxvDku+J/n69k+VKlaYVnnBYad7WrppqtBgAgCAEA6DWpVZ+EJ9+VeOnlrFxF1YKTTwqNv9q9+2C2FACAIAQAoE+Y7y8LT77L+Nei7PmW/Mf8JDRujGeffdg6AACCEACAPpd86+322yebS98f2G/Dd/hhJddM8B64P1sEAEAQAgDQrxKvvha+c2pqxcf9/6W9B+wfuma8/oPD2QoAAIIQAIABYtvxBS+E77o7vWZt/3xBzz57h8aO8R97NLMHABCEAABkQRVaVvy5eeFp92Q21fXdV3HvPjg0bkzByScpQjBzAABBCABANmVhOh19ak7k7j9bLa29+8iu6urguDGFZ56uahpzBgAQhAAAZGsWJpOdjz0RmXG/jER2/tG08rLgyBGBn5+jut3MFgBAEAIAkANkPN7xwMOdD8+U0eiOPYIIBosvv6T44gtVn495AgAIQgAAcowVDnfc/1DnI4/aprkdK6JfL77s0uJfXCiKipghAIAgBAAgl7OwuSVy74zorL/Zmcy3rIVeb9EF5xaPuEILhZgbAIAgBAAgT2TqG8JT7orNfV6xrG2sgi5X4dnDQ2NGaRXlzAoAQBACAJCH0uvWh6feHZ+/QNmy6glReMZpoatHu3bdhfkAAAhCAADyXGrFivCUaYlXXi046YTQuDHuoUOZCQCAICQIAQAOYrW3ayUlzAEAAIIQAAAAAJxLMAIAAAAAIAgBAAAAAAQhAAAAAIAgBAAAAAAQhAAAAAAAghAAAAAAQBACAAAAAAhCAAAAAABBCAAAAAAgCAEAAAAABCEAAAAAgCAEAAAAABCEAAAAAACCEAAAAABAEAIAAAAACEIAAAAAAEEIAAAAACAIAQAAAAAEIQAAAACAIAQAAAAAEIQAAAAAAIIQAAAAAEAQAgAAAAAIQgAAAAAgCAEAAAAABCEAAAAAgCAEAAAAABCEAAAAAACCEAAAAABAEAIAAAAACEIAAAAAAEEIAAAAACAIAQAAAAAEIQAAAAAgq7gYAXqFaZqbNm3qowcvKCioqqpiyEA/aG5ujkajffHIxcXFZWVlTBjIftFotLm5uY8efPfddxeCExIAQYi8s2nTphFXXdVHD37EEUfc9NvfMmSgH8ycOfPFhQv74pHPPPPMkX32LAGgF7355pu333FHHz34s888U1hYyJCB7MFvaAAAAACAIAQAAAAAEIQAAAAAAIIQAAAAAEAQAgAAAAAIQgAAAAAAQQgAAAAAIAgBAAAAAAQhAAAAAIAgBAAAAAAQhAAAAACArOFiBOgVHq93yJAhPfzLUsoNGzYwNCALVVRU9PBYTqVSmzZtYmJA/gkEAj1f0xsbGxOJBEMDCEI43a677HLfjBk9/MuxWOzMn/6UoQFZ6KJuPfmba9euHXHVVUwMyD8/6NbDv3zjb3+7aNEihgbkLi4ZBQAAAACH4gwhAADIRplMpqGhobOzUwhRXFxcWVmpaRpjAQCCEAAA5C3DMF544YXXXn995cqVmUxmy597vd5999132LBhxxx9tK7rDAoACEIAAJA/pJRz582bOXNmPB7/6v81TXNJtwcffPD8888/84wzhOCdLwCws3gmBQAAAy8Wi0267rp77713mzX4H39zxowZEyZMaG9vZ24AQBACAIDcFo1Gx0+Y8P777/f8n3y0YsXVY8e2tLYyPQAgCAEAQK6SUv72ppt24P60TU1N1113nWEYzBAACEIAAJCT5jz99AcffLBj/3bjxo3Tp09nhgBAEAIAgNwTi8WeePzxnXmEBf/4x5o1a5gkABCEAAAgxyxYsCCx09d8zp4zh0kCAEEIAAByzKuvvbbzD/LGG2+kUimGCQAEIQAAyBkJw1i9evXOP04qlfr444+ZJwAQhAAAIGfUbdpk23avPNTGjRuZJwAQhAAAIGd86z3oe66js5N5AgBBCAAAcoaqqr31UJrgJQ0AEIQAACB3BAKB3nqo4uJi5gkABCEAAMgZtbW1opfO7O22227MEwAIQgAAkDO8Xu93v/vd7HkcAHAgFyMAsPP+9tRTDzzwwLf+teOPO+7aa69lXAC2GPajH+38HSN++MMfut1uhgkAO4AzhAB6QVtbG0MAsAOOP/54n8+3kw9y5hlnMEkAIAgBEIQAckxxcfFZZ521M4/w46OO2muvvZgkABCEAAZMa2srQwCwY37+s58NGTJkx/5tWVnZ6NGjmSEAEIQABhJnCAHsMLfb/bubbiorK9vef+j3+2/+wx+44QQAEIQACEIAOayysvLOO+6oqanp+T8pLy+fMnnyDp9aBAAQhAB6RzgczmQyzAHAzqipqZl+770nnXjit/5NVVVPOOGEv9x3HzUIADuP204A2Fnt7e0MAcDO8/v9EyZM+Ol///fTc+b884034vH4f/yFQCBw1FFHnXH66YMGDWJcAEAQAsgKXC8KoBcNHjRo4sSJ48ePX7tu3abPPuvo6BCaFiwu3nXXXQcPHqyqKiMCAIIQQBZpbmlhCAB6lxBiz6FD9xw6lFEAQN8+3zICADuJS0YBAAAIQgAOxSWjAAAABCEAh2rhklEAAACCEIAzcYYQAACAIARAEAIAAIAgBOAY6XS6o6ODOQAAABCEAByH04MAAAAEIQCCEAAAAAQhACdpaW1lCAAAAAQhACfiDCEAAABBCIAgBAAAAEEIwElauSs9AAAAQQjAoUHIewgBAAAIQgDO1NbezhAAAABylIsRIJVKNTU3RyKRWLTLlj/3+Xyay+XX9YKCgrKyslAopKoq4+oJ0zRbW1vbw+F0KmUkk+l0OmWanx9yLpfX5xOqWlhYWFxcHAwGi4qKcvqH5QzhNtm2HQ6HW1tbjW6WlPF4XLHtzf/X7/erQvh8vsKCgtLS0mAw6HLxbLx9pJThcLilpSUejydNM2Wa6XR68//SXK5AIFAUCJSWlZWWlAjBrz57JBKJtLS2hsPhWDSayWS2LAQej6e4uDgUCpWUlHg8Hga182tuOBwORyJGIpEwjHgs9h9/we/3613/6cXFxaWlpV6vl6Fhx2QymY6OjtbW1kgkkrGsZDJpfXFoa5rm03VFUQr8/oLCwlAwWFxc7Ha7GRpBCKf4bNOmjz/+eNWqVRs2bNi0aVN7z87wCCFKSkpqamp277bHkCFDhw7lVayUsq6ubu26devWrl2/fn1jY2NrW1vsKwv8Nx2ELlcwGKyuqtrtC0OGDCkpKcmJHz8ajaZSKY6pzs7OtWvXrlu/ft3atRs/+6yt+9cBlmX1/BECgUBpScmWfWDQoEGDBw+mZLawLGtt14jXrV+3bu26dXV1deFwWEr5rf9Q07TKysrBgwcPGTJk77322nvvvQOBAPPcLJlMvv/++x9++OGKjz/esGFDT564ysvKamprd91ll9ra2lNOOUXvfkGJb1BfX79u3br169d/unFjQ0NDY2NjZ2fndj1CQUFBdXV1VVXV4EGDdt9996FDh9bU1DBYfJVpmqtWrVq7du3GjRs//fTTzzZtikQi2/UIfl0vKS3tOrxra3fZdddddtll6B57FBYW9ueTUkdHh8/nKy4uZoMShOh9hmG88847by5evGTJkvYdusZPStna7YMPPtj8J16vd9999z3wgAMOO+yw3Xff3TnDtG17/fr1S5YuXbJkyQcffGB+cfZvx2Qymc2D/XD58i1/WFNT873/6nLAAQdUVFT08w94xpln9nQUPXhF/mWv/N///WvRoj76tg877LDrr7uuP2N46fvvv/fee0uXLm1oaNj5R4tGoxs+/XTLn/h8vv267f+97+21117O/OVLfX39m4sXL1269MMPP0wkEjtWkvXdFnXveKqqDt1jj0O+//0fHnHEd77znX676uHBhx56/vnne+vRioqKHp05c4f/eTqdfvPNNxcuXPjekiVbTqv2UEtra0tr67JlyxRFGTZsWA+D8JZbb33rrbf6YrA/O+ecn/3sZ9m2327YsGHJkiVLly79eOXKjo6OnXy0eDy+ptsbb7yx+U+Ki4s3L76HHHLILrvswiucr11xXnll2t13D+z3UFFR8Zf77uu7x5dSfrRixeI33/xw+fLVq1dvObe/YxKGkdjUZcufqKq622677bvvvvvsvfchhxxSWlraFz9Fe3v7008//ca//lVfX7/5TwoLCw877LD//ulP99xzT/ZkghC98Ezx7rvvvvDii4sXL+71MzmmaS7p9uBDD+26yy5HHnnk8ccfn9+/uVyzZs3Cl1569dVX2/v4jXObX8L+44UXFEUZMmTIsGHDjv7JT/pttvF4vI8eOdOtjx48mUz2w3Bisdhrr7/+8ksvLf/oI/uLS0D76Md5t9uWpfHon/zkoIMOckIZtre3v/jii6+//vrqNWt6/bc5q9esWb1mzaxZsyoqKo479tj+edYyTbMXD6sd/iVULBabO2/es88+u/OVsr07cx89q6S2M2j71EcrVrz++utvvPFGc3Nzn36hjo6ORd0URdltt92OHDbs2GOPra2t5TXPV1ecvlvOeppYO/SbrJ5YtmzZy6+8smjRoj49nG3b/rTb/PnzFUXZ67vfPeKII4YNG9aLv4mYM2fOw488UlxcfOKJJx6w//7BYDAej69ateqll18eOWrUcccdN/bqq7lwmiDEjr9sXbBgwdx585qamvrhy322adMTTz755KxZhx566JlnnHHwwQfn0zDj8fiCf3T59EsncPrNum4zZ8783ve+d+qppw770Y80TWMP73/Lli2bN2/eojff7Lum/YbD+eVuwWDwpBNPPPXUU8vLy/NyyMuXL587d+4/33hjuy643THNzc3/ftY688yDDzooh17mmqa5Xa+QMpnMc88998STT27XBe3oic7Ozvnz5//jhRfq6ur6/6tv3Ljx8SeeePyJJ/5rv/1OP/30H7FA5Lt4PP7iwoX/+7//u3Hjxv7/6itXrVq5atVDDz+8//77n3bqqUccccRO/o7y3nvvffa554YPH37xRRd9+Tlt7733Pv300xcuXHjXtGkNDQ233nILTUgQYvskEok5Tz/9zDPP9P8vxmzbfqvbXnvt9YuLLz4od15gfZ2Ojo7Zc+bMmzfPMIwB/2Y+6FZZWfmzc8458cQTeQNnv+3Vi95884nHH+/1s1U7IBKJzPrrX5+aPfvoo48+79xz8+mcwEcrVjz00ENbrkgfkGetiy+6KFd+mRWPx3v+8mjlqlV33nnnhg0bOJx7V319/V//+teXX3klG95K/eHy5R8uX15TU/Ozc845/vjjycL8YxjG3Llzn5o9+8uf/zdQlnUrKSk55+yzTznllB2rtZdfeeXZ55676MILzz///Gefe+7999/f8r8qKyuPP+64448/vrSs7Prrr58xY8bYsWPZBwhC9IiUcv78+TMffXR730bc61auXDnpuusOPfTQMaNHV1VV5eIwU6nU088889dZsxJZkIJf1tTUdNe0aU/Nnn3ZpZceeeSR7PZ9XSkzZsxYuXJlVn1XlmUtXLjw5ZdfPuWUUy6+6KJc/6Dapqam6TNm/Otf/xrwZ63rrr/+kEMOGXHllYMGDcr2IEwkevLRU7Zt/+1vf3tk5sx+OOPqKG1tbQ8/8sjChQvldr6Puh8adfKUKU/Nnn3ViBGHHnooWyo/2Lb9jxdeePDBB/v5Yu9v1d7ePn3GjGeeffbyyy476qijtuvfmqZ5//3377vPPuedd56iKGtWr3777bdPPfXUzWfdX3nlleeff37atGkHH3TQWcOHz54z57TTTnPUx1UQhNhBa9eunTxlyieffJI939Lbb7992eWXX3rJJWecccaXP7wh+z/X+P1ly6ZOnTog1//0UENDw+//8IeDDzpowoQJ/f+pM04Qi8X+cv/9CxYsyNrvUEr5/PPPv/baayOuvPK4447L/pF+9Y4Ftm0//fTTj8ycuZOfzNSL3n333SuXLj377LPPP++8bL7FQk8uADFN87bbbnv9n//kcO5FmUxm9uzZT86a1T9vWt4xmzZtuuHXvx42bNiY0aNDoRBbLadt2rRpytSp/X/1RM81NTX94eabX3rppfHjx/f8M9Jfe/31tra2CePHb3l96PV6R1511ZbHPP+CC1577bU9hw49++yzn37mmb/Pnz961Cj2hz7CZ5rnAynlE08+OWr06KyqwS2vSO6dPv3Xv/71l9+44u2WtYv9jBkzrr322myuwS3eW7Lk8ssvf+WVVzgKetcHH3xwxRVXZHMNbtHZ2Xnb7bff9LvfZf97w/7jTGZra+s1115731/+kj01uJllWbNmzbpq5Mi1a9dmbxB+2+aOx+OTJk2iBnvX6tWrR44a9dDDD2dzDW7xz3/+8/IrrnjnnXfYcLlrwYIFV44Ykc01uMXit9664sorv3zZ5zdb9v77Xq/3wAMP3Ob/3fwJxpnuT40qLi7ee++933vvPfYHghBfq729feI11zzyyCPZfEXQ2++8M3rMmC9/kHEwGMzC77OtrW38+PFPP/NMDu0ACcO45dZb777nHi4J6y1PzZ59zbXXtuTUDfffeOONkaNGZfmbxEJfOuo/XL585KhR2fwqZ+PGjaPHjJk7d26WBuE3niGMx+PXXXfdRytWcDj3Ftu2n5o9e8zVV6///+zdd1hUV7s/fAYGho70XlSqKCAK2I3YjWhiiSWixkRiiR07VbGCvYOxxV4TEaMiFhQVCyJSpYP0OlSRgXmvwHv8+Zios/a0PfD9/HGuE5+9hj1rdrvXXuu+MzMlaLfZbPaatWtPnT4t1JTIIAwcDmfXrl3bd+yQoGK/bDZ75apVrflIv6qktFRHW/vjKWMcDufWrVth16+fOXNmVUsRqQ/Tnk1MTESTIhEBIUikpKSkufPmxX9Uv4628vLyFi9Z8uFWSsOAMD09ff5vvyWnpEjikXD16lVvHx+6vWmROM3NzUHbtoWEhEjiw1NBQcGixYtjWwrE0dOHQsP3799fsWJFRUUF/R/I9u7btzUwUPR5ZfkJCBsbG728vSX0UkZPdfX1vn5+ISEhEjruduzYsaCgILotd4QvaGho8PP3vxYWJom30R07d164cOGrW75vaJD539x479+/P/HHHyEhIUeOHtXU0tq6ZcuH3IQyMjI0vA4jIARaePDgwfIVK4RdEE+A2Gz28hUrcnNzaRgQJicnL122rKysTHKPh2fPnnl5eQmv5FGbx+FwfP38brbUfpTUx9a6utWrVz9+/Jieu9e6linizp0NGzdK0K09PDx85apVdJuR+4WAcNv27RIxSigpSkpLFy1aRNvTike3wsPXBwQgJpSUm5GPr290dLTkfoXgkJAbX7uZamppffIEq6ioePKPP3bv2sVkMo2NjT+eTVpWVobVsAgI4T/cuHlzfUCAxL0RYrPZXt7eNTU1Wpqa9NmrzMzMlatWtYFQKvbVK19fX4yiUdDc3Lxp8+YnT560gSeJ9QEBr2kZD2hqaj558mTLli0S9wI2Li5uydKltMrv97mAMOz69YiICJzRgpKfn7948eK2UbHj4cOHgUFBmDtKc1wud8uWLTExMZL+RXbt2vXlkSnzzp2rqqoyMjI++XcTE5MpU6ZcvHjxQ16M5ubmuLg4SwsLHB7CgyyjEik0NHT3nj3C+3w5OTllZWX5Fs1NTfXv3jU2NlZVVQkk0sjPzw/ats3QwIAmnVlWVrZq9WoBRoMMBkNfX9/AwECjhbKysiyTyZKXl5aWrm/5K3X19RUVFVVsdll5eV5enmDf8ca+ehUUFNQ6+R54FxISEhkZKcAPVFZWNjUx0dLWVldXV1NTU1RQYEhLKykq1tfXNzU1NXI41VVVlWx2RUVFYWFhfn6+AMP4xsZGb2/vvXv2GBkZ0aqTWzPRCep5lMViqampMRgMJSWl1gDp3bt31dXVQnoHkpWV5bl8eVBg4IeJrzQMCDMyMvbt24fTWYDR4DJPz1KhLSdmMBiqqqry8vJMJrM10VpdXR2Xy62pqRFSGeHbt2/r6erOmDEDPy5tnTlz5t79+wL8QBUVFWNjYz09PQ0NDVVVVZacnELL/aiu5Rh79+5dVVUVu6qqvLy8sLCwqKhIUPOiORzOho0bQ4KDlZWV/3MDV1fX4ydOhIaG/rvA4JTJk+/duxcYFHRg/34mk3nnzp2ampohQ4bg8EBACP/P3Xv39uzdK9jP1NfX79q1q62trYmJib6enpaW1n9uVllZWVZWlpefn5WVlZGRkZiYSG0VkNgLjn18wfJft47/kExRUdHBwcHezq5bt26mpqZE2err6uoys7Li4+MTExNfvnzJfwX8iDt3rKysvv/+e8qfMIznGgb17949IEljaGBg0NXWVki/pjnV4cOIiIiLly7xvwMW5ub2Dg729vYW5uaaJO/Am5ubCwoKklNSEhISYmNjW6dV8xkt+Pv77969uzVRG00s5KOssJmpqaWlZceOHU1NTfVarlH/+dU4HE5xcXFeXl56enpCQkJ8QoIAp3pmZWWtWr06KDCwNQSlW0DY1NQUGBTU2JKUD/hXVla2YuVKAUaDGhoa5ubmnTt16ty5s66enraWlrq6urT0f0/Uev/+fVlZWWlpaXZ2dmZmZlp6ekpKikCe1E+eOmVlZdWrV6/28CMaGBh89XaWk5NDuuBWV1fX3s6Ox41VSYaQ4uPjjx0/zv8XNzYy6unkZG9nZ2llpf2ZJ7r/1NTUlJ2dnZaeHh8f//z585KSEn52o7S0NDgkZOmSJZ/rxjFubldDQ4cOHdqlS5eP/ydZWdmlS5YsWbr0zJkzY8aM+f3IEQsLCxReFioGJg9IltjY2NVr1gjqZYK1tfXAAf+gXMguNzf35cuXDx4+fPXqlfCOpT59+vj7+Qnjkw///vu5c+coN5eWlu7Xr9/QIUN69OghkOKKjY2NL168uHP37oMHD/j5lZlM5r69ezt16iTsA7K1UhBRqLl8+XJanVOFhYWzPTz4SSJvZGT07ahR/JxH/z6tHj58GHb9Op9J1b4dNWrx4sXC67r09PQ5/1czShgUFRV79+7dp08fezs7au/luFxucnJyZGTk/chIPp9sPnBwcNi0cSOTSTac2tDQwGOoVlxc/OucORSuihcvXjwUHEztS3Xs2NHa2tq8c2d9fX1tHR0FefnWoLf1hVVtbW1FRUV5eXlxSUl2VlZ6RkZubi6Xyz35xx+6urq8fP67d+94vKDFJyR4e3vzvufu7u7TSS5BvP9eS5YsSU1L4/cZi8Ho2rVrr169evbowecFub6+/lVcXPSTJ/fu3+dzmENFReVwSAjv9eK+ytfP79GjR7xvf+Xy5c+9NRJ92D9v/nyiQWElJaU9u3cbGxsLfGcaGxtne3jwU/JKXV195MiRQwYPFtTuZWRkhN/+R2VlJeVTICQ42NTU9HNH9aLFi8vLywMCAjqamXE4nI+H2+rq6ioqKjZs3JiXl7dr1y6zz3wICATeEEqSvLw8/3Xr+I8G5eTkBg8ePH7cOFO+zy7jFmPGjKmsrLwdEREaGpqfny8p/ZmalsZLIqzPRVxjxoyZMH68tra2AHdJVla2V4vyX3/986+/Ll++TG2ZKIfD2RoYuG/vXhkZGZw4X7Zt2zbK0aCVldW0adNcnJ0/1NUVCGNj4ylTpkyePPnRo0d/nDxJuRpe2PXrAwYM+JClTVIwGAzH7t3dxoxxdnLic5yFwWDYtPDw8Hjy5MnFS5f4L3QRGxu7/8CBhQsWELXivfgqj3MFP9msvLz8+IkTpN/Fzs5uyODBvXr1+ly2hs89tbPZ7OfPn/P+plReXp7HLRV43lKotm7dymc0qKGhMXzYsJEjR+rr6wtklxQUFHq5uPRycZk3b17Uo0dnz56lfGWorq7euWvXOn//dn7xb2ho8PbxIYoGGQyG19q1wogGpaSkLl66RDka1NbWnjF9+uDBg0nHqr6sU6dOv3p4zJwxIyws7PSZMxTWUXO53CNHj35uTF9BQWHzpk3ePj5Lliz57rvvxri5fbiqVFdXR0REnDx1isFgbNm8GdEgAkL4f1cuP39/PscFmUzm2DFjpkyZIvBlMB06dJgwfvz4ceOio6NPnT6dnJxM/y49ePAgteVGLi4u8+fNE9Rt/nMPE7N++mmMm1twSMjdu3cpfEJ6evrV0NDvv/sO584XPH78mFqdBjU1tblz5ri6ugo2FPzkyaNv3759+vS5eetWSEhIVVUVhQ/Zu3dvcHCwYB8RhEdaWnrI4MFTp041NDQUeGf2bvHmzZtDwcF8hoWhoaHWVlbDhg0TY199EhCeOnWK93ENaWnp4cOHTxg/3sTEhNpfV1NTGzx4cFu9LPz111/8FPTX0NBwnzZtxIgRQjrvZGVlvxk4cOCAAc+ePz944EDuRwV+iS590dHRLi4u7fbiz+VyA4OCUlNTiVrN+fXXnj17CmN/ampqqM1XkpGRmTJ58pQpU4jWqhBhsVjjxo0bMmTIgYMHb9++Tdr80aNHBQUFn3tk0tDQ2LVzZ+i1a+fOnbt48aKOjo66unptbW1+fr6srOyoUaN+nDqVJiu3ERACLezbv5/PRGd9+vT51cPDQJjZXBgMRusLrqioqAMHD9K5iuiT6GgKD4UsFmvOnDmjv/1WNDuppaW1ZvVqFxeXXbt2UVhbePLkyWFDh9JhvRM9NTU1hRw+TKFhz549VyxfLpoU2AwGY8Tw4T169Ni0adPr169Jm+e+fXvt2rXvJGFcoE+fPh6zZws8FPyEpaXltqCgqKioQ8HBBQUFlD9n9549VlZWpuIbtP44ICwqKrr+9988NuzVq9evHh50SzhEH7m5uZRn3kpLS48bN266u7sI1u4yGAxnJ6fuDg6nT5+mVnc+OCTEycnpc4sY27w/Tp68T5i7ZeSIEePGjRPS/ty4cYNCJiFtLS0fHx9ra2sR9JiqqurKFSu62Njs2buX9Hi7efPmzJkzPxuKMJnff/fdd2PHprx5k56ezq6sVFZR0dPTs7ez43FiBfAPZSckQ3R09N883+//TUVFxdvLy9/Pz0BUuT379u175Pffp0yZIrz3J3w6dfIkhavhli1bRBYNfjDY1XX37t1aJOvCW1VVVV2+fBmnz+dEPnhAIX3L2LFjNwQEiLggkraWVlBg4MiRIym0PXP2LM3r02hra2/YsMHfz0/Y0eDHF6jgQ4fc3Nwof0JDQ8OWrVvFWKb842fHS5cu8bKUQFlZ2Wvt2vXr1iEa/Jzm5uatgYHUEvPo6uru2rnzVw8PUWZykpWVnTFjxpbNmyksycvJyaE2/aQNuHf//h9//EHUpFvXrgsXLhTeLoVeu0baxMDAYNfu3aKJBj9wc3NbQZ4IIOLOHV7GOKytrL4dNWrq1Klj3NycnZwQDSIghP9RU1OzY+dOys1tbGwOHTok+uxMcnJys376aeeOHYLKtCFAqamppFnFlJWVgwIDbf83EZbImJmabgsKopAD4K+rVyWuWKXIhIaGkjaZMH78b/Pni2VMXVpaesnixRTGI8rLy+lcmO6bgQMPh4Q4OzmJ+O/Ky8svXLDAz9dXkerje2pq6vnz58UeENbW1v5948ZXt7eysjp08ODAgQNx4n9BWFgYtfUO3bt3P3jggIgfzT/+63v37KEwaHhOfAewGL158yYoKIg02vf19RXe3Pvk5GTS/Avq6upBgYHa5D86/4YMGTJ16lSiJoWFhfzMyAAEhPCPo0ePlpWVUWs7dOjQbUFBYrlktOrSpcvBAwe6d+9Oqy69FhZGtL2MjMw6f/+OHTuKcZ8NDAwCAgJIc2yw2ey79+7hJPq3nJwc0hmYAwcO9PDwEOM+MxiMBQsWODs7kza88uefNPwJGAzGb/Pnr127VlFRUVz70Ldv3127d1MetDp56lRhYaFY9rypqal1rCciIuKrqwcH9O+/LSiIhmNztFJdXX302DEKDQcNGrRxwwbxps00NDTcFhREutQqMzPz9RdLh7c9ZWVl3j4+ROOkCgoK69etE+oytujoaNIma9asEWxOOyLT3d1Js+bGxsbiIoOAEKhLT0+nMJGg1YQJE5Z7egqkHAI/VFRUNm7YIN4EDB/jcrmPHz8mvfZ169ZN7HtuYW7uMXs2aasbPLw9aIeiSJKkt44QL12yROxToKWlpVeuWNGhQweiVllZWSmEr8SFjcVibdywYezYsWLfEzNT0507d1JbDfj+/fuDhw6Ja89bXxLeuHnzy5sNHz587dq1mHz1VefOn6+uriZtNWDAgFUrV9Ihb5OBgcHaNWtIr1E3v3b8tCXU0oquWrlS2MPBLwmDJVdXVwd7ezH2pIyMzC8//0zUJI3vIi6AgLBdCzl8mFp9v0mTJv3q4UGTJXxMJtNz2bLRo0fTYWfS0tOJ6umbmZlNnjyZJsfD2LFjraysiJokJCQUFxfjVPrEs6dPibZfvGiRGF9kfUxVVXUuD3XqPnGHTouFFBUVgwIDhZSsjwJtLa2tW7ZQW2IdFRWVkJAgroCwqKjoy2kSXV1dly1d2m4Th/CuvLz8T/IX6d26dVu9ahV9urd79+5Tp0whavLo0SNq2bYlDrW0orN++qlPnz7C3jHSvZr2449i708nJydjktXIb/morwgICNu7V69evXjxgkLD4cOH/zxrFq2+C4PBWLhgwWBXV7HvSezLl0Tb//Lzz/S53zMYjPnz5lF4ZsXZ9DEOh5OQmEj0mEWf6KX1Kd/GxoaoyQM+0ugLFovFCggIENdqq8/R0NDYumULtVxBR44eFVdA+OVq4A729ss9PWmb2YtWKBR91dTU9PH2pltNl6lTp+rp6fG+fXV1dRx5+mJJRCGtqKur66RJk4S9Y0VFRe/fv+d9+y5dugipECKpIUOG8L6xuGbXAwLCtuDkqVMUWnXr1m3xokU0fAhgMBienp7dunYV724QVe8wMjKisGRLqGxsbEj78OmzZzibPpadnU00KD5h/Hi6fYUphG+tS0pKcnJy6LDnq1auFPtF4D/p6uqu8/en8HwfFxf3WhyP1DU1NY8+P/tdX1/fx8dHUkpQite7d+/Crl8nPpJXrSKdvC0CcnJyswlXFjwhXEMhiSikFbW2slq2dKkIHqVIp/DY29nRpFeJ0kNQK6ULCAhBKiUlhcIaXA0NDW8vL9o+BDCZTC8vL/HWGM3KzuZ945EjR9IwtB4/YQLR9q9fv+YlK337QXQMaGlpOYk8B+ZX9erVi+g9gJSU1EvCd+PCMGnSpH79+tH2wLC2tp47dy6FhmfPnhX93r59+zbxMy+6mUymt5eXiooKTnZe3I6IqKmpIWoy+ttvxbuI6wv69+tHNP85MSmpbf++FNKKamlp+fv7C6/U+8eqCY89c3NzmnSshYUF7/Onvpr7ChAQwn+7fOUKhVbLPT1FXCGNQsjquWyZGHegtLSU941daPZ6sJWzkxPReraGhob09HScUx+Uk6TtdXJyouf7dtISAmJ/7LOysvrp87WJacJt9GgXFxfSVk+fPct9+1bEu7pv//7PzTSbOmWKhYUFznQe3STMvKWsrPwzYUYNEV8cviNJ15SWltaGRwwppBVlsVjr/P0p1HmippYwIKTPMx6TydTV1eVxY4xKIyAEKthsdmRkJGmrEcOH02ql0+d0FeuEsbq6Ot4vu9RyDwqbrKxs7169iJqQrllv23g/BloXYtHzWwzo359oe2oF1gSoS5cuMjIyND82GAzGokWLKBQnvE5YzEZ4OnXqNIUws0h7lpWdTVqW9scffxRvkYmvXxwGDOB9GKuxsTGTZCWFBGloaPD18yNKKyolJeXp6SnS8RTCAUdaXUVpOGsaEBC2KbcjIkhHU1RUVMRbJE1S8D5vwdTEhLbfohvhKoK2er+nppYkIDQzM6Pnt7CwsFAgiVsKCgqIUhe0W9paWtNnzCBtdfPWLToMgTMYjCVLlmDpIO9Ix15VVVXd6JEx+ws0NTWJ8lG/Ffn7bRHgcrnbtm0jrbgz7ccfvyGcfMEnJSUlou2ryIujCA9LJLNqAQFh+xUREUHaxH3aNKwYESx9SmnoRcOGMEljDsmqOfifw0Bfn547xmAwiHJ1crncNvnYJwxjx4wh/d2rq6ufU0oKLViugwZZE1amaedIE/COHTtWIoo6EiX8KGqLGSBPnT599949oib9+/efPn26iPdTXl6eaHtaXcYVCaNZQEAIBPLy8kgn+Glra7u5uaHrBEuJHnXn/pOZmRnRS4AilCKkSoF89qDIkGYXQOJvHjGZTAqVvu6Ku9ijrKzsTz/9hJ+P4MJYVESUd1paWnrUyJES8dWI3hAWl5S0sV828sGD48ePEzXp3LnziuXLRb9iXEtTk2j71+2jTAggIASpL5eW+k+TJ03CHCHBRwI0DgilpaV1dHR4376kzd3vRTQoQO/hT9JEo6Uk2XTaucGDB/OeL6FVdHR0U1OTGPd55MiRpPvczpFW+nV0dNTS0pKIr2beuTPvG5e3rStDalra1q1biZqoq6uv8/cnfVknqMs4URT64sULNpuNkxcQELZ9T6KjibZXVFQcOnQo+q29IXry43A4pHnVQQKOAZJBASkpqQrC5ArtmYyMzJgxY4ia1NbWxsfHi+12Li39w8SJ+OGIxBDWYnEdNEhSvpq2tjbvJQEa21AGyPLych/CtKJMJtPX11eH8HIqKCwWi2iCekNDw19Xr+LkBcHCOyXaqa+vJ32kGDJkCJ1ntdHN3DlzeNzSxsaGzl+ENCl2TU0NzTPjiUy/vn31eAunZWVlaX0MEM41qqmtxa/PuxHDhx89epQoVcyz58/txZSWduCAAXg9SCohIYH3jRkMBoWSJGIcINDS0uKx6HmbqRHX0NDg4+tLVFxKSkpq6ZIltl26iHG3ra2t8/Pzed/+/Pnzg11dDQ0Nxd7hI0eMoE+hfEBA2KbEx8c3NzcTNcHrQSLjxo1rI2cv4SThWgQD/8euRRv4IrKEx0AdjgESqqqqLs7OUSRz+OPi4sS1t26E7zOhpLSUKHLoYmOjqqoqQV9QWVmZx4Cwvr6+Dfyg1NKK/jBxotgforp3737nzh2iuNfXz2/njh1iH+TtRVgBC2gLU0bpFxCSDFi2zj5HTrn2SZHGSxxBNEinBjQRDjYBafX/1NRUorlqgmJiYtJNrPVdJdEbwsjB3sGhrV4fxLv2VVAopBV1dnb++eefxb7nLs7OpMlssrOzl3l6IjsAICBss0iLR/ft0wedBrzAG0JoG+8BRMnZ2ZnoVTyHw0lLTxf9fg4bNgw/FqmMjAyi7cU7q5ACWlUwFzYKaUVNTU3XrlnD+0pL4VFXV+/ZsyeFA3juvHnPnj3DuQwICNsg0oITFC4i0D5xuVx0AgARJSUlK8IpGOlpaaLfz0HffIMfi1QmScEJKSmpjp06odNo+uBEnlZURUVlnb8/fSbajKFUOYzNZq9Zu3Z9QEBBQQEOA0BA2HaUlJZWV1fzvj2TyezWrRv6DQBASBwdHYm2TxN5QGhpaSmuBIkSLS8vjyh+0JaQghPtDYW0ojIyMr4+PgYGBvT5Fi4uLp2ojjhERkbO/OmnwMDANHGMRkHbgKQy9PI2N5do+06dOrFYLPQbAICQ2FhbE22f+/atiPfQ2ckJPxMFRC9VOkng68HOPJciNKRTaESEWlrR3+bPF1c24M9hMBgeHh6rVq2i1ry5uflWePit8HALc/OhQ4f27dsXg0SAgFCC5RIGhFZIJwMAIEyWlpZCvYzzr0ePHviZSLHZbKIltaamphL3HefNndu2f0RqaUXHjBkzevRoGn6dHo6Orq6uROlG/y01LS01LW3/gQMW5uYO3bs7du/erVs3vDkABIQSprCoiGh7MzMzdBoAgPCoqal16NChsrKS90ijoaFBZE9gigoKNK+YSk/l5eVE22thvqjgxCckKMjL8/85T58+JU0r2r17dzrHyb/Nn5+QkFBE+Cj4hcjwwoULTCbTxsbG1tbWytLS2toaRzIgIJQApYQZhE1MTNBpAABCZWJiwntAKCUlVVxSYmxkJJp9s7S0bFfJJAWlrKyMaHtNDQ10mqB4e3uL5e8aGBj4eHvT+XxRUVHx9fFZsnSpAKvXcDic1y1a/1NDQ8PKysrSwsLc3LyzuTlWxgICQloGhITz4PX19NBpAABCpaenR1RxvqysTGQBoaKSEn4gCthsNtH2GggIJZySklLA+vVir+T+VRYWFj4+Pr6+vhwORxifX15e/rhF63+qqal17tzZwsLCytLS2sYG8SECQqCFKpIUowwGQ1NTE51GHxwOp7hFRUVFdXV1dU1NdVVVdU3N+4aG942NUlJSDe/eNQruEp+fn48+p6HKysri4uKS0tIqNvufY6C6uqa6uuH9+9Y6kM1NTXWCKwb4/v17dLgIkD4kVREGGyB6NTU1RNtjop1EYzAYa9esMTY2loi9dXZy8vP1XR8QIMD3hJ/DZrNjWrT+p4aGhrW1tbWVlaWVVRcbGwUFBRw8CAiB7rcoVVVVoorJIFi1tbUZmf/ISE/Pys4uLCwsLy9Hrb92pbm5OS8vLyMjIyMzMyMjIy8vr7i4WAS3cBAx0rdDrcE/0FldXR3R9ngylmhzfv3VSaKS8bq4uOzYvp1CAlU+lZeXP2ohJSUlLS1taWlpb2/vYG9vZ2cnJyeHAwkBIdAxIFTCTCGRKy8vj4+PfxUXF/fqVVZ2NjqkHeJwOKmpqa9evXoVFxcfH//u3Tv0SZunRDjNjPTtE4ghICR8UY+AUHKNGD583LhxErfbFhYWB/bv37Zt25PoaLHsQHNzc3KLc+fOsVgsBwcHZyenvn37Ym4aAkIQOqJ3C/KCSNIFvMjPz38YFfXgwYPk5GT0Rrs9N5+/ePHgwYPHjx+TvlsASUd6sa3HMEHbutu2vi1Bp0mibl27Llq0SEJ3vkOHDuvXr4+4c2f//v1VVVXiPV+iW+zdt8/W1nawq+vAgQNVVFRwgCEgBPFTUlREJwj7Cnjv3r2roaFv3rxBb7RbqWlpf/311/379/EysN1SxNshHAO44Urok5KSkqSn4R3s6urUs+ep06dDQ0MbW/IRiBGXy41vsf/AgQEDBowcMYJuJf4BAWG7w8CApdCUl5dfunTp+t9/Y+pXu8Xlcu9HRl6+fDkpKQm90c7h7RDgGJBQT6KjT50+Pe3HHyX6W6iqqs6dM2f8uHGnTp++ffs2HdKJNTY2RrSwsLCYMnlyv379GAwGjjcEhCCesxGdIHDV1dWnTp0KvXYN+Rvbs6hHj44cOZKTk4OuAGRzBZBoJ06csLS0dJaopDL/SUdHZ8nixT/PmhUWFhYaGloi2nwzn5Oamrpu/XoTExOP2bNdXFxwvCEgBFFDMkPB4nK5N27cCA4JwVvB9iwvL2/nrl2xsbHoCvh/ASFG3wAk+ea+adOm/fv26evrt4Gvo6qqOmXKlMmTJ7969Sr89u2HDx/SYVl7Tk6Ol7e3o6Pj/HnzTExMcNRJHEyBoBeiF+71gqtmBqWlpStXrdq+Yweiwfb80PDXX3/N9vBANAifqCMsIyGNqVO0R5pDH7cGiVZTU+Pr59eWhtEZDIaDg8NyT8+LFy5s3LBhjJubjo6O2PcqJiZmzty5ly9fRgkuiYM3hPSiqKjIewErTBkVlNhXrwICAtioJd2en/jr67du2RLVUnwJgM+LLWoCScDdljBRUG1trTJh9RGglczMzO07dqxetaqNfS9ZWVmnFgsWLMjLy3v58uXL2Nj4+Pjy8nJxXS0PHDwY/fTpmtWr1dTUcOAhIAQqlJWVeQ8Iq6ur0WP8u3Xr1vYdO5qamtAV7VZ5efnqNWsyMjLQFSCQiy0CQom42xJtX1lZqauri34TiEMHD/J/jgSHhERGRhI1uXPnjrWV1ffff99WO9awxejRo6WkpIqKihITE5OSk9NSU9MzMkQ8rTQmJmb+b79t3rTJyMgIBzwCQiBGdIlsaGior69HtVx+hIaG7t6zR6jPHBoaGioqKkqKikpKSrKyslJSUvIKCgLJgh0XF5eeno4fkU8lpaWenp75+fnCusgymZqammpqaootx0BrtRgZJlMgdUTr6upu3ryJH1HYiktKEBC2tbstYUBYUVGBThMUHR0d/l+3ei5blpmZmZubSxaLBgebm5t369atzXeybotBgwa1LogoKChIS0tLS09Pb/m/Inh/WFRUtHjJksCtWzt27IhjHgEhkFHv0IHsWbakBIt3Kbt7754Ao0EGg2FqYmJlbW1mZmZkaGhkZKStrc1isYS3//sPHEBAyKeampqVK1cKMBpUU1OzsrQ0t7AwNjIyMjbW09XtQHhSk95xERCKQFFREdH2HdTV0Wk0p6mhQTYoUFyMTqMVBQUFXx+f3xYsIKoQ29TUtD4gYP++fVpaWu2nrxgMhkGLAQMGtP5LeXn5P7FhS3j45s2bwsJCYfxdNpu9fMWKvXv26Onp4YhFQAgkjxGEz475+fkICKlJSUkJDAzk/3OMjYycnZ0dHR3t7OwE8s4HRIbL5QZs2EA6wPxv8vLyPXv27OH4DwMDA3QsAkINBIT0Dwg1NYm2f/v2LTqNbkxNTZcuXbpx40aiVhUVFevWr9++bRuT2X6fgTVaOP1fKY7y8vL4+PjExMSEhIQ3qanNzc0CjAnXennt3bMH09kQEAIB0iEr3KKoqauv37BxIz9ZeZSVlUeMGOHq6mphbo7+lFBnz5178eIFP5/g6Og4YsSIXi4uuNW17YED4oCQ8O0TiJ62tjbR9jl8jxyBMAz65pukxMQrf/5J1CopKWnf/v2LFi5EB364ZA1o0boSITY29tmzZ48ePxbIzNKcnJw9e/euWL4c/YyAEHilR1gkJx1pMCg5cuRIQUEB5evmjz/+OGzoULwPlGg5OTknTpyg1pbBYLi6uk6eNMnMzAw92eYVFhYS1fjR0NAQ6lxxEAh5eXlNTc2ysjIet09LS0On0ZOHh0fKmzeJiYlEra5du2ZtZTV8+HB04CcUFRX7tFi4cGFSUtLtiIi7d+/yWXYlPDz8m2++cf6/F5JAQ6hDSC+GhPPNUlNT0WmksrKzQ0NDKTSUkZGZ9uOPx48dG+PmhmhQ0h0KDuZwOBQaWltb79u7d9XKlYgG2wnSyyymDUvMDdfQkPeN2Ww26YtiEA0mk+nl5UWhwsGu3bvxEPUFDAajS5cuCxcsOH/u3HJPz06dOvHzaQcPHEA6dwSEIJT7U+tbDhSfIPXHiRMU5scbGBjs3rVrxowZCAXbgITExKdPn1K4O053d9+5Y4eFhQX6sP2IT0gQ6mUcxMXM1JTsSIiPR6fRk7aW1to1axgMBlGrxsZGP3//qqoqdOCXycrKDhs27OCBAz7e3sZUy0jkvn179+5ddCYCQuCJjo4OUb5yLpeLWxSRwsLCBw8fkraytrbevWuXpaUlOrBtuHjxImmT1kFod3d3gZQMAQny+vVrou078zeODiLTuXNnou1fxMSg02ire/fuP82cSdqquLg4YMMGAeZQacMYDEb//v2Dg4Mp3wcvkN95AQFh+0X6Uv7ps2foNN7dvHmTy+WSPjRs3bKFwnQUoCc2m/348WPSG6G3l9eA/v3Re+1NeXk56eKxTggIJYQF4Rjf06dPSW8fIEqTJ0/u5eJC2urly5dHjhxB7/GIyWROd3cPDAykUFEpIyMDa3EREAKvrAhvUdHR0bhF8e7+/ftE26uoqKzz90cOybbkYVQU6UqGGTNm9OnTB13XDkUTTi1mMBiYUSwpOnXsSLQEgM1mk84fBlFiMBgrV67UJ0zOJyUlde78+cgHD9CBvOvWteuunTvVyevrPCSfogUICNspW1tbou1LSkqSkpLQb7woKirKJSzUMfuXX3R0dNB1bQnp6sFOnTpNnjQJ/dY+kQ4hmZmZKSoqot8kgoyMTNeuXYmaRNy+jX6jM2VlZR9vbzk5OdKGQUFB2dnZ6EDeGRgYbNiwgbSW43P+Sj0BAkIEhF8SjlsUb0jXWxobG48YMQL9JkDvGhrEvg8JhGP8s376CesG26eysrIYwmVjpAEGiJeDgwPR9vfu33/37h36jc7Mzc0XLFhA2qq+vt7P37+urk6Uu5qdnZ3Om1xaFp22MDef7u5O1CQtLa2BBo8B8G+oQ0g76urqHTt2zMzM5L3JnYiIXz08kP2SlysR0fZuo0eTZi2DL6NW6UGASktL2Ww279vr6ek5Ozvjh2uf/r5xg3RCvmP37ug3CeLi4nL48GHet6+trb19+/bo0aPRdXQ2YvjwhPj4GzdvErV6+/bt1q1bfX19RXbfX+vlxWMtk06dOh06eJCGXT1u3LhLly/zfldtamp6+/YtaT4nEAG8IaSjnj17Em1fV19/48YN9NvXL/d5eUTbY9nYV5HOjmtsbBTvDucRHgO9e/XCoED7xOFwSAuWSktLd0dAKFHMTE11dXWJmly4eBHl1OhvwYIF5ubmpK2iHj06c+YMeo93LBZr6JAhZHfh/Hz0GwJC4O0ZtHdv0ibnL1wQ+7sX+quoqOB9Y01NTdIHhXaINFgiejsnDGVlZUTbU5jCDW3DrVu3ysvLiZrY2dkR1Q0COvhm4ECi7fPz8+/du4d+ozk5OTkfb29lZWXShseOH3/+/Dndvk5tbS1tu7q7oyPR9pUkT2KAgLBd62prq6GhQdSkpKTk+t9/S8oXrKmpEcvfrays5H1jPdpHg3QYpSZ9/CWNxwSONCLV1dPDMSCwZxoxnfgUcDick6dOkbZCYRJJ5OrqStrk6LFjWAdFf/r6+qtWriRtxeVyN2zcWFhYSKvvUl9fT9t+NjQwIHsSE/e4MCAglBgMBqNv376krf744w86jyF9sqv030kVVVU6715ZWdmdO3focKyyWCzet6+oqBDvq2zSJWGqKip0Pgwkq87vnbt36faY9TkXL14sKSkRwXUbxK5TC6ImRUVF58+fR9fRn4uLy9SpU0lb1dTU+Pr50Srmr66upu0YBKo0IyAEIRoxfDhpk8rKyqPHjtH/q6WkpEhEWtTm5mY679vmzZtr6PG+RVNTk2jPc3NzxRnBSpNd9JpofBg8evTo2rVrEnRZ43A4ISQJPMSluLj4NPk6ImdnZ9KZHUATbuRJYk6fOZOTk4Ouo78Z06dTWNmbkZGxY+dO+nwLLpdL26oYYk8NAAgI2zJLS8uOHTuStrp69eprwsoKIvb+/fstW7aIq5I+0fzG6upq2nbjqVOnYl+9osnOkJamzcjIEOPeKhFmwamh62FQWFgYGBQkcVe2yMjIqEeP6LyHXC53+/btFCZoURjFA5pwHTyYdPY7h8PZuGkTHoUl4DFXWnrtmjVaWlqkDSMiIv7880+h7htRQaNXtLnpf4J0IQYWWiMgBDLfjR1L4VFm06ZNdI5kDh06JMZyOkQpMWk7GhcZGXmCTnNuSW+0r1+/FmdASHgryqLlYVBbW+vl7V0jOUvyPrZz587S0lLa7t6VK1deENYelJKS0tHRoZAMDGhCUUFhjJsbaav09PQDtKwEAJ9QU1Pz8fYmLaH+zxNLcHC8MAfZFRQUeN/40ePH9Oxe0lflqJGGgBDIDB48mMLM7JKSks2bN9NzuuPfN25cJUzjLlhEWUPr6upoGBO+fPly0+bNtNolI0NDou0pPG0LkA5hrqCkxES6HQMNDQ3e3t60HbD4qsrKSn9/f3q+WomPj6c2qXXs2LFEg/1AN+PHjydaDt0qtAV6j/5sbGw8PDxIW3E4nPUBAaTZhokiVaKrU1ZWFj0vm0Tb6yF/OwJCIMJisSaMH0+h4dNnzw7Sb9jy6dOnu3fvFu8+mBgbE23/iGZz22JjY719fOhWX4R0bnNhYWFqaqq49tbYyIjsGHj8mFbDKw0NDb5+fjSfGf5VySkpNBy3ys/P9/P3p3B+qaqqjho5EvcsiaampjZu3DgKDffs3RsVFSUpXzMlJSWCBtnIxOL7774bNGgQaavy8vJ169YJ6bZroK9PtP3p06fp1qtcLpd0FYAR4V0YEBCC1NixY1Up5bq88ueftMrkGRsbu279erFHMqZmZkTbh12/Tp+0/i9evPDy9qZhnjEKi13FWCJFXl6e6EUxm81++PAhTbq6rq7Oy8vrxYsXbeDiFvngQdC2bfSJCUtKS1etXk2tTubECRMolDsDupn0ww8UZuVwudyADRse0XtlbKvnz58vX7Hi+PHj7baw/pLFi01NTUlbJSQmCmlusImJCdH2d+/di6fZaGBUVFRxcTHv27NYLB0dHVxtEBACGQUFhSlTplBre+KPP44cOUKTJ7/Va9bQIZLpamtLVEi9qKjo1q1bdOjD69evr/XyomfWaUNDQ6KFEFJSUuHh4WKsUG9vZ0e0/anTp+nw/FRSUrJk6dJYuuYVoCA8PHzd+vXv378X+54UFRV5enoWFBRQaKuurj6WfL030JCSktLPs2ZRaMjhcPz8/a9fv07br8blcs+cObNm7dr6+vqCgoJ2+5JQQUHB18eH9IbVmrHvVni4wPfH2tqatMnmLVvos3qcw+EcO36cqImdnR3RYxggIIT/33djxxoSrtH64MzZs4GBgWJ8L8flck+eOhUQEECTWY5qamoWFhZETQ7//jtROXthXHD3HziwY+dO2o7pysjI2BGGWA0NDSdOnBDXDvfo0YNo+4yMjCtXroi3k+Pi4n5bsEC8CVqFISoqatmyZaQV/wQrJSVlwcKF+fn51JrPmjWLwvMl0NOIESO6dOlC7Wa3Y+fO/QcO0PBCnZ+fv8zT88jRox/ye587d05cub7FztjY2HPZMgoNd+3alZaWJtidsbKyIp1cUFRUtJ42z1QnTpwgXc3e3cEB1xkEhEAFk8n8bf58ys1vhYcvWbKkqKhI9HteXl7u5e19/PhxWt14erm4EG1fVVW1YeNGcU1sKygoWLxkidijka9yJK/ydC0sLFFM+Vp69OhBmv/j9yNHxLW3zc3Np06f9ly+XHiJDcQrOSVl7rx54qpFcf369SVLl1ZUVFBrbmNjM3zYMNyn2gwGg+Hp6Ukhu0yrK1euLF22jNqrZmFoaGg4eerUbA+PT3I75+Tk3I+MbLe/8oABAyisF33//r2fv79gs7hLS0v3JByglJKSiomJ8V+3TuwzhsLDw8+cPUv8DNarF64zCAiBop49ew4dOpSf561f58y5deuWyAIzLpcbHh7+y+zZT58+pVtnDhs2jHS6Qmxs7JatW0UcEzY3N1++fHm2h0dKSopEHKIUvuDGTZvEMnFUTU2NtEIAh8Px8fXNzMwU8a5mZWUtXLTo2LFjbXs4n81m+/n5bdq8mXJgRkFFRYWfn9+OnTsp5ztlMplLly7F9Kc2xtjIyGP2bMrNExMTZ3t4XLp8WbyvCjkczrVr12bMnHn8+PH/nJV99uzZdvuSUEpKavYvv9iSvwouKirasGGDYB8GRo0aRaHVkydPlnl6lpWViasDQ0NDKRTCtbW1NSbM7QcICOF/zJs7V5u8rOoHtbW1gUFBnsuXp6enC3tXExMTFy1evDUwkJ7lEHV1dZ3Io5c7d+6sW7+eQq1qal7Hxy9ctOjAwYNfHQKUk5MbxsdggaCYmJh06tSJws119erVYlkOMfrbbykELctXrIiLixPNHtbU1ASHhMyZO5eXEYERw4dTKLFFN3fu3Jk5c+a58+eFPfLN4XD+/PPPWT//zOdryZkzZ5qRJ6gA+nNzcxvQvz/l5g0NDQcPHvx1zpwn0dGi3/nq6uoLFy5Mnz591+7dXwgY0tPTnzx50m5/YiaT6e3tra6uTtrwRUzMsWPHBLgnDg4OBgYGFBqmpKTM9vAQ/XLQ2trazZs3796zh8KAArIxIyAEfikrK69es4bPoei4uLi58+YFbNggjJdOXC43NjZ29Zo1ixYvTkpK4uVyLK5H2AkTJlBoFRUVtXDhQmHXS8jIyPD29l66dCmPv9F0d/e+ffvS4RAdRmniXGpa2sKFC3PfvhXgnpSUlLx8+fLL2zg6OlKIYNls9oqVK8+cPSvUsf/6+vrzFy64T59+4cIFXv6Qvr7+vHnztLW1aX4Rk5OT++o2dfX1hw8f/nHatDNnzwpjRKmhoSHs+vWff/ll3/79fI5EdO/e/YeJE3FvapMYDMYyT0/SDJCfyM7O9vb2XrBgQUREhAiqbjY3N7+IidkaGDhp8uTgkJCS0tKvNjl95kx7/pU1NTXXUHqsOnP2rAALjTAYjKlUcwdWV1dv3rx5ydKlCQkJIugxDodzNTR0xsyZ1KJQbW1tV1dXXF5oS8bPzw+9IBF0dXQUFBT4zzifnZ19/e+/Y2JiWCyWrp6erKwsnx9YWloaFha2bfv2i5cu8ZiYgcFgbNmypUOHDjxexYyNjQd9842gelJfXz8xIYHCMo9KNvvvGzeqq6osLS3l5eUFG05HR0fv2r378OHDb/PyeGxlY2OzbOnS9+/fh4WF8Riz6enpCen4NNDXv3LlCoW5NFVVVTdu3JCWlrawsOBnjCA/P/92RERIcPDBQ4cYUlJfjpMZDIaeri6FuxqXy3358uWT6Gh9fX3SElJfVVRUdOr06c1btjx58oTH3JsMBsPf39/Q0PBhVBQvS4UFeypVVFRc4+3Yk5KSCgoMLC4uLiws5CVse/ny5eUrV97m5bHk5HR1daWl+R27zM3NvXLlyuYtW+7fv89/qKmjo7N50yYh5ZKpra29TLJsWLC/qdgVFRURpXO0byHw3ZCVle3l4nLn7t13797xdX8sK3sYFXUtLKyqqkpVVVVDQ0PgR8vTp08vXb68ffv2sLCwjIwM3i/CpaWltra2ArmO3bt3Lzc3l/ftJ0+axMsIkbDp6enJycnFfG0A8d+inz7t168fhSIl/6lz584Po6Iop68rLi6+cfNmTEyMnJyckZER6Qp5Hv/ElStXNm3efP/+fcozOObOnWtpaYmHedpitOdJ5JJoy9att2/fFtSnMZnMnj169O7du2vXrsbGxrwPlTU2Nr5JTX0ZE/Ps+fOkpCTSo2jG9OnTpk27desWj3PQzczMRo4YweOHjxgxQlFR8cvbpKenz5s/n/JKAHl5+WHDhrm5ufE5YYzL5SYnJ0dGRt6PjCRNtKiionJg/35dXV02mz2BtzcVY8aMMfzi1BRZWVk3NzfKX2fXrl28hwf/pqGhMWrkyEGDBvE4MM9ms7OysjIyM5MSE+MTEj7uwGFDhy5fvvyrn7By1aqYmBjKO2zbpcvY777r17cvn6MqlZWVDx8+vB8Z+erVK9JTyd3dfbq7e2su8oiICIGcSnZ2dubm5rz89fT09Dlz5/K4q1cuX+ZwOPPmzePl3cXH1NTUevbs2cPRsVu3bkQjGg0NDcnJyXFxcZEPHmRlZQnqsslisXbs2GHBWxd9EBcXx2OKwurq6pOnTvH+yUSXRykpKXNzc9K0wPx78uQJj8OFefn5V69e5f2Te/bsyeMqAApf/M2bN8tXrKirqxNUP2hrafXu3dvBwcHaxobaMhAOh1NQUPAmNTUpKSklOflNaio/S9rs7Oy2feYunJ2dzfsA9N83bhCdYrNmzWLxFhDyckPn8y7s5+9PoYyksbHx3r17FQU0KvTq1StPHu5ZX6WgoODs7Ny7V69u3brxWe7v/fv3SUlJr+Linj17lpyczOeOWVtb7961CyuuERCCwHA4HC9vb2FUplZWVra0tDQwMNDT09PT1VVSUmKxWK0X4rq6uvp37yrKy0tKS9++fZuTk5ORkUF51lzv3r39/fwYDEZycvKChQsF/kVO/vEHL5XHjx47dvr0aT7/lpmZWf/+/e3t7GxsbHgc72xubs7JyXndIu71a2qLwplM5qZNmxz+b1z829GjBVLMTUlJ6U8+MpoWFxfPmDmT/3TYGhoaNtbW+vr6mlparQ8NjY2N9e/ecRobKysrS8vKysvLCwsLq6qqPvcJPAaERUVFHh4edfwtDVVUVOzdu7eTk5OdnR3vT3hsNjsxMfF1fPzr169TUlKoXYf79+/v7eXVeos9cvToGQFNAJs7Zw6PKfh4Dwi1tbVPtwQ5b968WbpsGeUxZjU1tU6dOpmYmOjr62uoq6upqcnLy7NYrObm5tbLVFVVVUGL3NzctLQ0geeCYjKZ/v7+zk5OpA33HzhAk3TB33///Tyew3hB8fXzE3vpdmpfPDk5ecXKlcJYQK6hodG5c+d/7rc6Ojqt91w5OUVFRWlp6fctOE1NtbW1VWx2RUVFeUVFaUlJ7tu3hYWFgp2yvmP79q5du/7733kfsRUqHm/o/KipqZn/22+UC88I6ovs37//yp9/CvAvamtpWVhaGhsZmZiYaGpqamhodOjQ4cNz3Yd4uLZFdXU1m80uLikpLirKy8/PzMjIyc0V1PWTxWId2L8f6WRojokukLAfjMn09fFZ6+X1SRZpgVwTY1oIdf9tbGzW/t+sffFeHdynTXv69CmfZYWyWvzRUovPqOWyq6Otra6hoaqi8mHaRkNDQ01NTUVFRV5+fl5eXlFREZ8hE4PBWLVypcNHs6R0dXQEuwyPGh0dnW+//favv/7i83PKy8tFU4RAV1d37rx527Zt4+dD6urqIlq01ig3NTExNDTU0NTs0BKrfLjpVldXV1VXFxUV/XMQ5OfzP2vRwd5+zerVHwZc+RwMFjYzM7PW/8fS0tLH29vXz4/aWcBms1+2EMu3aK1JQCEaBMllbW29ZfPmNWvXCjz9VXkLsX/BJ9HR/xkQth/Kysq+Pj4LFi4UyLgqZR4eHskpKbykYOBRSWkp6XQMIVm4cCGiQQSEIHgKCgqbNm708vKKffVKwu6sVlabNm78UOJJSUlJQ0NDXHdEJpPp7eU1/7ffBHKbb2pqym4hgkfSlStXDhw48ON/1KZHQCglJTVzxozIyEhRFg/g04jhw1+/fn3r1i2BfFpFCxGcmA729gEBAR8vuZSUgFBKSsrZ2dnH23vd+vU0qa3MIxkZmeXLlw9GUoT2x8bGZsf27Wu9vIqLi9vYVxsyZMjMGTPwE3fq1GnRokWBgYHifBxnMtf5+y9avFjY7ypF7IeJE+mQCx2+CllGJRKLxdqwYUN/PvJii56dnd3mzZuVlJQ+/kcTsQ4aGRgYrFu3jnINYrH87j7e3v9+JNWhTYZJZWXlJYsXS9bZtGTx4u7khfXFqFevXgEBAZ8ctxIUELbOG1/n7y9Bp568vPz6desQDbZbZmZme/fsoVC5jrYYDIa7u/uK5cvbQMUagRg2dCi1koAC1KFDh6CgIGpVKOhp9OjRv/zyC44uBIQgRHJycl5r106ZPFki9vabgQM3b9r0STTYWr9OvDvWrWtXby8viXgw1dDQ2L5tW79+/f79P9EqGOjduzePK9BoonVc1kEIiQqF4YeJE/39/P59xOrQu+xEx44dP/kXJyen7du2aWpq0r/PdXV1t2/f7oSZou2burp6UFDQhPHj28Z32RAQMN3dHUk+Pvbb/PkWFhbi3QdtLa3t27ZRqIpEQxMmTFi4YAGOMQSEIPwfT1p61qxZvj4+/w606IPBYPzyyy9r1qz5z0yMRjSYVu7i4rIhIECoecz45+joeGD//s+lbNam2duhXz08nJ2dJehUkpeXDwgIoPnaMCUlpbVr186ePfs/azAotqDtReA/5wJYWlru37eP5uuXevTosX/fPtKcotAmMZnMX3/9dcOGDRIxkPE5gwYNOhwSggGOf5OVlfX18VFWVhbvbmhqau7csWOARE0B+/eZsmjRol89PBANIiAE0enXr19IcDA932/o6upu37Zt0g8/fO6iYCruN4St7O3t9+7ZY8pfDQnh3aI8Zs/evGnTFwpY0a0oubS0tI+3t6S8c2vFYrHWr18/adIkeu6enZ3doYMHv/nftaOfoO2sUX19/c+9hNfQ0AgKDJzu7s5/pUGBk5OTmzd37qaNG1VVVXGjgQ+cnZx+P3z421GjJO5h19TUdMvmzWtWr8Yh/YWHltWrVon9l1VQUPD29l60aJFgKx6LhrGR0e7du0d/+y0OJwSEIGra2tpbt25dtmyZ2Ee2PmAwGKNHjw4ODv7y8D99Ek8ZGxvv3bNnKM2WPjs7Ox8OCZk4ceKX7080jARYLFZAQEDfPn0k6WooLf3Lzz+vX7dORUWFPnvVoUOHFcuXBwUGfjX3Om0Dwo7/u4DwEzIyMu7u7nt276bVLKnu3buHBAd///33GOGGf1NSUlq8ePG+vXttbW0l5SFh6dKlwYcOOTo64uf76m33x6lT6bAno7/99vfDh3v37i0pXcdkMqdMnnzw4EFMqZBEWEzcRjAYjBHDh/ft0+fkqVNXr14Vb/o+ayurBQsWfG5+4yd3KQUFBWGUeKJAXl5+xfLl3wwcuGfv3sLCQvHuTOfOnWfOnNnLxYWXjXVpGQmwWCxfX98TJ06cOn1aguqd9urV68jvvweHhISHh4v9gBw7duyUyZN5nBNO22WE/15A+G+WlpYH9u+/FhZ29OhRgef3J2JoaDj7l1/69u2L2wp8mYWFxc4dO54+e3b06FE+KxgJj4mJyaQffnB1dUXyGN65u7snJSW9EHIVLp6u6jo66/z9Y2Jijh47xn91eKE+gg4cMGDWrFn6+vo4fhAQgvipqKjMnTNn/LhxZ86cuRUeLvqiOp07d3Z3d+/Tuzfvw+pGRkapqan06cPWl3Lnz5+/dPlybW2t6HfA3Nx82rRpRH0oJyenpqbGZrNpeJOYMWOGY48e27dvf0uPwhi8aH0pN3zYsMO//y6We7CCgsKYMWMmTpigpqZG8Ogg5PLNlJl98Q3hB9LS0mPc3FwHDbp85R+iDwsNDAx+nDp18ODBH4qIAnz9luHk5OzkFBMTc+nSpWfPn9Nk8IvJZPbp02f0t986ODjgLTcpaWnp1atXz503r6SkhEUSXNcAAAjGSURBVA7749jiRUzMhQsXXrx4Qau+YrFYQ4cM+e677+i56AYQELZrOjo6ixYtmjFjxt9//30tLEwEpZMYDIZTz55ubm4uLi6k9x5TU1NaBYStFzh3d/fvv/8+NDT08pUrlZWVookBvhk4cNSoUdbW1lR+dG1tGgaErbp17Rp86NCff/559ty5qqoqERyNenp6/H+Ovb39nt27X758efr0aZHV/LS2th41atTAgQMVFRQoHAP0PABMeQsIWykrK093d584YULY9ethYWEiGEdgMBiOjo7fjR1L4fIF8PEje0FBwc2bN2+Fh4srkGAwGPb29gMHDOjfvz/RcBJ8Qk1NzcfHZ8mSJfQpl9rD0bGHo2N+fv7fN248ePAgLy9PvPtjYW4+dOjQYcOG0TmvISAgBKkOHTpMmTJl8uTJcXFxd+7effz4sTDKhZuZmvbr33/E8OG6VN9OGBsZ0bMDlZWVp0yZMnHixOjo6Bs3bjx7/rypqUkYf6Vnjx69ev+DQgzwgbaOTipd5yy1psaZOHHimDFjwm/fvnLlSk5OjsD/hJycXLeuXfv06dO3b18B5gDs3uLt27c3b90KDw8vKysTxjOclaWli4tLv/79zfgYZKXnGkImk0nhHFdQUJgwfvz4cePi4uJu3779+MkTYYx3WFpaDujf33XwYG0tLdwygH/6+vozZ86cMWNGcnLyg4cPnz19mpWdLYK/q6mp2aNHD0dHx549eiAOFBRrK6u5c+fu2bOHVntlYGDw86xZP8+alZmZ+fDhw8dPnqSnpzc3N4vset6lS5d+ff9B8+K3QPwoIkFre4AfXC435c2b2JcvY2Njk5KT6+rq+Ak1bWxs7O3t+/Tuzf988dTU1PDbtwX4Td2nTRNGUpC6urqYmJinT5/GvHxZVFTEz0cpKipaWVnZdunSvXt3W1tbgcxPu3//fkJiIp8fwmKxfp41SwRHY2paWlTLnSwzM5OfS5C6urqVpaW1jY2trW0XGxs5OTlhn0Rp6elPnz59/vz5mzdv+JmSzWAwjI2NbW1tu3bt6tSzp7q6Ov+7V1lZefrMGf4/p1/fvnZ2drxsWVpaev7Cha9cLtTUpvKdoYHL5SYmJj6Jjo6Pj09NTW1oaODnkb1r164O9vaOjo5aIowDo6KiXsXF0eFeYG9nJ/oVkn/fuJGZmdkOv3hJaWlcXFx8fHxycnJWVpagXjcpKip2NDOztra2tLS0srIyNDQU+J4np6TcuXNH7IerkG7ovDt/4UJpaSmdv0h9fX1SUlJ8QkJSUlJ2drZg304zGAwdHZ3OnTt36dKlq62thYWFsO+zgIAQRBoc5ufnZ2Vl5eTk5Ofnl5SWlpWWVtf848OTlrS0tEILFoulq6ur18LQwMDKykqXrkuVRKa6uvpNamp6enpBfn5xyT8qKyvfv39fV1f34YSSlpZWatFBTU1DU1NLU9PA0NDQwMDMzExXVxcz01rV1tampKS8efMmPz+/uLi4qLi4srKSw+G8e/fuQ4zKZDIVFBSUlZQ0tbTU1dU1NTUNDQyMjIxMTEzEOBbe1NSUnZ39JjX1bW5uUVFRSUlJaVlZTU0Nh8P5OFxRUFBoPQy0NDXVNTRaTyIjY+OOZmafq8QAX+35jMzM9PT0woKCwsLCwqKi0tLShoaG1hPw4ydmFRWVDh06aGlqauvoGBkampqadu7cmVYpZKFd4XA4OTk5eS0KCwtLy8oqKirYbHZti48fxlqve7KysoqKih1aqLf8X319fQNDQyNDQ4EMIUGbVF9f/zYvLyc7u7i4uLyiorKioqKysry8vKGhoTUtwicPKgotU5OUlJQUFRQ0NDXVVFU7qP/DsOVIMzIyQgSIgBAAAAAAAADaMtQhBAAAAAAAQEAIAAAAAAAACAgBAAAAAAAAASEAAAAAAAAgIAQAAAAAAAAEhAAAAAAAAICAEAAAAAAAABAQAgAAAAAAAAJCAAAAAAAAQEAIAAAAAAAACAgBAAAAAAAAASEAAAAAAAAgIAQAAAAAAAAEhAAAAAAAAICAEAAAAAAAABAQAgAAAAAAAAJCAAAAAAAAQEAIAAAAAAAACAgBAAAAAAAAASEAAAAAAAAgIAQAAAAAAAAEhAAAAAAAAICAEAAAAAAAABAQAgAAAAAAICAEAAAAAAAABIQAAAAAAACAgBAAAAAAAAAQEAIAAAAAAAACQgAAAAAAAEBACAAAAAAAAAgIAQAAAAAAAAEhAAAAAAAAICAEAAAAAAAABIQAAAAAAACAgBAAAAAAAAAQEAIAAAAAAAACQgAAAAAAAEBACAAAAAAAAAgIAQAAAAAAAAEhAAAAAAAAICAEAAAAAAAABIQAAAAAAACAgBAAAAAAAAAQEAIAAAAAAAACQgAAAAAAAEBACAAAAAAAAAgIAQAAAAAAEBCiCwAAAAAAABAQAgAAAAAAAAJCAAAAAAAAQEAIAAAAAAAACAgBAAAAAAAAASEAAAAAAAAgIAQAAAAAAAAEhAAAAAAAAICAEAAAAAAAABAQAgAAAAAAAAJCAAAAAAAAQEAIAAAAAAAACAgBAAAAAAAAASEAAAAAAAAgIAQAAAAAAAAEhAAAAAAAAICAEAAAAAAAABAQAgAAAAAAAAJCAAAAAAAAQEAIAAAAAAAACAgBAAAAAAAAASEAAAAAAAAgIAQAAAAAAAAEhAAAAAAAAAgIAQAAAAAAAAEhAAAAAAAAICAEAAAAAAAABIQAAAAAAACAgBAAAAAAAAAQEAIAAAAAAAACQgAAAAAAAEBACAAAAAAAAAgIAQAAAAAAAAEhAAAAAAAAICAEAAAAAAAABIQAAAAAAACAgBAAAAAAAAAQEAIAAAAAAAACQgAAAAAAAEBACAAAAAAAAAgIAQAAAAAAAAEhAAAAAAAAICAEAAAAAAAABIQAAAAAAACAgBAAAAAAAAAQEAIAAAAAAAACQgAAAAAAAASEAAAAAAAAgIAQAAAAAAAAEBACAAAAAABAG/f/BQAA///9HvAe9fm2gAAAAABJRU5ErkJggg==;" vertex="1" parent="1">
          <mxGeometry x="480" y="1150" width="120" height="63" as="geometry" />
        </mxCell>
      </root>
    </mxGraphModel>
  </diagram>
</mxfile>
